<mxfile host="65bd71144e">
    <diagram id="uOMe11V8rjsx5xXzRh3s" name="Page-1">
        <mxGraphModel dx="3358" dy="1953" grid="0" gridSize="10" guides="1" tooltips="1" connect="1" arrows="1" fold="1" page="1" pageScale="1" pageWidth="850" pageHeight="1100" math="0" shadow="0">
            <root>
                <mxCell id="0"/>
                <mxCell id="1" value="Background" parent="0"/>
                <mxCell id="52" value="" style="rounded=0;whiteSpace=wrap;html=1;sketch=1;hachureGap=4;jiggle=2;curveFitting=1;fontFamily=Architects Daughter;fontSource=https%3A%2F%2Ffonts.googleapis.com%2Fcss%3Ffamily%3DArchitects%2BDaughter;fontSize=20;rotation=90;strokeColor=#000000;" vertex="1" parent="1">
                    <mxGeometry x="-558.43" y="-957.32" width="262.37" height="1263" as="geometry"/>
                </mxCell>
                <mxCell id="7" value="" style="aspect=fixed;html=1;points=[];align=center;image;fontSize=12;image=img/lib/azure2/integration/SQL_Data_Warehouses.svg;sketch=1;curveFitting=1;jiggle=2;" vertex="1" parent="1">
                    <mxGeometry x="88.41" y="-393.88" width="83.19" height="84.49" as="geometry"/>
                </mxCell>
                <mxCell id="8" value="" style="aspect=fixed;html=1;points=[];align=center;image;fontSize=12;image=img/lib/azure2/app_services/API_Management_Services.svg;sketch=1;curveFitting=1;jiggle=2;" vertex="1" parent="1">
                    <mxGeometry x="-1031" y="-399.5" width="100" height="92.31" as="geometry"/>
                </mxCell>
                <mxCell id="10" value="&lt;font color=&quot;#121212&quot; style=&quot;font-size: 18px;&quot;&gt;&lt;b&gt;JCDecaux API&lt;/b&gt;&lt;/font&gt;" style="text;html=1;align=center;verticalAlign=middle;resizable=0;points=[];autosize=1;strokeColor=none;fillColor=none;fontSize=18;sketch=1;curveFitting=1;jiggle=2;" vertex="1" parent="1">
                    <mxGeometry x="-1042.5" y="-308.99999999999994" width="139" height="34" as="geometry"/>
                </mxCell>
                <mxCell id="13" value="&lt;font style=&quot;font-size: 18px;&quot; color=&quot;#131111&quot;&gt;&lt;b&gt;MSSQL DW&lt;/b&gt;&lt;/font&gt;" style="text;html=1;align=center;verticalAlign=middle;resizable=0;points=[];autosize=1;strokeColor=none;fillColor=none;fontSize=14;sketch=1;curveFitting=1;jiggle=2;" vertex="1" parent="1">
                    <mxGeometry x="72" y="-309" width="117" height="34" as="geometry"/>
                </mxCell>
                <mxCell id="14" value="&lt;font style=&quot;font-size: 18px;&quot; color=&quot;#121212&quot;&gt;&lt;b&gt;Streamlit&amp;nbsp; real-time app&lt;/b&gt;&lt;/font&gt;" style="text;html=1;align=center;verticalAlign=middle;resizable=0;points=[];autosize=1;strokeColor=none;fillColor=none;fontSize=14;sketch=1;curveFitting=1;jiggle=2;" vertex="1" parent="1">
                    <mxGeometry x="-246.13" y="240.99999999999994" width="217" height="34" as="geometry"/>
                </mxCell>
                <mxCell id="15" value="" style="shape=image;verticalLabelPosition=bottom;labelBackgroundColor=default;verticalAlign=top;aspect=fixed;imageAspect=0;image=data:image/png,iVBORw0KGgoAAAANSUhEUgAAAiYAAAHaCAIAAAC7FBXuAACAAElEQVR42uy9h3Mbx57vOz3dkweRBHNSsiTb5+zu2Vt336m7/3/Vvfft2XccFCjmAIAg4uSZTq+mG6RpWwGgKFm0+mOWy2ZJAGYA9Ld/ob8/xDnXFAqFQqH49OjqFigUCoVCSY5CoVAolOQoFAqFQqEkR6FQKBRKchQKhUKhJEehUCgUCiU5CoVCoVCSo1AoFAqFkhyFQqFQKMlRKBQKhZIchUKhUCiU5CgUCoVCSY5CoVAoFEpyFAqFQqEkR6FQKBRKchQKhUKhUJKjUCgUCiU5CoVCoVAoyVEoFAqFkhyFQqFQKMlRKBQKhUJJjkKhUCiU5CgUCoVCoSRHoVAoFEpyFAqFQqEkR6FQKBQKJTkKhUKhUJKjUCgUCoWSHIVCoVAoyVEoFAqFkhyFQqFQKJTkKBQKhUJJjkKhUCgUSnIUCoVCoSRHoVAoFEpyFAqFQqFQkqNQKBQKJTkKhUKhUCjJUSgUCsWXB1K3QKFQfBVwAcUMFyzPaJ4ygjXGAIS6ZUPT1k0LIBNACIDaiyvJUSgUio9UHIJJGhbjfjG4yC7PcThmuIC2Yy+umgvLZnPZqDSg5QKkJEdJjkKhUNxObCiheUqSEAcjPL4s9abfKSUnGDNSIMvFS11rYcVcWDEay2Zt0ajUkevrhqUBoO7e3QI45+ouKBSKPzEkCbN+J20fJsevs4szEoxoEtEsYQRzxnQEkeVA2wWOZzSXnLWH7sYjb/OxWV8EOlSqo6IchUKhmAmGC5pGWb8Tn+zGJ7vJ8W7R7zIhNiL80bhWagqNAk3XNR2iYY/GIc9jwCgrMqO2AG0PAKCER0mOQqFQfACaRvHZfnz0MnzzQ9Y5oUlI84wRwmR25yrFw7imcQoY08JJTvd5HBSTgTd6Xn32N7tlasgASnKU5CgUCsW74ATTPC3jm6OX4d5PyckeHvdFE4HGflNO4NN/AOBakWGSsyIjecIpRa6vAWA2Wsj2VKCjJEehUCjeEd/kaXZ5Hh+/Cnf/mZzukTiUkQ3n2rvK16UaaRxTjeWZNh7k+v5Y10me1p7/O7QcoOlKdZTkKBQKxW+Ug3FKcTROzvbiw5dZ5wSPBzKy+WCzFJfxDqGAJdroknINQGTWW7phG35NNy11e5XkKBQKxQ3ZoJTmSTbohns/hgcvSDThomoze3Mu55wwjWcZH10W53ZUaWoA+NtPTSU5SnIUCoXiJqzIskE36xyX8c2wx3DBuabNcxhE6BPXCAEsLoY9cLKrm7ZZW4COpxsm0KG6yUpyFAqFQpOncJLj3fjoFQtGgGDOhM/NLaIlzinTijiiZwfAMO2ldeRVjGoTWo66yUpyFArF1w5njFOMg1HSPkjbRyQJy9/c9rg71zSmcQ3nPCB57zw529dd3zcsaNqqj0BJjkKh+Oolh2IcB8Wol12cZf0uy9KPUBztur0NcEajSXTwMzAMq75oVOrKleDWKPc6hULxJ4EVeTHu54MuGQ9YEjKCufaxjl5c44xzmiV57zxtH+b9Ng5HjBTqbivJUSgUXzU0T/PL8/zyXMsTXcrFR1tIcq5RzikuWByQfjc52086xzRN1N2+HSqxplAo/hRwLuwGunm/y/IM3J1hMecao4zxHE+Gydme7nhmbQG6vpqsoyRHoVB8pXrDOWN5Wox6+bBH8ozN2xn9oYcX3WshO9nXTcdZ3TFqTTVZ5xao+6VQKP4EisMYLkga42CIwzHFBbuLrNqvnkLTaJGT8SC/OMs6x1m/w4pM3XkV5SgUiq9PciilaUKjkEQhSRNOyN0qjnRnA5xrFNNwFB2+AIZpuBXkVtTNV5KjUCi+NskhJI1IErA00XDBObv7p7jK3pE4TM+PoFtxVnaQX4emBaBaSJXkKBSKrwZGME5CEgeAFrpwq2GfYNyxrOjwLKWDLvKr2cUJ8qtWcxk5aiFVkqNQKL6mKIfGAU0CjZBPd0RTptcYwRoleNhLzvaQ6yPbhbYjZripw6FKchQKxdcgOQTTMsoJNYo/qS0AvxIWGofx4SvdtKzFVaPW1CBSk0NnQXWsKRSKew+jhMQhSUJGySeXN9m9lqfFoJN1jvPL82IyYFj5EagoR6FQfCVRDiUkDUkSMUr4p34uMTwUEKKnMRn24pM9YLn+tglNW70RSnIUCsWfX3E4wTSNaRIxQjj/DM+nMcYYxiQYJ2f7uuNZjSXkVgBEQFepIyU5CoXiT6w3nDNKaBqTLBaSIw2gP/mzUqYVSUTPDnTbddcfGrUmcnygm+oteQ9KkBUKxT0XHEpYkdM0oVnKKJnL6Qbc+JnvecU0HYpzEoyK3nnWOcr6bZqn6h1RUY5CofjzwhjDBctSmiUszxmls4c4pdLcbDObc7ROGUxxDjil0Tg6eglMy/DryKuq1jUlOQqF4k8a5TDK8oyVepMyXHDGZgxyANB0iHTDArrOGeWUMoI1NucRUq5xxmgSZe1j6FadtQeGX4OWc2/8CERSUsxOZVr5I2+NDvTyR9P1Oz9vpCRHoVDcZ8mhlOYJzWKW55wSbbY6Tqk3AEDTMuoLAJm0KEULJHEZMM0T60z9CPKMDnuoe5J1TpBXsxdWkOvfD72hlOGc4rxUa0o4Z0ADoFRiE5o2MIw7P2+kJEehUNxrySEkjUkaaRQDzmbMqgFN04GGLNtcWIZ+jRNMJqO8e8LluE8+e5Az9SPglBSjy+RsD3k+cjxou+VK/eVk2EQ0wwjhpGAYM6kxJKd5RtMyQKQ444RwRgHQdWTopqXbDrRdaHvQ9pDj6ZYNoPHx/XhKchQKxT2GUUKSkCQhYAQCQErNmSmvpmsAWY61uGotb0LTLi47LApIFAC5QmvzqI5oxKJxEB+9Fn4Ea2a1qSHjyynqcEZpnpE0wuEEh0MyGYopD0MSTUgS0SxlhYxyeHlnINRNE9oO8mtWo2W31u21B9bCMnIrQLeU5CgUiq84yiGExiFNIo2SuVb4cnFFhlGp2601o9JElpOe7RXBUMtTRsjcrQSaRousGHTzbj3vnRuVhlFtQMv5I6IZxhnhhDBciJ8yoGF5SpKIRBMcjkgwwuEQByMcDEkc0iyhRV7+ecZKqQVlnKMjpBum4VVwfYGMLkk8weGOs7xp1JrQtD+mUqUkR6FQ3GfJoZjEIYlDTshcKzNlGgcQWq7hN6zmEtA0a2UThyM8uCg3/mwO0ZF+BBohME/I6DI53dMdzzfMzy85YrhCQbOExEF5LZMhlgFNMCLRmCQRSxOOM0AwI5jinBLCKOFUtg9MozvOKMdlXEQoAVlCJ4O0fWyvP2DP/t3ZevKRztlKchQKxT2GkWlijRE8xwFQADgAGkLQdpEnJq0x6mw8JEnAs4RmCeAMzNdHoHHGGcYkHCfn+9D1reYS8qqfyo+Ac3kCllPMMOZXAQ0tMprGtNSbMQnHUmxK1Qkn5S3KU05weWkiHhQvWTzSzfKV+D/GKWBMo0QrMpKE2mhIixwYFhc9F9C0gA5vV6lSkqNQKO51lENoGtE4LDfss8qNBgAAEALTgo4PbQ9AiLyKt/2UF3lx0dFGA43hcl2ev3utSCJ2fgRtz9l4aNQWPpEfgTwAS/O0lNtoUkrLZFgEA6ExYxIHLIl5kQGKOcG0KCjBlGBORT+0xoG4qmnR6/e1L351azWNUU1nTNdxMe4Hb/7JOTMbLcOv67cdTKckR6FQ3FO1ERt9UpAkImksfAc+3CI99RrQdYBM3bKh40HLAToEpmMtrJJwYi6vF+FYC4Y0T/mc3WtM4xoueDjKL9tZ5wj5NWd5SzfMj71MxjgljGBGCi5qMzTPaJbQJCLRWAQ0o6nqhGMSBSSNOc4BZbpeRiJMPoaQT/4OlXnr5Yg/Jw68Ms6zmPVx5teKQbdoLpnVJlSSo1Aovi7FEVY3JI1JlszuIQ1KxdF1y4K2U/5YMk2kIdszG0ve1hOWJdlRURQZn7X/7folCT8CRlk0jo5eAdM2/LrhVW/fLS1nX+PyGnEcTJvNJn0cDItgRMIJiUIZzWikoCK9RjG57gVg7Fo/5rySX19UKaWUIYB5Emb9c9RsQdu9XaVKSY5CobinmiNK5VPrgYxROpO7mjgtoyMELQc6ni76r+QZGoB0o1J31h/RNCKjS5wEoMCA0Xl718rXJfwIkFt11x4YlfqMfgSi2Wxanpk2mxU5E+UZEk1wVEYzJBgWkwGejHA4wUlE8xQQAnWZBZTRzPS0EJ/bwee9UqpxTinNknzYM0c9p7V+u4dSkqNQKO6p4ty0uslllWImxQFARwZ0fej4umECoF9HIcj23LUdliXJ2QEY9yGPtILN07x21QuXpWzYy678CKwZ/AhklpBmKUlCHI6LYEjG/SIYiJ7mMYkCliWAFByXP1T8cEI0Sln5F28+jDZPOnAeJeUazXM8GZDJkN92JJ2SHIVCcT8lh1KSpzSNWZ5rhN5cdz+gOiLKQa6PXL8MPm5kvYBhGtWm1Vqz13ZwOCm6J6wogDZHUopfZfy0NMajy/hsD3oVIW/uL35l02YzUZ6ZegGICk2W0DjA0eSqNiOjmRGJQ5ImGin08u/zabKLT/vNRIMZ/0z3nDNOiJwQoSRHoVB8RTBKp1Y3pJCWlDMug0DTdIiQ50O3ApDxazUCmg6NSr2y85wXeRCOcTTRuAZuFTcQ6Udg2fbSullb0CCcdiczKktQOJ7gYERKaRH9ZuEIhxPZbMZxrhFZmykoIZwSzn7lOfox5ZlbAK6NUC1HNlwoyVEoFF9VlINJGtI00ijRZSFj9gUUIuhWplHOb2MggBzfXtkmcZieH+JwTLOUEjxfYUSIAc2zfNBB59XkbF/TITRtDQCGc5qnNIloFOBoXAYx4rRmMRlhYT/Di0xjDGhcv4qZmCzgz+XD82nQkWH4deTXfyPVSnIUCsWfXnIIiyMq3NV0AOjMHc2cl5KDXF8Xo6PfsrAaltVokeVNe3WbRAEedLSYzOdHIJJdnBAtTYpee/LqH/mwh/yaxjkOBliUZ2gcsizhRQ4I5qQgZTSDOcFMPJOmafSPiGbec0XlizJMs9EyGy1oWkpyFArF1yQ5hNAkpEnIKZlnpIto5YIIOn6pOgi9LQaCELpmY9HdeETTiGeR8COg8/kRTMfHYRyO0pM9EgyRV+WM4ckQR2MSBzQTXgCMyaE0vz898+Ugsmq6hsqbZtYXzVrz1oeNlOQoFIr7GuWQZD53NVmSoVzjupAcx39P7zJyK97OU47zvHeujQca44BzbU7VYZyTPNOGFzQcQWRoGmcimqEYM+EFoIlOMO1LCmh+f9N0AHSEdNuFlZpRXzQqDYCU5CgUiq8JRrBwV4soJbPrANDEsEvDhI6HbPc9ZXBo2fbCCgnH1vIGDsZgMiBZwudsQOZyvEIasyy5SpRJ2wTt+tzMl6cyv75jQNNBeTeM5pLVWjOqDWi7AKr2AYVC8RXFOMJkLI1JEjGCmTab1Y1w5geGqds2sn1oue+JcoAOoeWY9Za7+YRlSYpznqd8/jhEnt7nfFqbuXr1X7bO/EZ0ADBc39186G48NPwauGq9U5KjUCi+Br1hnDGGc5rGNEsZobO3RwOo66YFLVe3Hd203mfzDHQAdeTXnfWHLI3w4ALHgY4LTum8tRbOtfskMb8WaR1BaNpGfcFdf2ivbEPHB+D23ti6+vQqFIr7pzhX1pYsTxml2mxWNxrQdAh1aXVj2ToyPrh6Isd1V7fdjUdoYRm4FR0ZOvhypn1+8ugGljGhBasNo7XurD10lzeh/VFDgJTkKBSKeyc5lBYZy5IyxMEFZ5TPtmfXpe+A45WSY1jaDENfADKNSsNcXHPWHljLG9B2hUkb+HLjEu1uXlx5kToob5dfczYeultP7MVV5FV1aHzMw6rEmkKhuIeSk6c0i1meMYw1xvhMjWTlKgqhgRxPHgKdJVqZ+hH4dU/4EYzFuDONc6B9ea1lUyW88tT5uIfSAdAh1AwLNZYq3/yL/+gvqNK46UenJEehUHwdkiMsjWkaa6QAwkVzjpUUIeRVkOPrM5+fF34EnruyxeIgOT/A4RhkCcOY8T/s/Ay4upxfQhoxBUj2RwiTN6oxdvtQqXwcAB3PXFxzt584G4/t1jq0Xe2jU4pKchQKxb2THELSiKYRoEQHsiVsVnRoGG4FvcN34J1/y7TM+qK1tCH8CCbksk0o4Uz7Q0RHRjMi76WJGWzi8oHOESpDNwg5Y1qWMn4bt8+p3ki37epC9em/Vh7/1W6tfUxjtJIchUJxj2GUkCQiSaQxclVWmdXqRoMQuj5yK/o8knPVML3objxmaZSkt/EjuH1AA7RfVY9EKAORAQ0DmpZumMCwgGkD22GMkSSkcagRzCm5zRQDUaqClmPUF5zNR/7OM2f9oeHXdWTcyeUoyVEoFPcuysEsCWkScUpnz/TIiS/Cd6Ci/85Deqbl0qt429/wIsu6p3zUv4UfwdxiI/VFRDPTIWxAY5ro83Z9w68ZtYZRbZq1BVRrIr9O4iDc/zE9O+RZzAtA5+zNBlNtA8iveQ+/qzz5i7324GPsbZTkKBSK+y85pIxyaDKH1Y1cUbkGNIh010Oud4s0ETRtu7lMVraslU0cTsC4fws/gtmjGT49FoOgYSLThIYFRECjmbYu9aZSQ5WGUS1VR7ecUlOl4zXFtxihI1vdoGkhr2qvbfsPnrtb35j1xdsNnFaSo1Ao/jRRDpFWN4ziWQ+BTtuHdc0wkeNDx5urljN9kCs/Am/7KcuzW/sRvCuaAUCDV4d+GNco1wAyoOMir2JWm0a9jGaMahNVy4DG8GvQdoFh6sjQDbMIx/Hx6+T4ddE9pZMhKfIZ2/hu3iIIgOn59vZj/9FfvJ1n7tLG3eqNkhyFQnEvJYeKWg4jhM90ClQuqTpASLcs6Li3HDIGAIDI8GvSj4D0OyQO9KLg85i8XY87k/+STmtA1wGEEBkimjF109KQyZGpO67hVVGlZlQaZq1Z6k2lUUY2bgU6ro5MMYCnIEmEg2F6fpCcHeBxn2Ypn6edTrYMQMNAjmstrfsPnns7z+zFVeRW7vy9U5KjUCjul+BwTjBNS8mhBM9iVjbt79J1YFrQcqDtQcu+df8VtF1vZYulcXK6l48HOgs4m2OYDhCGB7qu6SKLxrlW/mV9Wp5BlbpZa5r1BaO2INUF+TXk+LpplT/IBMjQkQGQAa7OsZI0is/34/2f44MXWfuIpgmdM8ABACAdIMc1WuvO9lP/8V+8jUfQ8T/Fu6ckR6FQfPkiwzmlpdIUGU3jrHeGJ0OaxYxQNpvVjT4domzrU6sb89ZGYeWK79fthRV77QGOAn5+yHAO3pZe+015hmtcNB9DvYxnTCjKMzKaAbYj2gGqRkW2AzRRtYGqjTLEcXzdsMDbjBI4ITRP834nOXoVHb3Ie+ckmjA+h2foNL5BCFqW2Vhyd556D547y5tGpaF9GocFJTkKheKLFxxhN4CjcTHq5Rdn8clu3u+wLGWUzLKfl4ksiCB0POR4umGCGaxu3hcUaDqa+hEUZDzEwVjTfutHIE/P6PKIi/gN5ZqmQ2AY0HahXzUrjTKaqYpmszKgqSPXh7arm6Ui6oYxDWh0BPS3n/mnRZoOOvHpm3Dvh+TkDYmDufTm2kUNmRaqNq31nerTf/N2niGvpn0yRx8lOQqF4otTGE4JwwUrclZkwtsmJfGkmAyKYS/vt/PeOQ7GjGA+ezZLAzo0oONBxweiBPJRLxIA6HjOsvAjONvH4ZilMSPFL8s9mHYbQGSU0YxpAcPUkAlMB7oudCtGpW5UG2a1edUOUCv1xnIANN5nbn19kxhluCjG/eRkNzp8kXVO8GTIGOPaXPGNVkZcyDCqDXvzsbfz3Fl7YDaWblPlUpKjUCjup+IwTjBJYxyMikm/GFzkox4eXxaTIQ4mLI00kjPhIc3nKVhcW93AOX0H3oVumGatSVrr9to2jQN6eU5jcj1GmgPAdQhMS3crqFKTtRlD9JsZlQbyqqX4yfyeaDkDyAAQAX3WOTRivvU47RyFr/4RH7wiwYhLo7l5bggUHdjA8Yyl9drz/+E9+NasLcz+GpTkKBSKexjTMMoIvoppUmmeRqIJngyKcb8Y9YpRv5gMSBSQNOaEQB1wTTp5zhmZIAO5FeT6+l1IjmyYNoQfAc/TnGKs61zXyzDFsIBpAXF6RjabGdWGUWsa1QVUqRteDdmubli3618QISDF0Sg534uPXqZnB8XwQgR8cxwPAtP+PYi8qrW67e08ky5quml96sEMSnIUCsUfpziM0jwjSYiDIR5f5oNuMbrMx30SjGgc8TzVSMFwToqCTmejTV08b3HkH0BUSo5XAejO1j3kVrytp0ADLEu56QDLQl7VqC+WAU2lAf2a4VWh5QhPGvOXfjMdzpI9e/sdE5am2WV78vK/4r2f8bjPKRZ2anyulgGg6wAZRmOp+uxv3qO/WAvLHxhYpyRHoVDct5BGFGkIlkUaVmQ0TXAc0HCMAxHTDEVMEwxJHPIi1xid2lZy4VUjFlV2K38ZxjUNIuj6IrFm3NUVQdOymkvlReVJ0VrTxdF9VFsowxq/jtxKqTcQaXcSOojEGUnCtHeWHL9OT97kl+c0SxmbW29KuXE8c3HF3f7G3X7qrG4Ln1P4GT4DSnIUCsXnkhyxQxeNZzJj1itGl8WoT8IJz1NeZBznDBe0yBkhnFHRSKDJ9uKPOeJ/5a4Gkesbrq/fXZQDdAhN226tIdfnpNDkaVNklmHNtDyja3eUqhKCg4tRP3j1X9Hej7jf5XnKKJldcG64REOj1pQu0c7ypnFH9S0lOQqF4o8TGEY5IYwULM/oNKaJSTTGwbAY9/H4Mh9eFpMBDsY0jTVKwNXcM8ZkEV6WJ+7EMxNwoGvIhI4Pbe8uO7IAABAi0Xv9yfU6T/JhLzndTY9f551jEk8oIfPVtETfNrRso7bgbD7ypEt0pXGHrp1KchQKxR+jONIJrQhGZTQzvIppgiGLAq0MaDJa5BQXrCgYJRrjN7fz2t3N3ARAbO0h0k1Ltz0x9wXdv5vJOQ5H4Zt/Rns/FJ0TGk4oLuZyGZhO2QEa8mveo+dlfLP+yGy0PqfeKMlRKBR3tCT+0niW0VzENEmIwxGeDItRD48u81EfT4Y4mrA81cV0s+nfu2os/hRIM08dQmBYuuXotvt5iuR3Cy1yHI7T88Pk+FV6uk+CIS1yNq/eAAANE3lVZ3XL3xEu0Y3Wnbt2KslRKBSfYQvOGS5wNCmCAR72chHT4EkfT0Y0icqYpsinMQ3BjNLrFoCPLNLMpjpAh1C3Heh6yHJ0w9Lum+SQOIyPXoX7P2Yne3h4QfJ8bhc1DQiX6Iq9+dB/9Bfvwbfu8tbn1xslOQqF4lYKIxzPGM7LgCZPaZ6SJCSTaZGmGF8Ww34Z4ojGM12bdpt96pjmrbt7qGsQIeg40JEhDgQauC/3muGCpHF6cRIdvogPXxXDHhGunbO37V27RBuOa7XW/J0rl2iv8odckZIchUIxp+AIxzMSSQeai2mdZjzAwYglESAFxzmZxjSEM3pdpvkMMc1v9EaXHskIAduFlgsgAiLHdF/uNs2SpHMUHbyI93/O2kckS9jtXKJtx1xcdba/8Z/8i7fxCLqVP+qKlOQoFIoPyYxw9LqyO0tomtB4UkyGeNIvRiKmGfVxMCZJxEkBxc6aiQM0/DPHNFdzaLTrfyGkmyaq1I3FFavR0k3rvugNp4TmadbvxEcv48MXWe8chxOu8Tld1ABEEJq22Vhyt596O8+dlU2j2vwDb4KSHIVC8QEYLnA4KkaX+WU7H3Tz4QUeD4SXZQKoiGnynGLMKWE3Mj5/QEyjabouK+Ua1wDTADAs4NfQ4qqz8dhe3YafvJX57uKbIsuGF8npm3D3/0uO35A4kNnJW7hEw0rDWtuuPvubt/0U+bU/VnSV5CgUinfssousjGmSqNSb4UUxuMgHnXzYK4aXOBzTNOEEQx1cNZ5NfQHY5wpobo6i0YTO6BBB00SmaE4zbc10oFexak1rad3ZfGIvrkHTvicxJb5yiX6ZtY/xZDCXS/RUgHUdGoZRbVibj92db521B2Zz+fNYDCjJUSgUc0Y2RV4ML7PeWdo+yC5O836XhGOtyDnOZEwznVXD/oiAZnqKXk6jmS6xHCDddoRt86K1sGw2lsxGS3qdIa8KXV8XXmf34M4TjKNx1j0JX/0jOnhJwvEtXKJ16RJtu0Zrrfb8370H35n1RQAh+KPzikpyFArF9Qb7l9aAfHiRdU/TznHWPcovO8VkyPJUNhd/vOPZR8c0AOg6RAiaFrRsXYQ1wPagVzWqjVJyGi2j0TJLvalDx9c/fkDOZ7r9wiU6HMdn+/Hhi6lLNC5u4RKtQx15VWtl091+5mw+tpfWoWndehCqkhyFQvEJljxGaZFlg2588HN8spu2j/HoUstTYVdTMCZDmj8spoFCNsrn1XUNmbrjoVrTbCxazWWzuWTWW6jaNMQoGt0w5Q8QUzXvT8sApVmaX7aDF/9vvP9TMexxjG/l2qkDwzSarerzf/cf/cVeWIWiO/xLuEYlOQqFQuOMcUpINMn67fRsPzr4KTk9yPpdmkSiWKPNO+H4ozXmqudM41q5Z4e6YSLLgqatmzawXN31kF8zagtmfdFsLBn1RbPWRHJSADLuZXzJOU2i9OI0Pn6dnl67RNO5eqJ/cYleWPamLtFbyKt8OR4/SnIUCoXGGaFZnPZOJz/97+ToFRlekHDM8rRcB2Vg8Vn0RoqMfiOmoVzTINQtG/lVo7ZgNVtlTNNYMmstWKkj14e2AwxLv56t+WXs5W+jOATn48vg9T+i/Z9wvzOvS7T2i0u0blQblW/+pfJEuER7tS/KU05JjkLxlauNWO7iMO0ex4cvksOXWfuIpTHFBWef/FTNVe1/+p+cc6DrOjKgaRpWGdBohgVsF1WqqNIw6tOYxqwtGpUGcv1bz9b80t4CmiX5qJeevElOXmftIxoH4hTtfC0DQNN0yzZrTWfzobfz3Fl/ZFabX1rHhJIcheKrVxxKinE/eCX2171zmkYEE1FC+NTuZ1e1B9FhxTWNMk2DSHdco1K3mi2zsWSIIo1RX0R+Ddqubtm6YYmBNAbQ0b0z6HyX5ONwHO39EO39WHROWDgmooTD5tQbADTDr7oPn/uP/+JuPLIaLd2wvrTLVZKjUHzdkiOOeeYXZ+nZft4+pklIy/WOM/5pYpqbjWeaKNMYBjQtZDm6aXFk6a5vVOtmtSkCmkVUF41nfh06LoDGn0Fjfg3FOQ7HWfswPnqVnu7hyZAIl+j59GbqEl2xV7f8B8/dradmowVt9wu8XiU5CsVXDcnipHOcnu/RwQVLAjJtkfoEeiMzP7LcIOpDVNOAYepexag2rAXRdSYaAYzaguFVdNPRTftG49kff6bkk9z/OIyPX0d7P2Sne8XgguQZnfP+X7tEWxsP/Uff+w++dVb+GJdoJTkKheL9MQ6nWZL1TtPuCY7GDBeM3mV880tYA6ZTm6FhipjG1k2bm7bu+Ua1YdYWzHrLbLSMesusNpBfg6YNdKj9GTXmml+5RB+9zgcXJI3pXPHNtUu07VqtVf/Bc+/Bc3txzfCqX+xVK8lRKL5eveFTyWmnF22cJWyuM4ezLYiyTiPcAXRg2dCrmbWmtbhsiTpNGdBUm8it6Kali8azMu6B6E+vN1OX6O5RdPAi2vspbR/RLJk3vrzhEr3ibD7xH//V23yC/jiXaCU5CoXivYpDMc2SIhgWwYgVBbu7foFSbyCECCHbMdwKdDxgObpbMap1o7ZglTHNIqq3jEpd6o1ImoGv5c5TQvMsG3Tiw1fR0cu8d07CCdPmGL8tmwXKqNGyzEbL3X7qiXyaUW184elHJTkKxVerOYzhgmYpTSKap5zSuzrtOY1vEIKubywsuxsP7aUNs75oVMRpTcf9JaBBxnSGzVejN9IlOh9epKd70Zt/Jse7JA7nNXSQ55agaep+w1zZrjz7m7f9zPDrX/6dVJKjUHy1UQ7jlGgEc/nD2V2m1eTJRIig7aJq01pctZY2rPpiGdN8eZ27n/eeUxyM4pPd8PBF2j7G4wFjdD6XaNHpBxBClYaz+aiMb9YeWM0lceTzS1duJTmKr+07z+VqqG5Fua1m4h9+t1pz8/EZJ4TjnOFCE94tX/stp5RmSdbvBK//Ee79TIIhl+ef5mwZKENDyzFbq7Vv/4f38Huz3gII3YtPtZKcewzGOBUkSUIIEW6HOkLIdd1qtWpZt9lLMsYIIWmaTiaTPM9/vRKB6dwnCE3TtG3bdV3TNHVdv91nnTFGKZXPlWXZ9e9t267Vao7jQAj1jziHIa8lz/MkSbIsy/McY0wI4ZwDUO4RDcNwHKdS8W3bMQwDznCOPc/zMAzTNMW4YIwBAGzbqdfrjuNIt5HfplAoLYoiSZIoioqi0DTNMAzP81zXtSwLoQ9/AQkhWZYlAozxu7UByHffcZxarTbTuw+ABnUNQgChpkPA6JVS3NHyyijHBYmC4rKja4ClMa73kGgWgLanWw40LYCM+zUZ+uNvCqeYpWE+uCiGPY0U2lyCM50MpOkQ6jJ8XN60W2vQsr8El2glOX9ysizrdDptQRiGmqaZplmpVNbW1p4+fXo7ySGExHHcbrdfvXrZ7/f5LxXNX/TGdctFdmlpeWNjo16vz7hY/x6pN51O5+XLl71e7zr+aLVa33777dramuM4HyM5hJAoigaDQbvdvri4GAz6QRBkWUYIhRDatl2v11ZWVh49eriyslqt1ma5ijiODw4O2u32eDzGuIAQrqysfP/99ysrq+ht28yiKEajUbvd3t/fH41GAGi1Wn17e2t1da3Vas0iOXme93q9drt9eno6mUzeIQpAvvu+76+trT179myWd7/UKMMURpmWbhiMEjFfjd9FeCOiSUq1LNEY0dKgaB9plgMrdWth2VpctZc2zcVVq9FCbkWD6KsKOrmcZ0epNrXsnO+Gi7NNGoQI2h70KtDxS725P85ySnLu66eWMRYEk729vTdv3pyfn4dhIBYdq1qtpmmytrbWbDbfuu/+4DIdBEG73X758uXZ2dl1JgRMFadcpuQ+enl5eTAYbGxsrK6uVqtVOP/0JymZb968+fHHHzudDmPlegeAvrW12Ww2q9WqYRizLMq/vzkyFhkOB91uV6pyr9cbDodRFGVZRinTdWDbdrVa3d7eQggaRhm0fXCZ5pxHUXR4ePjmze5wOCyKwrKsLMt2dh68K2VUFMVgMDg+Pn7x4sXFRVfTtJWVFcexa7U6pXTGu3RxcbG/v7+7uzsY9H/9jvxKclzXW1hYAADs7OzMtnoBHRrSMRO5FUoJo4TeXZjDpe0+JTxLNTDiQNcdF48ui1EPjy7N/mrRXEa1JvIqyPGh7eiGLY586n/mry4QDnKOa4jjRywJaZHPPQqCi5oQKViRM5wzgvUyVoRKchSfCsYYxrjfH/z0048//fTTeDyWiSnDQK7rIgT/+td/IYSg+dO7GBeTybjb7RwfHx8dHV1FHjdWqTLQ0REyqtXq8vLr58+f//3vf7cE88pDFEV7e3s//PDDq1evrqIcDgBgjD569Gh5edn3fdu2595Cch6G4Zs3b3Z3X7969ardbsdxJFJhmBDCrryrIIT9fr8oimq1Vq3WFhYWK5UPP3Icxycnx69fv55MJpRSz/NqtTrG5F3RWJ7n/X7/9PT06Oiw0+mIvQL95ptvxDRNPqPkdLvdw8PDg4ODfv/yd+/IL+9LpVKllK6srIj82yyKI3bLtmvWFsxak+QJzjN2d6NwZKwDpsagHACmZQlmlEWTvH1Sbs+rdbPZspfW7da61Vo364vIqwL9z9xcoEMIbM+oLdprOySaFJ0jTUxgm/2el9GjxnlRsGCEhz086uGFZaPSgKaSHMUnQ+6dz87OTk5Ozs/P0jSVtRwIYRTFg8FAVg50wZySQyaTYDgcjkbj8XjCORNlDwiADkC5glDRSss5H4k/AYC2urrq+/6MaaLrlBrGeDAY7O/v7+3tXVxcTCbj68V0NBoNh8MwDDBemldv0jQVUcXRjz/+9Pr1q4ODg8FgIG4O13VdFocAKF8AIThN0yAIhBqRD1a2OecY4yRJBoPB5eVlFEWypiVLaO8qaGGMx+Nxv98fjUaTyVjTQJpmOtRlDWzG93o0GvX7l6PRcDKZyEKUuBBwI+FZ/su2bV3XDcOY+U0XGwjbtVvreNRLJgMtCjRwx16e1+tp+RoxEenUpLwKiPShWwx7ZDLAo14xuDCbS0ZtEfnVX1d69D9VpQfoAOmGX3fXHtBoQicDEgWAMzBzZ4X8Y4wSkKckGKbdE1Rt6IYFTVtJjuJTEcfx0dHRwcH+YNCXenPlOsuKokjTLEniLEtvkZjCGIdhEIYhIYXc2ctVDKFyIaOUiloIZowXRT6ZjNvt9ps3b2Q93PO8udJ3FxcXh4eHp6cncRyJrNr0SyleQxiGkdTRueKb0Wj0ww///PHHH1+/ftVud+I4xhhzzqU8WJYlRAIURV4URZ4XEOqO47qu88FCDmPy3pbkecYYtW2rWq2KWv07eygIIeWVRKGMPICui3pb1ff9Gd8aSmkcx1E0vRBNjo+xzKsQFlyrR7VaXVpaWlhYkEI4I9D2nNUdEo7Ss0MGLqSAfYrOMs41JlrYgJA1QCnPEkBJloRF9zSy3Gmlp/XrSk+pOvBP9v1FjueuP2RJlJzuscGFxjCQG7qZ7yQobyJncZicvtEdz2yUgY7qWFN8iu9tGWdMJpODg/2Dg4PJZCJXIvlplYYZRZFHURzHseu6mjZfmkIukWEYEEJE3gXWatXNza1Go46QURTFeDweDkdS6vI8D4JJu91eXV19/Pjx7M+Spmm73T4+Pr64uAiCQEZOb3sNeK7IbzKZHB0d/fTTTy9evDg/PwvDEIBp5aler9dqtetMXZ7nURSNx+OFkqbreh+UHCm3SRKnaVoUmDEms4vVatU0zbd+2zkvJTyKSskhBEvxth3HFwoNPzQ4S4poURRxXL6dlBJYhkdWo9FYX1+vVqs3nrT8z0aj+ejRo/X1dceZw9IRmpbVXCLLm2ZrFYdjGge0yJn2SfqZ+fUU6+kgUk4oYXkq7XB028Xjy2LUK0aX1i+VniqUlR7T1u/tBLbfptdMy6wvmq01s7VWjAc0GNE8na+Kxst3iGRxdnGGKo1i66lZa0LT/qKmsSnJ+TMgFz6Rkto7PDyIovhmj6VYJ1hRyGUuajQa8z4+IWWEEQTlrlxkotDKyup//ud/Pn78xLbtNE3Pz893d1//13/9V5ZlnGt5XozHo9FoJDuAZySKIlFr2Q2CCaW/HUSFMZ6UBBiTuR5zf3//xx9/fPXq1enpSZpmAADTNFqt1vPnz8VavNFsNizLBqB82cPh8PT0BAB9dXXN87wPxhyyly+K4izLZLOyYaBKpZSct/5d8b5wEbFFMmLTIbQdW0SEnmXZH0x/ye2FUMc4TRNKqWma9Xr9yZMn/+t//efW1tavu0OAZVmVSsX3fbHVmDnTg0yjUjdb6+7mE5anxdk+JgWmn3wKKJemoprGpBABxrMEM8KioOiexY4HKzWj0bKW1uzWut3aMOstw68BE/4psmsQWo5ZW3DXHtA4yEnBi/mqaOVng3GeZWx4mffOi8t2UVuwGi2oJEdxt8j+pdPTk3a7MxgM8zw3DEMuMUmSyrBAyEa5zM21ZF+XKyJBuUTq0LbthYWFR48efffdd5ZlJUlSrVazLHv16tV1uinP86LIb2TGPiCZeZ5fXl4eHBycnBzHcSzSRI6u6/IYDaVERDlRGIYzlsHF+R4yGg13d3dfvXrV6XTCMAK6Xq1U1tbWHz9+9P33f3n48OHKykqtVjMMQ+rHZDJpNpuEkHq9LrvjZktwhUUhT+RoCBk1wTv+Lhe5OFzGm3FCCEUQuo7re55t27NUXK5TeTK0opQ5jlOv19fW1h4/fvzo0aPfhFY3ilVgnuVPB7plVpvu1hOOcy1LGME8S4mob/FPrjq/VHoYwYQSmiXlL5ChD2007JFxHw8vRaVn2bwa1AYtMavt/lZ6xFlO5FVtUdEhgwsQTgAn81V0uMYo1fKUTAZp5whV6sjxvswZOUpy7jFxHO/v779580Y06ZYLved5GxubAIDz87MgCOTWWCSmwnlrIXKJjERWTh5eESclq7VavVKpyCWyWdKQqaTrkzSzr3FFUYYX7Xb75OS40+mkaWpZ1uLiommaYnlN5MsWqhfKnOEHH5xSmiRJr9d7/fr13t6e1BuE0NLS8v/8n//zL3/5fmtre2FhwbIswzDko+m63mg0HMdhjJmmKY+FfjD+k7GjvKuca4bxPskRbwQpijyOpWBQwyhDHM/zZzw/K88tJUmpWFmWMUZN06jXa41G0/Pc37d0X78Rt8jpI7fib30DACDRhOQZGPU0FhGqfTa/APk8VOOyfQEQwnmqUZKnUdE7j0xbVHqWrMU1e2nDXFy1myuGX73XlR7oeO7qDouD6HiXDy400USgzaM6spQnakJvoOPbrXWjtqBsPf945GJKBWIfXcJkt+y0DMKvvrBAbhXRFbfYNn4iZGP0cDjc398/ODgU6qKZprWwsPD48WPOeRAEIs9GRZQTBEEwY5Rw8/GzLIviOEkTSglChlNiQwg551euBOMgmEyL4eVOH7kChGb65idJfHp6enh4eHl5Gccx59x13e3tbc/zBoNBv99P00xISByGkWhVIB/0ICiKfDAYdDqdbrczHA4IIZZpNReaOzs7z54/++abp1JdfvuFh3Cu07IYywpTSCm5GbEFwaTT6URR9NZ47uzsTPg4lIKBEPJ9v1Lxr5VvFim9SuURTZMfVy3Ps8vLPkLGzWuR54ps277FSaZSgw3TrDbZ8hZ+8K2m8fwEaf0uTxMN43kdJz866LkKETnXKOF5pgHANA0Me3h8iYeXeHRpDbp4YRlVF5BXRa4/DXoM835VenRkmtWGubBqiYoOGF9SGs9V0ZECRbJU63VQdSEf9Yz6ArQcHRlKcv7gxVq0J+VJksiOI2l/UhSF1B7ZCqzrpdJY1tTKRW5Ibds2TfN2p+vvFllL6PV6IiV1kiSJYRiVSnVtbf27774lhBwdHfZ6F5QyjEkgmCvKkXcpSctNdVau+8yydJkCwhiLuId0u90XL168fr0rTp6W3wzLMhuNZqPRNAxzFu0PgnB39/Xu7msZkGmaVq1Wnz17VqvVdnffZFkmykLlOxXHUZIkeZ7L3t/3PGyaZu125/z8PIpKPeCc+b738OHDZ8+ebW1uNZvND0YwM97/IAiDIJSNFYzxJEna7bZhoG63a1n27/98lmUnJyf9fl+Ga6L2UzKjKlxVjyKRyqNCXHEYhuJJjdPT0+v76rru4mKr1WotLS3dTnKE8zM0awvVp/9meJWJDpkG2GVbo2Q60eDz+qP9rtKj6UVGx4M8ifDleWJ7ulc1Gov24prVWrOWNqzmklFpfLGjMN+V0tRNy6g13I1HNI3SIuVZwm5zRifnwbDod7LeGao1nYVVJTmfFXnmI89z2cyaZbl0IRMp9UiojtSbHGMiJIfK7I2QnGkrreM4nudVKtVKxfc8XzYBiy2/I7eonz/ukV1eJycn3W53MhkTQqvV6tra2sOHD7e3d+I4qlQqpmlkGZMtALIWMkti6mYaR2aB8qKgjBJS/qbXu/z55597vZ44fNp/82b3+Pg4jmNxOqTctq+urq6srHzwzKZ0hOv1eoeHR2dnZ0mSyMTd0tLS9vZOtVodDke93gVCUNaHhKlY+WI+2OotLWEuLnppmsqSkuu6W5ubOzvbzWZz3sOk73n9V+3O5PodEYeikrfGFjLKGQ5HokWCyohQlPfnkJyrutq0PVqe0QEARFF087qazebDh49M07xFw8hN1dEt22oua1yjRa4bFrTdvN/FcUDzlItx/J8t4nlbpYcQSlmelv8LETAtPOrh8YAkYfnKTQs5vnavJEceizLcqrO2Q+MJ7p3jcAQwAZTyeRKSjFFQZCQYpu1DVKkbbgU53hdb4voTSo7sdxoMBhcXF71er9+/HA6H4/EkisI4Tooiv8qqCasjPt3AXSXBdV2f5taEY5VXq9UWFhaXl5fX19dXV9dube7y8ciz+ru7u0JvCOfc973Hjx8/e/ZsZWX58lL3PM+yrKLAGE+XquuTHDOmcYQoR3mWEYwZZ1mWXV5epmnW6XQsyySEZlkaBGGSxHme6zq0LKteb+zsbG9ubn6wS0oKw+np6dnZ6eXlZVEUUm+kZY7ruvV6XbYOi3cHp2kmOrXSDx73yfN8IMhz2TUHXNdZFdyV3lwJgKyQYbnhT9P07Oys1+tBqP/eVFEW1WT9X7wLpUJXKpVqtTJj1HXVLP5LTU5eaRiGnU5bF0kk+bFdW1vzfX95eWmuuPata6AGoVkvYx2zsWQ0WvHx6+TkDRhdarhgGmVcY5894rlZ6ZHHz3SNGjjn0Tgvcs45rNRRbcFqLE1PrNwroO26K9ssDuOjV2BwobOEs9v0qNM0Sk73oOs7y5u8sQi0L3SsKvrTyIzcocvDFpeXvV7v8vLyst/vDwb98XgcRdMszezfSYSgZdm+79XrjcXFxU6ns7a2tr6+3motNRqNSqXied5cZ+4+Jm6TdgMHBwfHx0dRFEkjZBnliAjD0XVompZpWrqeiIRMIv3EZre9uZHGwVKQCSdJkuZ5Ph6XO2uh1FQalCGEarXa6urqkyffbGxsNBqN998KaRVzfHws7QDSNJWO0aurq2tra57nGQZyHNu2LV3XZYEN40IKZ71en+WVx7Es7It0hWnVarVZ+tBmW+/4zV6+a6sC+bxJkrzjUM6vEJ+ouRNrNyVHliSzLC+KQirNdQ2yUqlwzhFCV5YEH7fxthxo2joyNR3qloNsr+id0XCEoxCnsVbkos4yte7knzHVJk6Qymkx4oV5Fd1vWq1Vs7aAHP/6SIpcDTjnpmlKz9kvuaIOkIH8mtFctpY28vFA63c4wfM63XFNo3lWDC7yi9NieFHeELeiG6aSnE+0A+LSkFjWpc/OTrvdrrQdEwk0TAgWOTTCGJt993B10r5cvi8vLw8PD6vV6uLi4sbG5jfffPPgwYOtra0Z68B3EbeNu93O0dHh+fl5kqQQQs/z6vX64uJipVKRFv1CI8slW3zlZC1EhiMz2d7IXXwURdflcTlRSvZYyMPRMiZEyPB9f2Nj829/+9v333+/uromBw28d8lmQTDZ3X395s2uNL0GALiuu7GxsbKyIg7K5MJ73xCNcDdfzwf67uRCnJcUlEp7HiSyo7YQYP1OPmDX52Ou50RcxcTvbG0Qr+tXnzfZPjB7Yu3KheFXbSAyCr/yHZiGsEJi69VqDd1VEh8A6Hju2o5ZbTir20XvPD3fTzvHvHumhSON4PLr8XkjnumkUfFtg5YNG0v2+o7/4Dt77YG1sGL4dWjZcl8vXekopXJreAv3v88qOeWbiYxKzdl4TJIoSUKahHO5DnGuMXHqWIsCPOil3RNUqTvLW0py7n7vn+d5HMeTyfji4uL4+ERw3O12h8NhkiS/F5i5vh3SBVc+i/yNNNcS9l/heDwKgmB9fb3ZbIp0ENQ/mQNumiZnZ2dHR0e9Xi8MQ3HuHXHOk6T8vWxYurjo9vt9YZNMr2a0TAszsgl4BsnB13tqqaOGUUqL6J6YeoiJXr7yl4uLizs7D/7617/u7OzUarX3P748gd/tdo+Pj9vttgxxZNwwmUzOzs7EsRV8fn4ukmP57/b4eJYo5HrOmPzv647Ej7//1+dj5P1kjBmG6bpOpVJtNpvvOuqfJEm/3w/DQL4pskHO933Pc+eMciLZsA4h9P2KdDu9qibKKEfb3NxaX19/9wmh26AjQ0cGtBzk15Bfg66Pqk1Ub+FRj4UTmoQ4iUmRMUK4qJ99ujLPdChZqbUQ2g7yaubCkr22464/dLee2osr0PE0HWFC0slkPJarwbFhGM+fP3dd94ufCweEwPv26jaNxkXnWA9GrCgAo3yO1jVR0cEMh6P0/LAMm8Rcoi9wFtE9lhxZSj09PX358sX+/v7p6elwOJQuLHmeS2f4j/y0/eavF0URBIHMcZ2cHB8eHj179uxf/uWv6+sbHznZ5f2EYbS7++b1690gCNiVEqZpenp6GseJ6zrCLDIdjYZX3U1X7c5iVy5rPDPsqclNyQFAEyd+ZNLMkP3itu1Uq9VWq7W2tra0tLywsOD7/geXOdH40Dk6Ou50OuPxuCgKeWPH4/EPP/x4cHBgGAalLE3TSFRLZGltRg+Cq752XRRUgGzmzos8y9K8yDzm3YnkZFkmc2hZNj0LJRo3Hn333XetVutt1s5au935xz/+IXzwBkWRG4Zh27bneY7jztIAKS9EnJGKRMM6chxnZ2f773//++bmlrzY63sghyTV6/U7z/TqEAHb1eGK4dWc1R0/nBTDi+ziJOueaN1TPu6DNOYiCCtXvU+gOmI8DIA60BHSDMtoLnk7z9ytJ+7GY2thBTmebtoAQkJokiTn5+cvXrzY29s7OztttZZkPe9+VHQsx2mtk2gCmy/BsKfzUCtuU9KhSRSf7okI9SFvLGkQAk1JzkcjDkMEvV7v5OREzBF5fXp62u/3kyS5RTQz19KDBWEYXi1A5Z43iuKNjfV6vXHn7dSy0Vak9Q5OTk7kQZbr9SgIAtk5Jg6QsZuHjcRLndZCZuxiulk50HUAIWo0Gs+ePdvY2JBxkjz8UalUGo1Gq9Xy/coHh7PJgEPOmNnf3x8Ohzenfwobgt5goMsDcNLY/9pv7a1ppbd/XaFuC+T5ISlyvZJLz/XfGoXc/IR8MDUqDiSJ3nFhaco5t22r1Wrt7Ow8e/ZsbW3trZfuOO7+/r6or+gixLFddzoMdHarG9ljKY6RokrFX15e/uabp0+ePBbG3r+8bDne9JOkecU5eTEQzOV+zai1jNoCqtSN2oLRaBWDCzwekGhC05jmKS9yjRK5xvGP/hbKclUpOeXleUa1Dhsta2XL235qrz1wWuvIrciNYByEw+FQjnh4+fKFPAtlWRZj7Asv5PyqouNVrEbLXt7Ek2HePS5v5nwbZFHRKXJtdJlftotBx6gvGH7tS3OYRvexciOnobx8+fKnn346PT0NgiBJ4uu986d+9uude7fbzbJsOBx2Ou3/+I//ePz4cb3euFvJkdNW5JCCi4vuzfVaVjGu2ynFes3fZo45qweBtJmRp+vlErm8vPJv//Zvz549l+vm1aQcZBiGaVqzdCXIpXM8Hr9+/frNmzdhGN2sSchJ8PLECf8lJcbnff0IGaKdfVoj4ZzHUXx4eNhsNpdaS7/vPuBXFarrIOn9FzLt5YsjafcAgGYYptTdRqNRq9XeKrSWZVFK8jxnbOrjIEMcy7Jmd62+khwixL7abDYbjUa93viNUsqc56fu3RfOYDaAi8j17eUNP/mumPSz3nnaPc06R3m/S4ORxigEoFz7Pu4sjwxuACiXUd2yjdaqu/nIe/CdvbItx+ro4iDUVVvK0e7um59//vnk5HgwGGBcCIF3HceefUjEHyw54lyU4de8rcc0jehkQMLJnIqjycOzep7QST/pHOl+TUemkpzbr/WMsSRJhsPh8fHRTz/99OrV6729vcGgf4dZ+7niD2mML89I2rZNCHn48FGr1brDWCdJkpOTEzGbq4zhxHFCQybKxAwbcGOR4rKJQL6quZbsXzsWR8KxGDrOdE7zxsbGrf0XpPN0u90+Ozu7uLjI8+x6iMDVWRZ+42WUf17mBmUYd+MgJHvPempZZczRai0dHx/L38juONFh0SAEu64nHXpk8CdTjgihZrMpE4Pvv7ob52OmvWqGgaQ7teu6v89lyWhYtp8IyWGGYXqe5/u+1JtZrG7EyaSp1Y041qPLmBLjQn4Sbo5qFUeYP32RXCpbuR+xkV/ldWrUF1GladQWzPpCftnOhxc0GPMsplnCs5RhrAN+fZaHz/okZWyjl7Eh0m0H+TWrteKuP3Q3HzsbT6zmMrRspoGi/OpNxuPR+fn5G8He3l6v15OjWj3PdxxXfhPvzZRrAKDt2ctbJBinp/v6ZMhxwSiZq6LDmUzITtL2IfSrVqNl+NUvyonu3kgO4wwT3Lvs/fd///eLn39+8+ZNt9sVju705tb4M6uglJzT01O5tmoaMAyj0bibWEfEc8Hu7u51l5emaY7jyJ4F27ZkE4FcCjAmSZIOh8Pz8zMpORhj6UHwwcSUdAOTfv6yI0tIjuu67kfmapIkOT09PTg46PV6sonZNK16vdFsNhcXF0TKi99YqbXJZHJ6ejIajeSSLZ2bZWXuPWuHvCcXF90XL36++bzys3F52dvc3KzX6xAiOeCg379st9u+7//tb/++tbX1wdaP6/iPUiJnyUCIhIK8feaNFJtYCLh0V3OcX/78XFY3aZpJxZUfcmHq2ruakXMdpUHP8xYXFz3P+2zmTHI6LHIrOjLN+qK38RiH42LQyXpnWfc4uzingwuNRZDL42+z9rYBICo3pcAiYLnm4qr38Lm39cRZe2A1lqDj6YYFdEhEVfX09PTncinYPT4+Fh+wWN4rXddt23YcW0bn9yiFAy3bXljBwchYWIajSy0cA0bnMrrj4ugSTiJ+dqC7vr/5DW8uf1FOdOi+xDdBGHS73d3d3R/++cPu7m6327lehf/AjhS5n5U9BWJGVg0A8OTJk8XFxY/8uMsBlKL35uj8/DxNUxkfLC8vf/fddxsbG1f5GXntQMYHx8cnk8lE+n2JhTKYZerMjTROIizOmGla0u9Hdi3fYhWbvmtBcCAYj0dS+SoVX9glbC8tLfm+dy05cgRDp9PBuCiKQliZ3XBDeK/tjWVZ8kjp2traaDQKw7AocnFesqPr+mQy6Xa71WpV16HsnZNDNldX154//3bG9+I3vXyybe89klMKhph+XeCCiw5DMVXAn7GjjFIiQpxInly+fg3n5+cQwpOTmsxDymZF0zRXVlZt25prZsHHi44GgI50HRnI9TnnZn3RqDVRbcGoNY3Gktnv4PGAJxFNI5wmHzzNI4MbDQi3N9c3qk20sGSt7vg7z+zVbau5jJzyWfI8D8NRv98/Pz8/ODh49erl8fGx9Ou7GYkJnxD3y3fyf0vq0vas+qKzuk2CUVbk0m1hrvwaE+kFbTLEl538sl3GoLWFL8cK6B68JXJBvOhe/J///X9++unHw8PDfv8yTbMvpPdRlivkUYD/+3//T5qmrutIi7aPkRz5gMfHJ2dn59Kky7KsRqPx8OHD//iP/+fJk8e/2c/meRFFoef5h4dlSMG51EI5+YZ8cE+dppkoV8TSVXNeA8p3vWvD4VBmPKQKQgibzea//uu/fv/994uLi6LX7pesmqZpBwcHw+FAnqmSVnjSqCjLsvfY3pim2Ww2xXmpp0mSHBwcjEaFpk2byPv9/uvXr6/LPNf+RrVaTZxo+XCuX4q3iBevj5qavl9q8lvDWUJIkiRxFBd5TgkVtZ/3TdZ5fypPvmw5tELOoLvWLVlV8jzv+fNv19fXl5aW/8BShG5YZm0Rub6ztEHiST4eFP121j1Ju6esd66FY40U7zrNA4AGp+28ADqeubLlbT12H3xrLW+Z1YY41WjJL1oQBPv7e69f77548eL09ESe8s7z/KbLBoRQOM06X4I14vzBo4a8qrv5hCYRHvaKYDhvRUcuSVqRsWCUnh9ArwpNW0nOrKu5bBZot9uiWeBHYdo/SJL0i+q1l3kPuQuWgQhCxvb2dr1ev0WIIK9axgd7e3vD4fSoiuM4m5ubjx8//v/Z+w7uNo4sa3RO6EaOJAFmiqIkj8ME7+//zp6xZ2wF5gSARM65c/gO6hEwLVEU2QApaI06Xq/MEYFGobvuC/fdm06nl5aWP43EQfQT3MZMtBDluAeFqXtKLuMS1kDTVCSL+WgByjshs16vI3mbAmIJ68iAWUwkkuvra+vr6zCj99FvDYfDQCDo9XpbrbbjyIDlwA+8J4SH/gJYsUFOkM+TvV4fOltjjWfnxr4Xw8AnlCBIgLH7vyDQQeh2QSbVgHlVJPwqfG4AdtJFGwsOYcg/dLSfD8xykDDrjYTo7czpI6UDNE7LBQJBpGdqfd2mxaTN4/F6KClI+cO6P4T+EKGDMaODpnmGfV0eWJpqWzfTPNjkdymKYAVC9DORpLCywS9vcMubtD+MU7TteBRU9UWuenk0UHwODU4Qhp+cBhOVBwQ5wjxPgN63kSw/gu1eS74+07tNDLbrwc0wSCQdyzIHPbmUI7w+JpygRD+Gz4UEzrxDjmma9Xr9v//974cP78HqX9N0pI02j5cKAyj//e9/DMNAqqCii+4ltIja7TbSbD5BbsqjJMDr9W6i5fV67wyPKIpiGHD3J4EzPRiMgnNVVUzTvCdfgZj61hHpIUkaOGAU5fIOmfj6wHSn49g8LySTyXQ6FY3GPhfvQ3zKcTwgwdhVc7S+KHsjSdLLly9R/4lkWXZyJIF0AiJA3QxOglaQz+cDvvI9X9CEWNFFmGMYwOWjOdTpAlr2nYW4Xq+HQhALpVCPhnCYSYJ3ROpt9t2lLQRmKB8VH+jB80yn5ujUF3GKpaUQt7RhDjp6q6ZWr9XqtVO69rTrmCo7pgFSAhhqgeKCSEeXhbWX/MomF0/R/jDB8jhFYxiua2q73b66ukJB50WhkG82m0CTuZM3hO4isPr+Jq10RvliIMJGl+lIQu80rE7DUh7Z0XEcy/boytAq5QhBFFZfWMEYQTPzYFM915CjKHK1Wjs7Oz06Ory8vGg2W1BPm89p4nFfp5vL5VBDOwlMqsdW2CcUXnAAoygSdUGwVCq1s7PzOQFNFH2TkuRLp1c1TVdVDWlMUcCg+yLDAsdxr9cLvXSPxxOLxVOpVDgcoWnG9W6AvBvS1hy9iN/vX1tb29zcukeQjWXZeDy+vr5OEESn0/Z4PEtLS6LofQhy0zQdCoXgvAb3zGq1itgHKgqEbajyI36zf2lpeWNjA8b4v/hZgBKdTC6JomTbFsfxa2urfr//c86eUHnz+Xyrq6tQPIQ+UyDgp+kHZTnQjQgGg6urq5Ik3dmvBLqaKIqIVTi6K+aHmoVhOEbSOEl7OIES/ZY/TPlCpOQf/dsX1ptVs9uyhj1Hkz22jVMU4fVT4QSbWOXSO1w8xfhCOMM5jqOoaq/Xq9Vr+Xw+c3l5fHycz+fb7TYIWHyuj0sQNx5O3yjkjG5TnKN8QS6xavY7qqpYquJxHie75ng8lqF7+h2jWdVqRRrJnhLcAnLuPXk7nc7+/od3795lMpeNxpzmNx9ds65r7Xbr+vrq/fv3GIYzjJumLlKJ9m5vbwcCARhbwXEiHA7v7OxEo7E7pQQgy4lEIj/++OPS0jJQdwgCj0Qifn/g/voeRVGSJKXTaQzDut2Ox4P5fL5UKhWPxz+n5vLF6wcA2NzcjMViqDDoiKK0tJSMxxPoDL17eb3ejY0NQRBSqRQa7HV8Pt/KSuohJSn4gD6fb3d3N5FIvHjxol6v12r1TqejKDKab8U5jgOhvEQiGY/HHzgkK0nS7u5uIBDQNA3DMISLsVAo9DkgBJ/Tra0tURRRWc8JBoObm5uhUOiBEA6CpxiGxWKxsRD13R+ZZdlgMBiPx+/Z1a98gOIEQbOYH03zREZ5jNFtavWiViuo9aKj65ToYyJLQvoFHV2mvD5ES6MhwUW9wLMTtArFQq/bk2X5ixN4JEmgfir3QNvAedw0DCN5kV/ZspWhXis7nabH42Cex9XWCNvGTMPud5TiJSmIBCcQnLCAnLsX6Avkcrmjo6OzszNkFqnMbX5ze0H7odFonJ2dwtEDMicPF7+CYFwUxdXV1VgsemNOjxNerxdypjuPOfihKIpra+uRSNQ0TZhlEQReksT7O+RAFojH4zzPQ9+IZVm/3/9whtWdx24kEuE4bjLLwrJsIBCA2ZR7fisajfI8H41GdV2Hnzy8JAV0ANTb9waDwVgs3mq1er0eYiqPIIdhWFEUfT7fZCLnITDG83wqlQoGg9Avgde/J0OiKMrv95MkGQgEgKfHcVwoFEIMQPLhuwc53/1jVRRF8Tzv9XpnaNMw++MT2jw0SwoS7Q+b/jAlBWh/mA7FHMMgBYkKxvjEKuULYQRp2fZQVnq9XqPRuL6+Pj09ubi4yOay7Vbbsi3H/vIpgOPAWHsS+gCw5qBBCDfzzW0wJuPd3DZTZ5wEw7GRpNlrUcGI3ml6VNk2jUfRc5Geh2XK445OdJkS/RhBfmq0sYAcz3A4zGQyh4eHp6enhUJBVdVvAm8mU/RI4iVHklQ0GmNZdmVl5dMZ9XueUEg7WJYFa6/xFAQB84z3/CIcVcFgEJzKJiTa+5vkJEnCeKnP54NfxHEcWuvuSHcQfUej0WAwOPnaHvKaIO/PcVwgEIBfhIIhHFmPeFxRT4imab/fP+kwY5gHjF9BQOGBIzJAN4hGo6FQ6PYl3QNX8PUJgjCBWyi1PfAdoUgIkP/FGeex1ir5TbTKwY8HdPVpf4Rf2fY4NkaQOM0QDI9OQwzJINWz2ez+/v7l5WW5XAKVXtMyH6iigwSQngRyJqy5TCaDYdj6+jqUiLEb6rft2Dai381A2QyswZlwgokuGZ2m2aqasmk9RnYNdXQcR5at8jUhSMLaLhOMESyPkQvI+XOWoOt6rVY7OTk5Pj6uVCqDweDbQJtbqGMYpmn2K5XK+fmZKIp+v18UxQey1+CvQbT+6MgI9QDcZPGzPrPcXQn4LEwvhzx5HXeFwTsB7FHvPqW8JkrImIeIsX6DFSMMQ9M8Hu5jFgzMY1UqlYuL87Ozs5OTk2Kx1Ot1JxzoB706ohRyHAcmUrO9ekVRUO51dXx8wrJsKBRCI8ajd3FMw5T7Wrtm6xrBsATNYjSD0yxO0ThJYwSBPfJiUEGSoMUgn1iz+h1ZGVjK8LHtnFH8aOqeYc9s1bRqgZJCXCT5dW2q5w5yDMPodDr5fH5/f//09HQy7zmzIOuTQODJni3PYDA4P7/wesW1tbVIJPI85jqLtVjf6BoOh6iWfvjbb//N5XL9fl9R1AmL8uE1PJqmWY59iJbdY1Ocbrezv79/dHR4fn4ejUZ3d3eXlpZwHMcc2zY0tV7qHPxb79Rpr4+SApQ/QvnDlBQkvRLJCh7MDZ+Q4L38yoal9NVK3m7VJ8Z8jyi6OA5uW/agK+cvCM5LCRLIoS4g5+ZLHQwGuVzu/PwczXO0btuFTQkzH0kf2uMFg4GzxR6SJFmWRT2DgCSJNL0Am8VarC/mEHKhkD8/P89ms+Vyeazy4zwuv6QohmU4lnuIYvfDl6qqnU7n8vLy8PDg6OioUqlgGDYY9HVdJ0kSR0Oslq6o9ZJayhosT3lFUgqRUpCUAqTXT3olghVGSQ/NECj1wSgaJ8gvzsoQNMuE4kZshQpFyU7Tkge2oduP6+h4HNs2lYFSviK9fi65SktBjKSwryQFRM4V3ti23el0Dg4O9vf32+0WDIq7BoPbYAPlEYahoZcAIpio/GVA92KGqANlsWAwsL6+/uOPP+zu7obDkYfX8Rdrsf6qkKOWSuVSqYT8FR+NNyAKzjAMh5wsZqsh3e/3T09P379/j/Sqr5HdsC7LiqIoDMOQNIVTFE5Qjm1Z8sAz6FgNj0NQHor2UAzOCaTkp8QA7Q9RvjDtj1BSkBL9BCcQFIPdm4phJEV5/XQwxsZWzG7bqBdNy3BcdHQU2a4VSa/faNWMQJQSRAxn/uqQA5XcUqmUyWSQ+dhwGn3osUkJ+DAKoLnE8xyIyyI5FkPTVFlWZHkog2avLD8qi/8c2EiSFIvF1tbWtre3X77cW1lZuWXjuFiLtVh3n4xo5LbT7XZ13XAXa8Ijz7IsBJczeeJAry+Xyx0c7B8dHZZKJaj2g96HLMuoTct4CBKjKJxiPBhuq4qlqxbSM3VwHKMYkveSXon2BRHYjFIfSgwQXonkBILlcZrBKRb9m8bJSeqDiEM4juE0JQb45Jo16DrDriUPMMfyPMowFM17e+SB2a4r1WtCCuJkenSpf3HIURQFpPpKpWK73ZrG/2Zc0mVCodDq6urKykoikQgGQ4hLyuA44Ti2punD4bDT6dRq1evr60KhUCwWDcOA2/Sxbz25ub1e7/r6+u7u7nfffYdMmv08zy9SnMVarC9WOJAh4R+Wvi4WQeAIcjiKmpltwWAwzGSyHz58ePv2XTabAZtEDMMmOnihUAhlWAROMaQgErzXVgcWyi1sx+NxLMxRTdt01KHTbeok5RAURrE4x5NeiZICyPohTPvDlD9MiX6S9xI0+1HBjeS9/PKmpQzVYs7Gah7MflRRxnE8DuZgjm3LPejoML4Q5fX9pSEHrJZyuVw2mwHvSNd4A30Uv98fjydWVlbW1taWl5ej0ajf7+c4DtJtGDRTFKXf7zcajRhagUAQMTKbw6EMDpsPz6hA1ikQCKRSqZcvd3d2Xmxvb4fDYXTf44szZbEW6/7H3zRNHezDkcOQW8ghJrYF09cVJtYkBwf7Bwf7hUK+0+mM9ZNAJqo/kV5FutrUKJvhvXqXdByPPfrHASNCj207um5jMvJhcZwRPlE4y1NeiRL9kP2QqNpGeX04LxIMh9MszrAExWD0KHOi/WEmukxHk1qvZfW7Hk2xH0lfG22yMlQqeUL08yublC+IUzSGE39FyIEYp9/vI5377FiH0WV+A4rLGxubP/3009bWViQSAQVJGO+YlHdpmgZb5XA4jIpg9Vwue3x88u7d20KhoGnqA1N7YBjDuPibN292d3c3N7fi8TiSGV4kN4u1WF9eIBalqhqY2rnOcnCcYFmOZbmZpDhQdzk+Pv7tt9/Oz897vd7kQMAwj2X9oUx480OCJDgvwXvx0YP/R4Yx+oAIHWzn5vDHLAs5eNqmrjq9tlkrYgRlExTGcpRXQj7fQZT6RCgkjUoiEGKCUW5p3ZT76vWFY6iO/VjVNcdRFatZoSS/1qyM8iox8PwK03MBOSCI2Ww2S6VSrVZVVc11jEPTdCQS2d7e3tvbe/XqVSqVumfyH7wUBUGAuX1BEGiasW2LZZlCodjtdr+Y61AUBUP1iURiY2Pj9evXGxsb8XjiTuXNxVqsxfoc5Oi6rqIFYp2PjzU9INjK8zMYAh1L9BYPDw8ODvavrq6azeZHBzwIzv6R5QDk8OIoy/lk8MUZg80fSYc9+tAeU7cRNt5Yd49Ai6N4kRL9ui9IQfYjBijRTwiSrcqOY+M0ixgHf9j0PSzJQftsmR5laHSaSvmKFAP41zA1mAvIAWOVWq3abDaQRLzpoqo2GdpPpVI///w/e3t74JP4wJsPxEVomhJFbyAQMM3/VRT1/lwHMqpwOLy5ufnDDz9sbW3F4wnQJ14cIou1WA9fIBMFXnxA4XF1AoC6Gi8I/JRzzaqq1mrVs7OzX3/99fT0tN1uf3RJMO7dRzZKf0AOSRKCl+BFjCCdLwGAg2putseDIXuLcfZj2opsGroj981mRSMR541mR0gm+nGacRzb0lTLsi3H4zy6mDR6G9zjceS+XLggeC8TjFFi4JkrMXMBOSBxUa3WBoOBYbhnDfA8v7y8vLW1tbGxsbS0BOS0h2dIPM/DyLplWWgkyCqVir1e73Ng4/P5QPZ4e3vn1au9paXlR2mpLdZiLdYky9E0DaU45jQ81Yn5hessx7IsTdNqterR0fH+/n42m6nXa6ZpfZqyTOzJJ4U1nKBITiQ4r4OTD/kEzh+JjzNWzbFRwc20de0mi8EwBydwmiF5kWB5nOFsXbUM3fF43O2R4zimKjvVIikFvekXtD/8RaL2/03IqdVq9XpV01TwhnG3RFHc3t5BczAhd6x8pG0VWF1dUxSVJElFkQeDwe1nABtLnomitLm59fLlyzdv3qRSKZ/P90Qygou1WH+RLEdVbxwC3UGO43gIgkSzEO4hR9f1drudyWR/+eWXo6PDZrNpmndPBxqGCUa6Y08mDBu9vUBwgoMTFporepxSwPhjWKPUZ/IzzGM7Hsc2TdMe9jAct0f4rDquGBbQ0bE11WrV9VpJb1WZYBSTggTB/QULa81mswXiwS4WaGp5vd7l5SWUbXjd3XMwSgZS86qqlkpFWZZ7vR7oKwNTQBCEYDCYSqX39vZevHgBovTz4461WIv1LUKOMlqya+IAIAKOg22Bm8IaUBiazcbZ2fnBwf7FxUWlUrmnymdZJszzaZpmmiZBEBhBEixPsoKHpDw47rFtF+HzOPX5o+uDjQDH9liWPf4Lrh1cnPGlO7Zi9dtavUQFowTLP2dHZ14gp93udDptNIvz6F8HNiSouIdCoXscwB64oK8jy3KpVFJV7fLyArCQJEmO45LJpe+++253d3djYyMWi0E5boE3i7VY00AO2Gy7hpxxYQ1H3mxu6g2maQwG/Xw+/8sv/z44OKjVqp9zHb0Nk8PhUFEUXdeRvg5BMDzBCQQD/psGmgWddnPg/f8Y/pzuJW86OrjjaIpaK1CBCBuKU2LgrwI5EEEYho7YhgPDQBbfrlBnYkqPhj3x6W5cAixbdnZ2ZFlut1uqqlEU6fP5ksnk5ubm69dv1tfXY7EYsN3mbQHp3LIsEy0DCfuAhj/46IDv6CRzh92b2ARQo0VSFA3y0rMaqfuG1u0NnOwebCCQGG+dRJMNxJDeBQFWAsgbgQKLhNvU/MW6F3KUKSEHjSs8mrEG33W73clmMwcHB2dnZ8ViUVGU+7tK0H+CREdVVYqiCAInaAZn+NE/NONoNlDvptfRcmbyKn9+RVtTtVaNblZtTUFAhP1VIAf163QZyRVNecNBn8Xjmc3eiaK4s7Ojqmo2m1UURRCEdHr1p59+3NraikZj88xMG085qFBrhhlpiCIhIjNNAw7PiTIQ8MVBFAh56XslyQdaQSCP+NdBnXEYZEAM2+/3YRsVRQYSo67rhmEA9KANvAl3YNKL4zhBEGAPvV4RxJYWkPMlyDHR9rrPcqDUAZYZMJfzmOfFUlWlVCr98ssv+/v7pVIJzqJ78AYOLo9HV1UFZG84jqMoFqNogmFRqYq1DB3zmI5n7oxXkLGPx9Q1p9Mwug1LUx3HwjzE86DO14ccFEjqKnqSXU8dQ1iq6zp8/TRNT88cY5gbvZy9vb1gMChJ0srKyt7e3tLSMrq9qLkCGCD8IKLp6P9kWUZA0x8MhrAncGIiUpAOATtKdByU3hAkiSTfWQ5K4ejEFEVRkiTJ6/VCsYLneRYJ9H4TbmCPBZjxBqoKdBVkuY8WQuuhLCuqOto+HS20gaNk8VaGPcoLGeZmD8eoI0nSaBu9Xi83XrCB3woIwdlqWdbtXNkei25+ThpqHPx5JowbiqLQ3NvdOjSmeVNYu98C9X7IubEtYNmHa0jDudHt9vL5/OHhwcnJydXVFYzafJHCADuj6/oAPWN+vx/zYB7ELiM4nmB5R5UdQ/PMPEGZCeZ4PJZpOPLAHPZtTXFM00OOtvCvkuUYBipfWIbt2K7xxjAMWZZbrVan0xEEYXpfXugPxePx//mf/1EUxev1SpIEqjlzxUwDradWq1WtVmu10b+azWa32+n1epDyozPCguoBxObOHyq9DjZeKN3BURUISkMUz/OS5AuFgtFoNB6PJ5NLsdh9nv/fKOSYpjkcDpvNZg22r1ZrNBrtdrvb7YLTPsiN3y6p3RRMbvEYJ8VJfFxfoyia4zhJEgOBYCQSSYxXMBgUBOFbgRyI5ACAIXZBozMT0L1D7xlNZYLYzM3/xzAcIrZAIHCnjY1lWcOhDEJT7h5VGG+ATP3hkAPnRq1W+89/fv3w4cP19fUD8eb20zccDoC3Nk61SIIVRpBDkg6G2Y5nPhMd9NVqlqZYmmobOoETHvyvATmjhxkdhrZlu+ZHA3T1+4Pr6+twOAw2wFOKLMGve73eVCrlOA7Lsqhc+/VP23HZZ/SIDgaDbrfbbDYbjUYdrWZzdFxC5KWqKoSNty/5c3v8548FzzAtCLzP5wuFQpFIJBYrxNEKhUKT7OdbnEO6XXiEVAZNItfGG9hst1sIsGWk92W54+zCIcjzvChKwWCgVCrGYrF4PAGe1oFAQBRFnh+lyzg+X9x6KCpClwJpuvR6vX6v1x0MhkgDDQqzpm1/DL23U5zJ0wfYk0wmBUEQRREeok8P7ikZa+DEyj7YtgCQcjAYlMvlo6Oj4+PjbDbb6XQeriYMegemaaLN6f0he0OSJC+Qgtduk565DMzGBGzbY1uOaTimYVsmjijd//ch5+a7R106d8SB26vf75+dnQqCsLy8HAqFZuLCSRAEcAQggJ0HvLFtW5aH5XK5UCjkcleFQqFarXY6beg0GGhBDeTO/ucDNxnVsjVUZFdardbV1RUY8icSiVQqvb6+nk6nk8mkJEnfXMYDaU29Xr+6usrnr2ED2+32cDiEPg2UzkxzlB26to4FYBsMBqqqdrudYrEIbZ5wOJJKraytrW1tbcbjCVGUGIaYq7RPUZRqtVIsFq+v86VSqdGodzqdwWCg6/q4nGijp9Xx3Fc2wsY2VKP/2NnZWV9fX1pauuuGdMYkaXUayAEN6YdDDpr4bvz++2/v3r3PZDKtVuux3iUIcoxer9vtdm8prVEEL5Kc1yRIbP5zfEQmGsHPc6ViXx9ybioSiPMz5eGlqkq5XPH5Mul0mmXZWCw2vdYZIM083B6T+ka3263VaoVCvjBaxWq12mo1EcH0prtw+456OMz8+e84gDqTiiX8FGUA7RZa9Xp9dTUdj8f9/gCwDOZ5Eha08RVF6fV67XarVqsjzB4dqeVyGfBmcmp8tHvTBAewgYqiQPhCkmSj0eh02qPVaadWUolEIhQa5eUsy35FUyVkHKAOh4NOp1Otwt1VLJVK9Xqt3W73+/2J2iZc4MMuExvzU0iwv/o0aJtUxRXUaZzCtoBgGJbjHlSKcBxHluVarXZycnp4eHh5edFqtTRNe+Q3jiG1GgfCu8nv4gRJcl6SF3HkFoqPXQbmp7iGTUhWY6qlB8M9nr8GYw2afvAoTlmzgnJTt9vN56/fvv3d43FYloXymufbX/CQFIvFbDZ7fn5+fX1dq1W73S4o70JUPv0peef73v5PTdOazeZgMCgWi6enpysrK5ubG3t7eysrqUAgwHHcnGc2lUrl/Pw8k7nMZnO1Wk2WB4gXoKL43Xrq3YO36Ha7oPB0fnGRTCZf7Oxsb+9sb29HIpGvWLbVdb3ZbF5dXR0fHyHPqlK73YZbC5Lmj/bn4VtFkgRK77w8z3/aZRl3c3V0J08FOaioxkFt455thJJap9P58OHDu3fvzs7Oa7Xa4/Hm9glG3jbEwkgS570E7yUoCsc8OIY52M2dMF8tHQzHCRInKYyk8Wf0pZ4LyKEoiqZpkqQwTJ3m1SAqb7Va5+fniG8Wpijqm9bZnFBi2u12pVLJZrO53Ohf1Wql1+upqjqTePxR1wO0rm632+v1ECOuLytKq9VOpVKRSASi9fnBacdxNE3r9/vNZrNSqRQK+Uzm8urqulgs9XrdCfnqefZwwquE77TVavXRlzgYDBVFTqfTkUj0c92Op7skTdNQZlPNZrOZzOX5+XmxWGy1WpCZucuYJ7+EwmgCyPdA1fsIDG7ZFkzrlAOEwC/CtqqqrVbz7OwMRnDq9bosyy6+fYoieZ4Ph8NLS8loNDq57TGSpqQgE4obobipKo6qeDTNMg3HtiGVcMbyAs5XTXQIgsAZluAEgmYxgvqrzOUAu5SmaYZhZuJVDtlAoVAgSdLv9+M4vrOz8+1CjmEYnU7n+vr68PDw4uIin883m43bgrtf5RyfPLr1en04HJbK5cvLy1evXu2+2N3e3mYYZn4yS9u2e73uxcXl2dnZyclJsVhAbfCBoqho7th+TsC+/V5Q6INMolFvFAr5nZ0XP/744+rqqiiKzwM5AMndbvf09PTo6Ojw8KBQKKDNUabx5P1MyYuj6TtKXhNBT2W6XPM25Nz/N3u93uHh0fv3746Pj4rFgjs3SCTsy0Yi0dXVtd3dlxsbG5OpcIKmGX/YjqeNbsPEcKdVs7ttSx7ghk4gxsGNexvMdzpfJdD34DhGkKjnJIgEy+Gj1PCvkeVMqCY8L3AcD6bi0x/TpmlWKpWjoyMw6wQKwDfErRrH5r1arX59fZ3JZE5PT66vR3gzaat8Fbz5KOMB8Ov1eoqiWKalIbOTdDodCoW+rg7QODvsNxqNfD5/enp6eXmZzWabzaZhwLn2lfcQMh4NLVVVZXmo6zqGeYbDQTq9Gg6HWZZ9uvknAJvhcNhoNHK53IcPH05OTjKZy3a7fXvmZlaQA2CAyhjYnZAzAjlNM0zTdq8hTaLpsfsEPTVN63a7l5eXBwf7x8fHlUplMBi4ym8osGTc3d199ep1KpUKBAKTLwsjSJL3MqG4vbpLCD690zB6Lb3XseUBZqiOppqaauqqx9AdpGHqcZ4/9cEwD0YwDB2M0MEYzvAjvMH+Mr0cGH/xotVqNWf1RPV6vZOTE8uyUKWCXFlZoSjft4I3juP0+/2Li4vj4+ODg4PrfL43nhH56kjz6bnpOE671TrWNMQpaLx69er7779fWlqaCWPQddjR6/Vyudz79+/Ozs4KhUKz2RxvoD3TE3UGGY+mae12GzLacrnyr3+pjrMTjUafFHIsy2o0Gr/99tvh4cH5+XmlUhkOh9BKme3u3F/yArOAG2c2y/K4t58nAHLu2bR+v39+fv7+/fv9/f1cLueunnbbJevnn//nxYsXwWDwT70cDMdJmvGHSJbjlzZsXTWVvtlr652m0anrrZrWqnk6TWfQtTWFcGzsJtWG1OeZ4iAM8xAsz8ZW2OgywfKeZ3xO52KMnKapQMAfCPgrlfKsXhNEyJFv+QGOGnzIpJad58l5OAhgLBEauaenpxeXl81G43bXYd6uGQ5NqPVBn5kkCVVVE4kE1IieE3hAgQII0Ofn54eHB9fX1+12e9KZmMM9hA4ZEOosy2IYWteNnZ2deDz+FDoXkN9Uq9XT09P9/f2zs9NKpdzvD5xZQzEElEAf+FzJa0yPVoD0NY1TjiDwgnB3lgMp79XV1f7+/uHhYbFYvO0q/RhgI0Hzd2dn5/XrN5ubm/F4/GMtCfjYNIvTLIVGQGxdM+U+Pega3abRaTLdhtFtGb2WKfcdVXY01dYVa5T9aI6he+wRCGFj07bZst1gOpcgSZxmCCnExVaYSJJgnrX5OieQw4TQmlIB+tOjsN1uv3//XtN1nudpmnnSyHEmR4+maZVK+e3bt0dHx5nMZbVanRhyzOFZ+dEhjrS3i+jQH7Tb7X/+818MWs9JnlYUpVAonJyc/P77b5lMZjJtM7e7dzvaUFW1XC5DP99xbAzDEonEbCEHEtNWq/X27dv379+fnZ1Wq1XUz7CfYofGTp0cz3MkeR/kjLX5XedSJMd91pxtOBzmclcHB/tv3/5+eXnprp4G+U0wGFxfX//55593d1+Gw+FPCREf/44Hx2mGGl2flwlEbMNwTN1SZWPYM3otvVM32qPUR2/V7W7TkQeOrmG2g6PXBOtP+5G+O/d/BBLHCJomxAAVTjDxNBtO4s/rRT0X5y9KVCORSIRlORx5EM3qgFARG5VGNwp8i7FYbA4nSIC30+l0isUi5P6XlyO8GQwGcxubf7qAiIxOTxMJN4i2bS8tLcG46FPnOsCjKxQKMEx+cnJSrVY/ZffO7YLbHvxXMAwXBC+AQDKZnKGunaqqzWYT5X+HZ2dntVoNvrKn26FbXRbyXsiZ1rbgzlwKpsoKhcLh4cHBwUE+n0dw7ia/YZhRzLq1tf3mzevNzS2IBr7MeEIaOBhOeCiG8NxQDGzToDXFlHt6t212m0a3oXebeqdpDrr2sG+rskdXLV3FNNXSdcc0HMeGZsvNuPzjWz6Yx4NjGA78YF+IXdkU0ttMKEZyAva84hfzAjnRaCQajUH3b1YR/ehFbNt0HKhZq4oKqpRzOEECOmlXV1f//ve/j4+Py+UiqgWp38RZ+dGeq6raaDRg7FyWZYZhBEF4hvLaYDBAzNf9t2/fXV9fgUPwfFYj709BTNOs1+u//f7bUB6yDAudg1lBTq/XOz4+QvMop5VK+enym/EnAtu0zzb2bznlmNO8D4Ic9lPIURSlVCqdnJz85z//PT8/63a7Lo4XDMNomvb5fKura//617/29vai0ShN065vaZwgMZbHKZoSfHZkaZT3aIqlDI1B1+w29HZda9X0ds3Tbjj9ji0PMcsgUMxmo5aP80i2G+ANiWM4ReKcQEeT0osfhPU9WgqO8OZ5G65zATloesYfDoeReJev379x4ZxVzUeR5Uq5wtB0MBjEMM/W1lY4HHnO6Yf7i2nIi7CZy+UQUfUwl8sNBn3Xs2nz8IkglPZ4MIqiQAY0Go0+nbeQoijtdjuXy75///7o6DCbzU54KN8iZtu2rShytaLT492DWYIp9adhwr9UKh4fH5+enkDN9kn3B14cgcFnS17Tm7ONO0YUqN1M3gX0FIC5enCwf3WVazabLuZ+QOIW8QW2Xr16tb29DXnnVBMdoP5JkB76po/i2JZtGJY6NPodutdiOg290zR6TaPXMvpdWx56DNXRVUNTLF2zDN1j2RjmYH/u9NxOfqAbhN383IOTFMnztC9ERZL86gs+tcWGEwTDeZ6d4DMXkDNxd04mk8j8VZ9h8X2sMa5VKpVff/1Floc0zbAs92zTD1/MbxC3Kvv//t//Ozo6qlQqvV4PNW/sbxNxPBOSd7NZz2Qonucsy/rppx95nn+KRAcmSw4PD/b3P7x//6FQKDz1Sfo8qGOgXOf3334zdMPnk8C7aJpjTtPUarVyeZk5Pj7OZDLDofw8uwSMtc9lOVCMvVFidnt+4zhBURRyyvkDcjRNazQa5+fnv/76y/HxsTv+N/BpJUlKp9M///zz3t5ePB5nWXbmIlgYhuMUjREEwXC0P+wkV21dt3XVlPtGt6l3GjrKe7BWVe+1nH7fcVQceVTfVOpumAaAQTdIc6Mg5ngsx4MzLBWKc6lNcfM7dnmDCcYIhsO+hp7sXEAOClJI+F5BgQoGdGaLOsPhsFgs0jQdCAQ9Hs/6+nooFPqKziXQv2k0GjAocHJycn19rSjK15rxnHmuoyhqo1E/OzuDIjjLcl6vd4YMkUl+c3Fx8eHDh6Ojo0Kh4K5SP4eo47FtWZbL5TLP88vLSzTNpNNpv9/vArbhnO31+peXmbOz03K53Ov1n22XUC8H5nLu6eVMoyGNURQ5iiO5G6ccmMpCEmrH+/v7mUymXq+74OBA4yMUCq2vb7x+/WpnZ2dpaempvEvGBhgekiL+CD0sS1fNYIzut41OQ+822W5D77XMbseS+x5ddXTNNjTb0C3TsC3LmbDMkUctTlIEReMM66F5yh/i4iv80jqf2qZDMaQ48HUO/zmib3m93o2NjU6nk81mqtXqbB8JUN9TFKVYLP7yy7+HwwFNUyDCNttD8FGFjn6/f3V19b//+7+HhweVSgXKC090FnzuqHqit0Mv6wyHcj6fp2kmkUjyPJ9Op2e7271e7+jo6MOHD+/fv8/n8+4mLabZw6d7u4m+cqVS+f33t47jkdByMWALL9XpdIBY4a6f4W67kIMDcMnuIUm7dwT+w5mN+8O2AJg4uVzul19+OTo6rNfrEMa5yG8Ewbu8vPLzzz+/evUqkUg8q1cWhtr9NIcTFCmIbChum4ZtaJYyNPods9ceZT+9ptFtGf0OpgwsVXEMw0Ha5xhB4BRL8gIl+Wl/hAknmUiCCSdpX5BgBZxisK8nVTxHkAOE91QqlUgkW60WdHRm+FxAWt3v9/P5PJLDCdi2s7q6GgwGn9mdHvy+Op1OJpM5ONg/OzstFAqT0YQZ3a436TW84MRAbMIcgyfwto3/5OezOzRvlCCq1crp6Ykg8JIkQYFl+t0G1YNsNntwcHB0dFQqldxNWjwGYEDsHJ/8eDIJC3+e+QbCi8NMq9frTafTXq/XhWYgyN2Wy+V8/rpSqUyk+Z7hzLzfqXMSCE7DWAPbghHiMCxBEoZptJqti4vzg4P9i4uLcrkCbVEX+U0wGFxdXX316vXOzs7y8vL9c6ZPt4Mj/PAwHm6csJr6CHWGfaPfZgYds98x5b6pDG1dtQ3dA2rfBJq8YQVSEClfkA7GaF+YEgPPPIIz75CDSl6BpaWljY31Xq97dZXTdX22cSSoTQ8Gg3w+j9j6AygBP7M7PYh8lMvlX3/95cOHD8VicYb5zR9D0OM/jU5DHCcpikJy3TiOoWu4EV2HAPA2iXnm8W+/3zs5OWYYJpVKhUKhmez2YDC4vLx4//79hw/vs9nsbPObW5Pk2K0f4uR4AxEf74Zd9tEXN1vgQQxArdGAydYzQRA2NjYeCzmKopTL5evr63q93u/3ZxjZfOm0xEE+8U4PG4ABgJxpbAuQYhYDZFQMwxRZKRaLv/766/7+fqVScWGyB3V+nueXlpb/9a+fX79+vbS0BKzLr35Iju4upI2GMxwtBWzLdEzDsUzHthzLQn+wb4IjgsQICidJjKRwisZJGiPnQvFrjiAHopVQKLS1tY3sGntIocSYkrD/6XEPaihXV1cg/ek4TiqV8vv9z5PrgBchGlc8Pj09y+fzszoF4LADM0r2ZnFIL5Vi0HNP0zQ17l2hfTB1XUPuB6qu65qmybIMsmmztUKARm6hkL+6ug4EAvF4YhofI2BeFYvFQ7RcT5LfuYGO40CEO7E0Zhi0bxSJ5M4pkqRQsjhR3TfA0g02EKmlySDfMqv7FrnkWc1m4/z83OsVwfT2UaRzGI/N5/NgXjnlXj3wfdEMJHFz7zHMpyMsgDe6Pr1tAQnEAQzD+r1+Lpc7ONg/PT0tFosg4fPY/IYkyUAgkE6n9/Ze7e6+SKVSgiDMzwj5KM8mcQ9JeT4a4US9n5teDirKeebSt2XuRvFFUXzx4oVh6MVisd1uO85w5qMVkOtAHwXFy0NUbmZhEPWp8ca27Xa7/W603hYKI7yZ4SmA4wSi/3kjkXAkEolGY+B5LEkizwssy5AURSCaChyXYMY8di2rlctlcP6fPP/T7zw6mkdZXavVurg4lyRRFMVpIAeYVxcX5+/evTs9Pe33+7PCm0kFXxTFYDAYiUQQcT/s9/vBdRuOToh24cRERi/KYDAEO3DYw0aj0e/3J3zcmVwe6IMJAr+5uRmNRh8+HArjpfl8vlDIf+RH4G6XHg45BIFTFD2BnDttCwCnNU13bVsA6mosy9q2Xa1Wf/311/fv3xcKxYlsx2MrgSzLJpPJf/zjn69fv15ZSXm93nn2HvzT1d9moM2rT9jcQQ4MvqXTqzs7L1RVzeVyTzFADpJl3W43l8uhXMfnOM7y8orP53vSoUVVVdvtdjabOT09yWQyj/Javyc7BOknr1eUJFGSfMFgMBqNRiKj4zIQCPh8PkEQoLgxyeSgn6TruqIog8Gg2+3AiVmpVCuV0aHZ7XbBRPkjr0x3qGOaFvQkUPy4GgyGXOSUUMhqtVqnp6eHh4f5fB6Yr9N/LxRF8TwP5vx+vz8UGmFNOBwOBoN+f0CSJNhAVJu8SRNR9GCZpgnZYb/fb7fbjUazVqtWq7V6vdZsNjudriwP4Qae8gp1XWu1mqVSqVgshMPhB0o3TcywR9dUq0/ZxYFdAsYzKpTdFGk/h98MQ3u9YjqdvlNqD6yDkGuBahjuIQdVR2jTNK+vr2V5eHJycnV11e8/Op8D91K/37+ysrK3t7e7uwtGEt+QAr3nW7CjnDvIgfJaLBb74YcfcBwfDAYQxj5FrqPrerfbzWazoMJEkhTUUp4uqBkMBhcXFwcHh5lMplarTY83UHdmWTYcjqytra2urqZSKWQO7UdkPArNsVFwvn9EdnIch+M4r9cbDAZNMwmloW63UyqVc7ksPLoTdumUW412WL6+vg4EAu12W1VVFx0dYHCVy5W3b99++PBhMmkxfXbIsmw0Gl1ZWdnY2FhZudlAaHpTFEkQJHjXYuM1+VxwZ1qWBX0xTRtBOHJMuL64uDw+PiqVSoPBYMrrHGeKEK9kA4EAjOk8ZMdUVe31egj/popvMAyDXYrH44lEwu8PsCwDGjbYH0OHfzr9oMAbjcYCgcCdtgWorgu2tu51IiDkGgz679+/a7fb19dXvV7XXX6DTp74P/7xj9ev36yurkqSNM+SjN/oIucwOyQIQhRHwZGqKrVa1TStarUCamNPkesgWnaWJEmfz+c4djK55PP5Zu71ApKdaFZgtOr1uqIoUx6XNE1DCSgajS4tLa+urq6srCQSiWAwyPO8i+jMcRxUiAv6/X5RFEOhUDabrVQqnU4HajLTXDAAfL1er1QqiUQiEok89nmW5RFonZ+f5XLZarWqaVPF7ECm4nk+EAjEYrHUaKXT6VQ8frOBLvJdaPCEQiGfzyeKEnrxTKGQB+uEafJFx7FN0+n3+9fXV+FwOJVKh0KhL5a5YNAS+bcOpiEicxwXCASTycT6+vry8nI0GpUkH3LyJe8JuGFCUxCEO6eAbXsEh2gQbSoXcF3XO50u1OhQibj9WGSFaEySpKWl5b29l7u7L9fWVn0+/9can1hAzldYNBKnWVtbl2WFJKn//Ed7opFymJNvtVqXl5eQ6/z8MwXn9WxzHV3XW63W9fX10dHhxcX5NB2IydMrCEI6nd7e3n758uXKSgqCX6j/uLt40MoNhUKCICDq4Obh4cERWhMBHneXfTNRj4gbxWIhFotBd+RRr9DpdA4ODj58+FCr1VHD2Z5mD6Fns7y8vLf3amtrK51Oh8NhSHNhA13EHBAwCYKwsrICJZqLi4tff/0VBJunyRfh91CmmA+Fwm/efGea5hdkjBHk9Pv9Xq+Htst0J5+MYZjP53/9+hVqp+/G43EAmy+GZYiajxEEeWf0Y1m2ogDkWK7nhMAFuFgsEARhmhZKNLXH5jfAuIlGoz/99NN33323vr7u9we+pXraAnJmVV5D7LUtNNjVtm0bQsWZvxfkOq1WC84LlOs4yWRSFMVZ6R8DSy2Xy52fn5dKpU6nMw0lFMdxQRBCodDy8srOzs7W1tbGxgbS4Z6BGxBUkBiGkSQJyYfgFEU7jodh2EajIcvDaVAHBLVKpVIikVhZWXkUYA+Hw1KpdH5+ns1mkSaQ+7iYpmmv1xsOh6GS9uLFbjqdnpUKHIAZcN4kSaIoyjAM8GAul8ugLjFF4DIKj2q1WrPZ7Pf7oijeH4mDXCwonLo71mmaFgTvysrKy5d7r1+/TqfTPp9vVs/deCJnGkHPm88IvH8odj4Wb0RRTCSSL1/u7u3tra+vBwKBb9e6fgE5Uy2O45aWlkCcmCDI9+/fTVmMuj/XAf1jDMNkWYGSy0yoBHDUttvtg4ODw8ODdrvjulMKTwj0ur7//oeXL19ubGzEYrFxOxefYXkTwzBJkra2tgTBKwiCJIm///67qk4rMo+UJcuJRBm+ygduLxjJZLPZXC5bqZQ1baqeBBq5WNrZefHjjz+sra1DdjjzKgogdyKRYFnW5/OZpmUYxjS9MWBhyLLc6bSr1Wqj0aDRuvdYN2V5iCgM7ktqy8tL29vbe3t7a2trM5RgN00T6XlO65QDCbSLSGiS30QikZ9++unNmzebm5uhUGiR3/x1IYcgCJ7no9HoixcvUCzTBw3HpxifhkYrVNhIkgIOG9R/pkQdXdd7vV6pVMpms4VCEYYWXRw60Cb1+/3JZHJ7e/u7777b2tqCK3yi/UfBug/DbghaUAycMtdEcp/Ner0+GAx0Xf+i48hYH6x3eXl5fn7eaNRl2X3YwbKsJEnLyysvX77c3d3d2XkRj8efSFMckmagVpum2W63gGQAY0/uwo6xp45cq1Xr9XooFBJF8d5j3QLRTNeZBMeN4Hl1dTUajd7/XlNkOdb0UZ276E0UvbFYYnf3xd7eHuANy7ILVPjrQg4sr9e7vr6O47iqKhiGnZ6ePpGwP6RTtVoN0SUJRVH//vd/INH1qagEMIiXzWZKpVK73XI3hQPMNEj7fv75f/b29lZWVoLB4DNUADiOgyKYqqo4ju/v77vONR3H0Q2j2+20Wq1er6coCtQJvxTam51O5+Tk5PT0pNfrT4MB6F7aePXq1U8//bS2tgbJzZMa+UDDIxQK/e1v3+M4Dqq1aP/cq5wBD6VWq66trX4xk5hSp5nj2KWl5eXlpZlbTM3IKcd1tWAUEIRC4R9++P67777b3t6ORqOL/GYBOR6wNhBFMZlM7u3tgVQMRNyz8tT56BG1LKter0NLQ5J8Ho8nEgm7q/LDsdLv97PZ7OVlpt1uuQNLOJd9Ph+aiB6tjY0NF1pbrvefJMl4PL67u6vrGuroyK57ErZlqZo2GA5g7gd69ffniO12u1gs5vP5arXmOsGFzko6vfrmzZtXr16tra2Fw2HsWeYYoJQXj8d7vd7a2lqv1yuXy6CVPk2m2Gw24Xa651NYljnOciwXl43oJGwwGAwEgjMvPE7vlDMF3uBerzcaje7s7Lx69WpzcyscDi/ymwXk/GlJkvTixS5F0aqq2radzWafyNDecRzoNyAWMmUY+g8//ODO6wW6ON1u9wKtiau0iyeEYZh4PP6Pf/zzzZs3IM/zzBMDgiCsr6/rug66KbVazV1PAhTZNVXtdDrdbleSpPvDZ3ARzuVyjUZ9OBy4e1PIb1ZXV1+/fvP3v/99fX1dEATsGefmwDMmEons7u7C7O00kIPYj+1Wqz3paX3us0wKa66yHAwp1tAwAzTz2uP0tgWuIYcgyVAo9N3f/vbdmzdQXF3wBRaQ8/FCzqG+lZWVV69egySl43iGwwGS/nyKXGdYrdZo+hT1dfzAZHtsHIQ4wd1qtVoqFet197PfgiAkk8kXaK2urvp8vuefGACjqkQivrW11ev14CBzV0aHIdweWvekSpAjAtMvl8t2u113NUlQbk0kEi9f7r169SqVSgUCgeev5MDg19raOsyBNZtN1zps0NeEyuQ9VGmoSUIm4QJykA8NxbIMyMnMHHIm9AF31AbXCyyll5dXdl+82NrajkQijyLrL9ZfBXLgufX5fK9evWIYBnQAC4XCExmaIb7/8OrqCsNwYEvv7Ow8FnIQz6pSKOQbjYa7CB2KG36//82b777//nsw6fpaE9EYhomitLPzAml2Fer1urudxzCPZZn9fg/0TO/PEXu9XiaTyWazrnNEhmHD4fD6+sb333+/u7srSdLXuoER+2u53W6FQuFSqTwculQlQLw1BaY7NU27sx8GgG0YBlRBH4tt42l8Gtydp/Vd/syXOyv6wKM+F8Qf6+trGxubS0tLi/xmATlfiFCCwWA6nUY2UzcEninnuu/JUUzTLJfLR0dHKMYXQV344Sc+FIWur/O9nkvtTtAXWFlZ2dnZ2djYCAQCX3cimuO4ZDJZr9cjkXC1WpFlxTB0t3H6ACRN7/k7/X4fqRWUG42Gi9Yd0ED8ft/W1tbLl7upVCoYDOJf0ZwKdSXD4UgikahUyqZpuMvRbdvSdU1RFFmWNU27UwXgtk6zO2uAsSkACxKiM9y3CRxOaVvg+t2ROpE1IXcsYGABOfcFKTiOB4PBv/3tbyzLappqGEalUnkiCxDU/O+dnp5gmAcl4MLDScmg4Ht1dXV9fQUTlC4+rCAIqVRqe3t7Y2MjkUh89YiMpmm/3x+LxeLxeLlctqy6aT4aSpF1mzkYfKGtrWlavV5HwszNfr//WE2UydRFOBz+7rvv3rx5A3jzFY8YeHev17u8vFyrVTudjouOzkTHQdNURZFVVb2T23JLp1nRdc0FJxvHiYnVzRdlDlykOEjIXMOxs/4AAHxqSURBVEGt2eeEHEdVlWq1WigUqtVqNBqFsvkCCRaQc3+phEGlknVkdD/6Sblcnonm8acLKTh1CoXC8fHR2ISG/eKIKCiqdTqdcrnsjmcFEbrP59vc3Nze3olGo/NQcQYigyRJ8XgiGi2hps7gscfNA2cywFisWCwOBi79hFiWjUQi6XR6dXUVXIS/ekg7KezE44lMJuPOz23iDocEMe/WYB7rNKuqeiOa+dhLJQicZVmO42B2araQM7Et0HXtmbMcFO4MqtXK2dkZz/Pb29tAlF+kOwvI+UK0GA6Hf/zxR57nNE0F7YCnyHXg8e50Ovv7+wRBxONx0MO4PzICPx6wA2i3W48l10GETtN0KBR68WJ3e3v76eY9XSyWZRNoFQoFd6+AIHn0rd0POYVCoVgsunZ5gSmc7e2dWCwmCPPiesKybAytKVm5CFSMeyAHznRV1QzDjU4zWJ+B2/9sj+MJHCrKVE45rh7nm/yvXm+8e/cORqYg0VlAzgJyvhwtxmIxmNvweDynp6fVak3XNddTb/csRRkl41ejlfP5pGg0dv+kDoh4Nhr1fh8UFR/9UEEml0wml5aS4XB4rpqccG3hcIhhaLdxug12mnceN1B4GQwGlUqlVqu6yxGBIbaOls/nnx8VejBcB+1UmqZd89bGPYm7hQxATcOdTjOGjf5B1mfco5qXjwk4tLH/rIG00Z6xsoburuFwUCwWJElcXU0Df33BW1tAzpdRB/Rf//73f/C8gGI6DRQzZ+6sgwidw1qtdnp6yvPg5nUf5Iznw2uaprq7GJ7nV1ZSq6trwWDIhbXMky6Kovx+/zRcBqC5o6zU/nSYceLyAhaljyUOjL0dmWAwuL6+nk6n5+o0ARIBsoeQOI6z0XLFNffYtvW5FMG2bQQ5smGYLl5/AjmCwM08O0QZmIqaTDpUJp6iEXv/E42sNDqFwvX+/geSJIALvsCDBeR84WSBBjtJkpBVeDzYxcV5vV6fofP85B41DLPb7WQyGTQelAoEAvfQeKD1PZ7FcdA/j6uqgQB+KpUCR8X5umlI0uv1iqII2tUu6pkQaSIN7zt+EfhsaFa0426MkWHoYDAUj8ei0Yjf758rIRPohwkCL4penuc1TXPbgxzt+ufO6+l1msHgmed5knyKIVBVUW78FJ4Zb8awZ2ma3Wy2zs7OWJYLh6Msy7lzmVqsvwrk3H6AE4nEP//5T0HgVVWRZXk4HM7WRXTsazm8urpCs0GvE4kEz/P3QE6jMYIcJEnyaCgFQY5UKrWysjKHwRdJkijR83IcR9M0ZCqP2m3UIXPQV3THb0GxtNVqDodD6FU89qtkWS6ZTCwtLYOT2FyV6aETiVDHKwjCNDIE9x7rpqLIiqK465Q4jgfHSY4TOE4A689ZQ85sJnLc1XXH/kPOYDDIZLIURSeTS16vN5FILCBnATkPqqKApZiu681mE8M82Wyu2Wy61uv93NJ1A3wtS6USEIU/vUGBbqCqSrvdRta/BgpFH/EuID/s9/uj0WgoFJpDa0KAeegtMwyNgnTLBYp/7qQwDL3dbjWbLRA3cnGgcBwXjyeSyaQgCHNVk5zctCRJ8ahV4jqFRbab2Oe4ZDAu6k53APYb3YccWHjMJ+RMZmChOOniY6LRu36pVD4+Pr7NR53De2YBOfMYdy8tLf3rX//keV5VteFwqIwFe2eV6CAzYLPf7+Xz+Ugk4vP5PiWSAR9GlpVut3O/oMvnDiMQ5ABDaK9XnHlZYyaQA7b2LMvRNIvjypRR6qdZTqvVAqafu5eFxDceT8ytViOork0DOR4PhrRn74acsWimMoUZIMFx/HRXeA/kyFOqq01YnXDDuHvS4Ve63c7+/j6O47FYzO/3z1vrdAE5c5rrkCQpSeLKSkrXDdTX8VxfX8+WTQAMy+FQLpWK8Xh8bW3tjta3bSmqMhwOkB6JmxjzFqOJpyhyPrmbEGCicBB3Z9gMr/AZyDHa7U673XbR5ACuGph+hkLBubWvh0xxGiEZDMMJgvzckOb0Os0kOT0ofg5yzCmv7ab4LIqJeNzj8VSr1V6v5y7XAWGqWq2WzWbPzs44jkulUrNyPl2s/7OQM35IKEnypVJp07QYhlUUdTgcQqVrJqgDLwIjimAq/KmOr2VaiiwPBgMkRuKmD4FEfULBYIhhmLmdFYCcD3062520M9hD3DmCZxhGFy0XOSLiqrGiKAaDQUnyzW1pHiL0abxckewmSZJ3e9zdEvS0psjD2KeAHPA2dVf0u/1FB4PBN2/e4Dj+22+/oalSN7kOMFlAkuD9+3c4jktoLcZ0FpDz0NDb7/evra2NOWxOqVSCDu2sch1N01qtdrPZnPha3n4mLcsayvJgONA03V2ChbIc/1eXU7v/KUX6XYau6+6041BpjvzUEnSsvqUPkB6OiyMJSqxIb9/7FMfl7O5VjCQJd9plgNMEQVAUTVHU57Ic1/0SeI5Q7ZSbuaDnTDIwDMcIkpQkaW19nWPZbneU4lSrVXfarxAX9nrdbDYnCN7l5WWO457Nj2oBOd/8AunPjY0NwzBomlZVFQhsM0EdOG37/X6n0+n1erIse71/Gmuf3ocRcjVJkuZnevHTR/SWYImb6XHon99ZFIKheuTY7+ZIIklSEASv1wsE7jmOVTEMw8Hk2110RRAkPUIc6k4ZaZhtcqFgNtGmA4bIU9gWTFlYQxuHUyTh9QqJeCIcDiuK6vE4MqouuH6uVVWtVCo8zyWTSZZlNzc3F5CzgJyHPo0MwwSDwc3NTcMY5Tq2bYOX5axiNF3XZHnY7/eHwyHoHv4JcgaD4WDoesaNJAk4NOcWcsaT7bJryIHy16fH2UQ6DEmhuFHfgrY8DFh8C01gxzXeUBRFjzCHxHHso9MTYgKk06y48wMd00OYmW8jCtomczmuqQ04RdEcy3m93kgksr29jYxCyv1+37XWIjgC12r1k5NjlmWQeSBL08xC9HMBOQ9aLMvG43FI4QkCf/v27awgZzw+rff7/cFg8FGnEeVAg35/4C7LcRwHx/EnatvOEHIURRkOZXi8Xel33d2aBvUtbbSmATOOZbk5PyluWmFudAEw6OKgFIcmSeqjVOkjnWa3tgU0w7AMw07TbbrzU0OdAK7NdZ9pTL4YhSzg96qqajab6XQ69Xp9Gq3Ffr93cnJKEEQymfT5fIFAYAE5C8h5xKEWiUR2dl4YhgH0p36/78J25dPHZtyevaP4gwprAzBkc1c0QNZYzGwf9dkuKC32ej13c5ogGSmg9dHzPHF5ASkUVyU7nEJrztu/E9cWV+QLnKJIhqEZ5o5eDrzyKFOcLgdFMT49W73LCRyiLNa9bQF6RlionaJUj0okEjs7O8OhDPVey7Idxw17DY0ht/L5/PHxCcuy29s7C53pBeQ8YgmCsLa2Ztt2q9UyDCOTyTxW1Pnzic7d7Vkk1jIcDNxADtzZQPOdrSnWbBdilHW63Y7ruRmKIkXRK4peiiI/PS6R4ufNcfzYL2uatvxzLqh9fU7Y9CFlJZSC3GGedqPTrKnatGVPDqgxs4UcgENVVaaEHMSmu2nXgXPu69evTdOsVCrNZstxDNvGXLtCNJvN9+9BZzoMPrwLyFlAzsM+HhrRAN97XdcHg4GqqohL5l5tGm5xqK1p2sfmV6g1OpyGjTN5i7ndVV3Xmmi5HsFDQ1QSokhQHx2XIPeJ5NdcD1R9A6cDAgbNHSRMZnruhIQbyEHNMCh7uqsQ8Dw386N2XDhVoQvoQmF9cv9M9N/gCpELUbLT6a6trQ0Gg0ajPhwO3YEimr0bFgoFr1dMp9Msy0aj0ftlfBdrATl/WpIkvXz50rbtUqnUbndsuzPFcQaQAPGa8dEjDa3R4dAlGwcuCUZePB7bXW/5GZaqarVavVarq6rm9sigEOLcMTdj27ZlAeS401d20KiQ/VXEIh91+N4ZsjwQEmiaYRgWUpw7dbjhTIfipCunHJ7j+KfQkNZ1HdlP3xjHufuaxr1AfqL/BvrcyWRyb28PeoHuIGfiINftdguFPNKZJjmOW0DOAnIesYA2vby8vLGx2ev1Li+N6Ts6Hs/H7d8xU0gHOUXXJGkkq2MgzXlnDg9K5DUyrNdrjUZD1zUXEToKUTmfzy9J0keQ49yMmDqu4da2HTQwZDyn8ZeL9RCTui+Vle7OQm455ZjuznSwLUA5xOwFPV27+Hy0A5DlTEBxMpO3ubk5HA5rtSqUNNyx1yDiabfb5+fnHMdFo9EJDXKBGQvIedAxh2FYIBDY3d2VZbler7fbrelf9qOaErRGdV2X5akkCyESdFdyeQbIUVW12+3WarVm07WTDSuKYiAQuHP2aMrsBInSq+6yh2dbt+dmXBSX7tdnm140E73+k6irwf2jqu7h8HOQAwv5wK5rmnZ1let0OtM4BTuOMxgMstksTdNLS8terzeZTC4gZwE5jzjseJ5fXl5uNOoHB/5KpTK9pw7QVSdR5the98bu0HWdGkpzw6H8zJ7wD1ngA1SplNvttjvBEoqigHsKdjufHmrjXcXc6dKDmMpwOISa5xx2xW6RmDUEjdZjbrmJeRr/pJBz54E+kyxHURQkNjqVde+tXg750c9FUQT2miwPwe7adToFvk3lcvn4+BgNxS50pheQ85gFbcB4PBEMBgVBGAwGruMsUFbDcQLHiUmzelynVoCh4LpdNJ7s6bt17nrCJctyPp+/vr4GkWwXG8gwTCAQDIXCcF58hAcoDQJB/hHsuNhA0zSGw+Fg0Nf10WmODs35hBx9fJ/Yjwx0HpjlyK6PdYIgnwhyQPkNweFUOejn8jAgfAYC/tevX5mmUalUW60WbLi7bwrpTHcPDkBnOh4IBBY609825CCd/yGwigmCCIVCXq9AEE/CcIUHVZIkMB2A/qrrGxHDPpZlnNSpkaO7+04MmiJqtdstw9DnqqRmWVa3283lsrnclWvAZhg2htadjy6CHKCIj2JJF3Q4GP7toyXLCsdxFDVfB8RYLkhH467u6AMk6izwn4OcCWcSAP2x3xJB4E+mIX0Dh7Zturu2W3kYx/PcnVnyR+y1er3umkow0ZnO5bKnp6csy6ZSKb/fv0CObxJyHMdBqsyVfP46m82xLPvDDz+kUiscxz8F5EymLEVREkWx2+1OB2D4R5Itt9zmdVQtcaYpXtXrDU2bL8hBeqbNy8vLXC7jWsyK49gkWhzHffq/oqkakkIKyQRBQGXs4agDYx8AOe12u9/vwVjoHEIOamloOqruPtJQ9Q/ztDvb+xMFM9u2ELXSZXD2RJAzcfFxd23j+wRn2c9eIagUJpNLu7svVVVTVVWWZdcdHQglJzrTPt8oZl2M6XxLkGOaJpJLGXY6nWq1en19lc/nC4Wi3+8LBgMcx8Zi8Sc6JgB1YFx5SlT71DNxHMGprtXVJpDTaDTr9Vq/39d1fU6mGhVFKRaL2WwWEc3bLhJEAuUvoiglEolYLHaneRqaq6eR+AJDURQQh1ycEcPhsFqt1mo1QRDuxLavDt6qpmq6Zj5Sh/uWXyd/Z4w/pTXAWKOafGLImdYph6IoaK4QBH4nIKHyWmBra0uW5VqtOhwOXbPXxjrTvWw2KwgC0pnmFzrT3xLkoCO1cX19fXp6mslkCoV8q9XSdT0Wi8diMa9XlKQ73DZnCzyuFXxvRVIg2fJHpDlp207DlUKKtlqz2ahWq51OW5blObFS7vV6Jycnh4eH9XpdVbXHVtUA7HmeDwT88Xg8Eonc+cRO1L1YlqUo2nXlU5blQqGA7qi43x+YN8jRdV1TVUM33HW274/x0bGuyLKC5BtcPB1woHNP45Tzh4uPu5AMEJGmGY7jGYZFzdS7lyAIwF7L5bLTs9cg0eF5HulMM1tbWwvImWvIQVMI2nA4BH5toZC/urqGkLnRaCiKjGE4SVKZTMbv96+srASDQXd2kw984KehIMNkCcuyyJRFmBhFz8rRHRVGlFarXSgUotHo0tLS1y0N6bre7/fz+fzp6Ukmk+n1eu4OSkTfiCWTyWAw+Lk+BOwtwzCIkMWqquLidACaQ7FYjEajW1ub4XB4rvRvbtGjH50NQxYCw4l3SpdCaXFyHzrO44pXsP80TXMcyzDMk/VybuDQxfmPghKKQVHJ/TqEFEVJkjTRXkMiQJo9BXvNsqx6vX5ycsKwrCT5wExoIfo5p5Cj63qn0ykUCqenp5eXF7ncVaNRB3IXRLKOYw+Hg1wuh9gmr3VdB0nB2V4GzBVP42czaQgJAi+KEs8Lk/nn6X0Yb5WGzF6vm8lkAoGA3+8XRekr3iLAUjs9PTk9Pc3n8xMv1McunhdSqVQ6vQrjOHfGE+PtpUf5I8+Dt567MmChUAiFQq1WK5FI8jw/P5Aznk1R3bG2wGoIQTL3qSjqBHJc2BZAzYqmKZb98oE+JeS4dsqBwjjLsl+Uvh2z1wKvXr02DLNaq7ZaLXM6j+Bev39ycoLf0pmet7LtXxpyYPhAluVut9toNEql4vV1HlXSClBdvT1NiWGYrmvtdrtSqRaLxXA4Eg6HeZ6fbVKvKEq32+10Ou5kN29FT6LP5wcfsNu9HIQ4wylnDkDFoN/vZ7NZn8+3tLQsSRKKp567CgpfX6FQODg4ODw8rFQqg8HAXSGIJEmfT1pbW02n016v9/6TgqJoUGBrNpuur7zX61UqlUwmI0m+lZWV53ezh+/RQgscaOBWGYcmLv06URZI3+nX+WfbAs3d66MXZxmGna0a95Rw+OeiIouSMPqLEnDAXksmk91udy2zNhwOG/X6NCYmSGe6XcgXjo+PWYbd2dkBt/gFm2AuIAcGqUql0tnZ6cXFRTabrVaryGRF0TTtrtH9UfTXarWy2VwgEITJgNlmWu12u1artVpNmHpxF+zQNO33B0OhkCAItx/LmQh6TnZjOBxeXV0JgndzcysUCgaDIY57bshB9evK2dnZf//739PT016v6zoyZVkmGAyurq6lUqkvfq00TfnRcmfFPZnDaDabR0dHLMv6/f7nh5xJCVfTNBzHRVEEyHE9NzPJQhAq3BHjj60fNDTxo7pTb2MYFrVJmJlXI8dyUODi43pmCIwVuAcaK8Do8dLy0svdlxqir7mGnNFxgaiozWbz/bv3OIaHw+FAILDQmf6akANKwIqi9Hq9ZrNRqVTzhXw2k8nn86VSqd/vQ1Z751k/YYZkMpc+nxSLxaACM5P7fiJfkclkOp2OO9F4WAzDREfr48mSWfVyxnG62ev1y+USeBTu7LwA3vDzFIh0XR8OR+HC8fHxwcFBLpdrtVqujwk0J5FIpVLxeNzv93+xNQWaeMFg0HUTC1AHMkWeF+LxOE3Tz8YyguSm1+uVSiVFUViW9fl8E6C9PTfjIsYH2wKQkb7btkCdGIS7eP0bt9anwRtD02AA1r0c0QRykDfdl9MLIKQEA0HEXhvCjI5r9hpkrrI8LJWKkiSurqZBgW0h+vnVIAeO3Wq1en5+dnFxcXF5WalUBv2+LMsTg8L7c4vBYHB5eSkIwtbWViQSmQlfCw6gTqdzcnJ8cnLc7XanEfKCVP3TyRLLspG9rjIjoRrHtq1ms/n27Vvbtn0+vyiKzzb5jHohxcOjw1/+/e+Li4tOp+Oi1z1ZXq93c3Nze3s7FApBIeJLkMOEQmH4y9N86VAVpCgKMQioZ2MZAQ26XC7/+uuvw+Fwc3OTJMlAIDDJ/kHQyEXPDw5Q6GR8WvgaQ87oVP//7P33cyNZliUIA64V3KE1BagZjGBEZFZ3V1VPj43NfN+ure3+OH/q2ozt7PRUdanu7MqskNRagCC0cq2whndJD1AEkwTASEamn2zLriQdTvfnjnfeve/ec5Ce04M3LQjiwpzt0ShneL/XAcq5KJ24f2zB8/zs7CyqXjtqNpv1en2U6jWUtm0Xi6cfPrzHcYJhGJ9yvijlQGSj67osy81ms1qtnJ6e7u/vHx8fnRbP2q3WgxTUL7KlqNCAYdjp6elwODx0thRmSaQsW9na2trZ2SkWi7ABPtyeBEmSIOKUSqUG569Be92xUA5cHmqVLXEcF48ner1ePp+HQP4xiAfGRNM0KPTY7PPzxt7+vufsO5wvDsMwiURybm5uZmYmFArd58ohyonH4zzPUxQ1nOmLV2V0fl5eX1/HMAz1ljqi+IixDviPNZvNUulsa2vrw4cPBIHn87nB8ku0LFOHE6SBnQyoIL/VKccwDE3TkG2BM5Rb60UTqFeHOd40I3xBhn6gQ7epQvVaNpu91F6zdF0fuo7AdR3TdBuNxs7ODsP0oxzUosf7op9fiHJg27xarR4fH+3v7+/s7JydFVutthfA3n+28sSYq9XKmzdvAoFACGEUa0KwBH337t3bt28PDg7AHnQo998grAElScpk0slk0mtmHHB018dFOd56qtvtHh8fBwJBWZZ/85vfoGI5/pEox7btZrO5sbG+trb24cOHk5MTKO0bjm+CwSDa9wrnctm5ufnJyal7bs4B5SQSCUkKsywL4zD0mrTTaa+vr2mahoz1nEeNdcDyfHd394cfvt/c3CwWi9lsFrVwcVfLTLThEmueX6fnhnkzx4BKkEH+bpgJ/VJdjXiMyE/TdNM0hlPn8xYxPM+hfjj8Qa8iVK8h51CrXC43GvWho3awtZJl5eDgkCSpXC4nCMJP3szwC6Ic0CA6ONjf2NjY3d09OTmG1k4vb/DA/mrIwsvHx8cMw0SjUdd1UYuo8CDigdKdbrdTrdZ2d3ffvXu3s7NTr9ehcmG4O2UYJpVKZrNZpAUneE2gnmM/5KnHqAAN6Yh2u310dARekIqiwAVA8cK4Jkqo5avX68fHRxsbGzs7O0dHR81mc4gnOPglF0VxdnZ2YWExnU57++f3XMlKUjiZTMZiMXiUo9xdq9U6OTlmWca2LcMwQSaL5/mx7I3Bzo2u651Op1KpHB8f7+7ufPy4dnZW1DQ1EOhBE8kg5QwdDXs7Gbd+Fwa7XpDe0oM6fj5pVD+ShvS4bAsu7eOIh76QkBJvtVrT0+AcWlfVoW3cLsqjzs/PNzY20DNhHqPmwqecW6Bp2snJyfr6+rt3705PT9BCxhzlrYJe32q1GgxiOI4rivLtt79CTekPaLxCeszdw8Ojt2/fbm5uHBwc1Go1XdeHuypQ1Od5fnJyanq6IEnhwUz6QKWQNpxQ492jAV1Ne3u7stwtFouvXr1aWFgY46rKMIxyuby/v7+2tra/vweSNkPLUnl8g+NEJBJ98WL1xYsX0Wj0/isG6HYEk8fz81Kn0xla0m1QD3htba3RaNTr9eXl5ZWV57AbNxbKAVm83d2d7e3tjY3NYvG03e5YlonCYpZhWIq6KGi+LBTWNW0YyrkU7b898TWgfzFc18tFDAEGz2OnnLEU14xirADVa/l8/tmzZTBV0jR1lGkqEAi0Wq2PHz9iGIZKYyJPqgPsZ0s5kF8mSVLTNFmWkS5Wb0SjLVgT1eu13V3cdXvBYLDVaqFMi8RxHJSHXpu/vKQc2lXqNhqNUun84OBgY2P9+LgfeI0yh6JdHCIcDhcKhenp6WudJQOVQsZj+FGC1Fi73Z/akGO8g1Zq06lUKhQK8TwP439PvQaouoGBUhSl2+1Wq1VQVt3b2yuV+lO8YegjPkGWZePxxCxCLpfjOO7+ESqkjBDBT1ar1WKx2Gg0RlnEwB4hDB3ar9JVVZ2cnEokEuFwWBB4aEO552QxGNQqitLpdBqNxtnZ2f7+/uHh4fHxETI7d5BGAANSYPDGDtgWaIYxZJRzR+Jr9GZkiCEeI7E2Vsphh6McKL5A2msLiqJWKhVI/g/dogfLNaQzfQg601NTU77o56NTDs/zU1NTzWbj3bt3OE4g0f7x7J/rul4qlTRNq9fr+/sHy8vLhUIhk8lIknRNmwDSsqZpIkGd8tHR0cHBwe7eXums1G63VFU1TXOUNTuOYzTNRKPRmZnZ6enpawUqF6pZaN00Sp76R6c50HFpNpt7e3uTk5PT09MzMzO5fC6ZSIZCoXv27sHVdrtdpDx0enCwf3R0dHJyUq83oGVq6GKeQYRC4vLy0urqKmSxhrA05jhuamqq0Wisra3hOD6KUqr3QVBSaLVax8dHuVx+fn6uUChMTEzE4wkoVbgnYRuG0W63YACPj0+Ojo7K5XOkXd31mk7QBEejKOeioNmr2kIOF0P2zSDG4R/DKafXC2CYl7Z6RA3pESlnRMdSQRBQ9Zp+eHjQbDZR9b8zus7027dvMSwoSaIoijBp+OzyWJRDkmQkEkGtKslSqdRsNse1mQEVR/BQVVXRtP7CJJPJRCL9ABbl2bBAIAjJdNM0vZK5s7NisVgcol7u82t2LpfLTU8XMpm0JEnXMlrgY48qhaxRHN1/lCqg8PcSCogVZk4yyVQyHA7zHH9ZPkvgOOElslwE27YtywITOUVRUFdsuVQqnZ4Wy+XzWq2mqupwRpzXgOwhQlNTU8+erSwsLESj0eE6OmmajsViGYRardpsNnVdG3FoUYGyYhgGGOooilyr1U5Pi4lEIhKJCIIAHkjXWqBg9GAADcPQda3T6YfR1Wq1XD4/Pz8vlUqtVgvYenByvKwuu4ifBvtmwMRv7Im1oad1T6P6kTWklaFdfC5HdVSV60vttezCwiK4x0Kf0LDVa/0Pdrvdo6NDQeDz+QnQmb5VKN3HeCgHvlrhcCSbzZ2fl6Fqa4yre6jaMk2zXq9vbGxIFwjzPA+aH1Aq1u12O51Oq9WUZRkEPx5aL3fnmj20sLC4tLQUi8Vvdpag1aWObAseJcS5uVpHJRtVMEwTBAHkniKRKPp3WBBCXnu2p6mqqqosy61WCy3sGs1ms9PpwPwL+brRyQYWd5AQW1paWllZKRQKQ4tQEQQhCEIikZiZKbRaTZjtR79GFC86vZ5erVZRr+ghz3OSFI7H47FYLBqNiKIEuUqoCoPo2cuhwQA2m02QTbocvCvRLbweA02LxFXKGb5v5u7N89GtAR6PclCMDg2w9nBOObBBCJKmo1whyGFEoxfVa5VKtdFooutxR9SZZlkuk9mgaXphYcGnnEekHHiEgiDk8/lKpVyplFut1ljmr8F1BKxPYV3PcZwgCMjwkcKwoG1fTKnI816BHJr310e8DJIkOY5LpzPz8/OFwu2dJePVHbjnmhHRqhYIBBqNBsuygiCALhns7sDmBI5jINIBjQiwc9NBUBR5MIs9DrIJkCTFcf1wcGXl+fPnzzOZjCAIQ2cYoIggHA7Pzc0hy7VGtytblj0OPSHXcXpemRlaOFcrlQpayojo1eJQrIOjuuoedNtomirLMIBtWZbhTRscusH/AV+Ky8mRGHhq+ih9MxiGsSz7eaec4fdy4IIHfGieolMOSL6OrnIdDAY5jsvncyCeqyhKo1EfRXvtQme6BjrTNEQ5UMDmc8z4KcfLvE9OTtZq1a2trVH8/u5e3TuODd/YbldGmQ/smn4i7LSPi+2CwSDqZExMTU3Oz89NTEzcuma/1AYe1dF92DFxYLOq0+lARgiSQl7fBhAwDBHKDzm2baGBcsY3UFCEyiSTybm5+V/96leLi4tj2UcNhULz8wuqqu3v71cqVddVx/J8vTOgs1mK4kIPMho/4vLVCsKbDOrD8IrZl/hR+7hLyuFu840dpm+m1+uhvRbmVtuCEZc+qDqUgM2nm4KhY6KcUVx8ggO2BWO4QpKkwuFIPj+xtLQM3UKjUA6g2+lsbW3hBJ7L5iRJikajPuU8IuXQNJ1KpaBlpFw+V1VtlF6Kz0c8sGPnBALm3VPJ6ACtgWg0uri4uLy8nEqleZ6/dQ6F1SUUp46Spx4lCoTs2XDT7hheIySnn8lknj179uLFi6mpKaiKHv3M0BY6MZGfm5uTZfn4+HhEB/Gbg4ACQfuhW+53jJ7nasNx/GBt1YCGtP3wvpkgkqMmPrd5flWneQhdgyBJXvjQPAbleC4+Qzvl4PiF2I9XjjHitxterYWFBVVVa7UqpElHqV4zLavVap6eIp1phllaWrq1ttannPEAnl86nUmn0+fn545THUvh06NOlD8axaPez9SrV69evFgNh8Ofe8sH+yHGHuE9nTG5Y6xomo5GY7Ozc//wD79ZWlp6UBfOj04NNE0nEskXL1ahK3a8lAPjN/ZVgtfjcqtv7FBRiOeG2Q9z7rQt0IdwykE+NJ5TDjleyvEqu0bR5sAwHAVht+vLDQdB4OfmLqrXGo1mq9UcpXoNdKYb9fq7d+8wDIvH4yBi61POo1AOJHMikcj0dAGaYCBQ/Wlnw6Hn0GAwGAqFYBu8UJj5nFf/YGprOLf5rx1gWpxOpxcXF58/fzEzM5NMJsf4NYPZMBQKTU9PK4pSKpUMw2i1WmMsUXkk3GxahPcEFTEPpyFNXJrZXN/JgJo6UJQZTqcZUTuDclYUqncIjpdvLm0LhmxTHRT7uVVfbui3V5KkbDaHqtfU7e3tUarXLnWm1bOzM1EUp6amWLa/ZuV5wWea8VMOzA4o8z7f6XROT0+r1erXOCLAN6imJfqqj9fZbPbu1jMQahzF0f0rBcQ38Xh8fn7+t7/9R1TRF3uMZR1IlYD4nmVZMDU85dVMrzdYXXbFqnyIIubLnQxIK93i1zlQCzekTrNXX4cm9HEawFzSITTAGqNU03kq1+NyRUM7WMFoNIqq1+xqtdJsNkbsADNNq9Npn56evH//niD674BPOY9FOTA15HK5RqOxvb3lVZF+dXzD83wymVzqY3l6+sI4+Y5PIXO2i2qc4fLUXyMoihIEIZ1OLywsrKyszM3NpVKp0ZPsn5tuwJhkefkZ1MS7rivL8igdvo/JNz2vumxw32WUqi1IMHp1ULdqSIMz23A6zWiEL0q6x7tigD4HuLwRbQugHAMqCcf4lUfVa3lUvbYny0qz2RillAB0ppG66w7HsWCsdYciIuzCwviAgexA0SNGUTTHcSCH77ou6H5d638AZQ0MwwRBuI85yM+KclDaPTE5OVkozLTb7ePj46c5KXzu5YN/h8Ph1dXVV69ezc/PQ5ro7g9++SLppzBWYLy2vPzsN7/59dzcPLR8PurrHgqFlpaWCIKQZdmyrNPTEyhReZov2M0el8vyAWWIBOzlGp+71Q3Tsy0YWv/i8TpyBruRQA5quOd1mahkxy7Gc1miMrm0tKRp2uamCf4mo7AsuPpSFJXL5e/WmYYdykajUavVNE3zqnDBFDwcDmezWdftnZycmKYZiUTAMBceE3y2hUDT9OTkJNSsPmXWIcb+NcNxPB6PI18K1fMvePpzsRffxOOJhYX5Fy9ezM8vxOPxH23pQos4+xdCOfAqQ+dvPp9bXFxaXl6ene3HN19AQ5ckyXA4PDEx8eLFi0AgiGFBDDvtdmXTNJ4U6Vw0LaJdrmsa0sgpRxtWQ5r1GktvNiNDVm0IrY1LDWliRCGZOxZkXoiDLq833HcTVK4fQ4xnoHptUVW1er0OLdKjbM0O6EyvM8xF0cet3xHPb0xVlXq90el0HMdBrYc8iloYwzBlWd7c3Gy328lkcmJiAhV69OclILaTk5NqtRoOh8Hq5YnXyD1K2bgois+ePbNtG+nftBRFftSe/HHxDezfvERYWVnJZDI/aqziVQohQ3f950058B6DJcHCwvzKyvPXr19PTk6GQqEvY/8OfyISibx69YrnBaTj0zs5ObYs80mFOhcFYOTF1su1vZyhKeeOxJdnDTDcG3hpW8AiDelHEvRUkfu786DS8KtXSHDcg51y7g9BEObn55Fz6GGj0Wi12qOIV3n65R8/fsCwYDqdBpmum5TjqSqQJGUYxsHBgWma+XwO6gZxHHMcu1arvf/w/qxYzGQyiqKkUqlIJBoIBLrdztbW5sePa+XyeS6Xn52dzWQyX8yu/glRDkVR8Xh8enp6eXnZsiyQz/vR1rmfMAGC40QoJKA2xrmXL18uLi6iOhP+PkmDS1Hh4bdGB00QniTT9P+F4xhJUoIgxGKxycmplZWVhYUF6L8Z117uPccKCrKnp21FUQiCoGkKKXW2n04NG3R00WhtCz0unokfqtoaTkP6rihk9NQupK0eKbGGGmD1ob3+rl7h+FWuvRhakqRcLrewsKAoys7ODhJYGulbCSYsh4dH4HE8NTUFHsc3U5rQgyHLXdBYgi8auBTiONGfZAxTUVSUQmsieUAFUY7cbLba7ZaiqKZpPLbg1tOlHMg7ZzKZX/3qVyRJKooiy3LvEk9t5Q6PPJvNffvtNysrK7Ozc4lE4p7GkZdbo8NXCsEax3uzn+D4oDm0/4UUBGFiYvLly9XFxSUohh6L38xwjywWi71+/ToSiaASJmpnZ9srVPnJu5QwDKNomr1aXYZkpM2ho2HPPO3WKGREneZLDWn20czZoDx6+BXnwBWOnxS9hUIweFG9ZllWtVptNhuj5C1QzbSj60alUnn79m0wiIE65DWdabCG4jgO3Ai3t3c0TZuYmCgUCvF4fyIyTRPoUApLJEmCExjYJ8py13UdiqIkSRJFiSDI4YLIr55yPNW1yclJZAXfwHHs7Oys3e44jv1EYh3Uy03Ck85mc3Nzc6urL+Ax39Mv2ctTQzPEcJVCHMclk0mUsb0QjoSp8yfnHohdMCzIMIwoirFYPJvNFgozy8tL4DRz/1F6pFgHBKoty0INkgy4IoFzNnoQP9kQ4jhOU9BAQ0Ee7NK24CIaHq6iDBpLPx/lXHT8PFT/wtOQvtycf0RztuGkyuH4mwJCj/FeQfVau90+ONhXFLnVaqJSgqEjvF6v53Q6ncPDI54X8vk8BDSDO8QYAhQXgFSx4zhQ5MbzPEEQjuPAbpPAC+GwxDBsu92Cr2e73WZZFmUaWmhx8xX0nD6iBBDsyM3OzvZ6PZ7n/+3fvkM2zT99rOMtMRiGSafT8/Pzr19/Mzc3l0wmRVF8kNXmQHHqMJVCUB334sVqNBptNpul0tne3h6IRf6ErOOND0ox45IkFQozCwuLKysrk5MT4XBkjB7YI16kJEkrKyuxWCyZTG5srL9//6FYPNV1FT0KUEjr/RSJNRzVsjJe0yJs+EE0PBzlXNoWcJ+xLbCBcobWv3hU24KxaHNAlPMYVzgIsMyYmrqoXtve3kIJ2+HfI9CZrlTKHMdtbGzQNL24uHh3URKSnXUHJ5NgMIBhQY5j0+lMOBxu9tG6/AqE0Z8w0H/+sinH8+CbmZnp9XqGYfI8XyqdIeMTw3HsLzwdeLvfFEXxPB8Oh9Pp9PR0YW5ubnFxMZPJoD448uFJA13TtKGd2aCTaWpqCrlB50RRKhaL7XYLzL4sy4Lc7peNbDCapnmeR9KEkUwmW+hjplAoQKfno37nH3S1YG8DdZIg1nJ4mCiXy41Go9vtDnSSf4kh9IrsKYqEWlaoGocoBzkVDRMNe7Utl2v8W/1AHUXxOn5g3uk96LK9irhHoBx7dA3pYBAjCAL53TGP+vrByx+NxlD1mtpsNlD1mjlK9RrMEkjyeBNVe4Zhk+/WHOnlgvzKuhx1+/Vomk6nUwzDHh8fdzod5Agn5fMTNE2VSufwnv+iKcdbNSQSCfA+SaVS33///d7eHmq2ssdiCPag7y1sEoZCoVwut7i4tLCwMDs7m06nwRFyiFf5cmt0SNWsy83wKDiNqqo6PT29u7u7ublxdHRUq9XgRf8CrDMY2XgW8YVCYX5+YXJyEizAgZKfYP0l0LYoirlc/vj4aH19Y3d35+joCBk+2q7rPHbE440JPFNQH08mEwzDeC55UMQ8aLr6oJG82w0TdJoVRQPbAuC+B10/7L/SNPMITjkj2RZcMi5GXhadf4HtQ+SPNW+axuHhYa1Wd93O6NaL3W53a2sLx/FcLitJUiwWu0k5vd7ntrx7ruuSJJVMpnAcX19fPzsrono2HDmpCyRJDqFN/vOkHFg1RCIRr0cpEomgQvJKp9NByrKfdnfGaDpwLSnBMAzHcaFQKBKJplLJfH5iZmZmcnIynU6HQqGhp1FPQ3pYoUYchVxcOCxJkuQ4EYZhwPkmnU6fnZ3VajVUnaJCINXrudcS3OMaH9CL5HleFEOSJCUSiVwuPzExAXwDdplP9iWGCAB25tD6kYlEIqlU6vz8vNVqdbsdWb6wuPe2E0YZw6uj18MwHBXO0aiElxcEIZvNLS8vFQoFr+gRohzUP9QbYsZEkVM/7vzc9j4keC3LDAYDOE7c877QYjqAYcA3LMdxjzGho2szIV2MpHSG2ceiKAo9W3ZEp5x7Aq26wmhhuqhp2sHBQaPRGE2nOGjbdqfTPjs729zcBPsJSBgMvk6QY0C4liXr/4YkMWhIQFazFIZhDMOKooi2M0nX7X0V8qFfyM4BFs4URcVisZmZma2tze3t7b29vXK57DX6gsbDuCbTwcJdxHnRTCYzjVAoTCeTqVDowolrlGX70BIm8G6BXDzshKONEzKRSIiiODk5Wa/Xjo+Pj46O9vcPisVitVqVZdnLRnpjdX8V5Gu3ORjW0DQdDocTiWQ+n5+Y6DNNKpWORCKhUAh8lJ9IJu0+xJNOp9HmU6FWqxSLxf39g6Oj47OzYr1el2UZFjeDmiIPet9uvl2ue/F3kYx6OpfLT01N5vMT+Xw+Fot5FRZIBKUf3yCTMfqhG37gRSQIwq2UA2qSiFBdDOtPZPc9e6//D9Gf0Gk4+WNM6EC3tm2jSZN86E4usv4j0XpIAK/bLxDlwHczFouvrq72egEFIRgM2rYz3HSBXrb+29JsNj98+BAMYpFIRBTFa+k18Ly47Pa9kuuGS4JOr3g8rus6EquOCYKgaRpJUshuFXv62zlfiHJgyODLCerooijG4/FSqdRoNNrtjqoqg3IdF5u/D36o/fUaWrNToACIyj45SQonk0k0I+QymUw6nRZFcSwNU4OVQkOMiSfUiBJWGOxJ0DQNXcQ8L0Qi0UQiWSqVKpVKs9lUFFlVVcjPmKZpWZbt2Mg5zL3bvsUbf3ihQamJpmGI2FBIhCaA1CUg3fyT1wgMETVCgugyXAtLUjiVSpfL59VqDRoavATXxQCimdrb8vnspI9h+OUAXvrK9P+FNr2EcFiKRmPoHUul0xlQrfeyarC65zgulUqvrq4mk0lYNjyIciYmJjKZDJQw3TyG47ipqSm0jp4wDOP+lOO9h9PT09AbMPYJHdKehqEnEglVVR+6noQmUJpmCoUCmJ59mdTuZfXahGXZpmmk02m0A+08KCN641vZg+Y2SZII4pZglOd5tK2rx2IxqM2DwtpwODw7Owvl1AzDTE9Pg8pALBYLhUIkSczMzDiOHQ5LX0AEZNSB/cJ7+NAQp+u6LMvtdrtSqZycHJ+enhaLxUqlAkWunkCOt5b83DV6v/WEFCG7ApZ8yWQylUoDx0D0AKqIyGN4PC9usXj63Xff/fDD9+/evbvcwbvvC03TtCRJr1+//q//9b8+f/5i8F2BdSuo9RmGAWX4tVq1XC5XKpVqtdpoNNvttqLIgzz9ORq+7G3uT5SwWhRFMRIBt/94IpFAnv9R0ASEDfmnr9T0Y6+Ze1kkZmiaDhbmFYRqtVyr1er1xuUA6mhz2IJk/a23HMQwAsdJimJohuNYmDJiCPH++MXj8bgkSSgxxXoDOPjNh3e+2+00Go2HFt0iQRoMpGYFQbg5p4CiV7Va7Xa7Q4hLeS0NqVRKEISxy6WAAVqn0x1angMqJ0MhEa7wi72WUNouyzLkt71e7xEoB24nGAqFUqmUKErXwko0VjXHcURR5DgOQjrHcZBVdiMYDCYSCZIkQdDWk9aFLqJerweB9S9LY+0+7zeJAMQAEnWpVGpiYqJWqzUajU6no6oqTKOXi9CLdShSZ+oNLtvRkv1i7e5NqYIghMPhSB9RWLxHIhFJkh5DY/Vya1Qbwm0eAhrIFdxM6XpFqyDx4kUhjUaz2ezzDdrj6Qc9GmxKX5bMQeICnKE9vkFhDYVKki72G0RRhMGHAB92a342XlKowAkjCJJlOVF0bduOI2QymUaj3mq12u12p9NRUJkXkps0+hFjn3UGK1MvBhAnCKr/djHQLCkIfCgUQl19YZBZhNqKOxaYEHuhIpoQGMbcn3XgocBD/NxSiWGYZDIZjUaH3p2C7ajHkOdC9haJcDg89P6257L6hWWSIeeM1OfYS4E4d0TKAVN42I+5+TSh2KrX68G8Bo8DtWRdtCXAM5IkyatAgexFMpkEBnr6K8WfzJr7shixv7jO5/OohFTrdrudTgecH7vdrix3FUXRNA3lQGxUfQRNYf3ZBLTt0CzAo1lADA0ApgCSJOGL+kjx+KWjuzq0UCPDsARB3v1Vh3o/hmGi0aht29YlQDwYACTtdUFCKgisHr00mue2QpL9sSEG8FXHNPeZT2EAY7GYbU+hcbI9gxkYPW8A0aO8CJpx/OIVguGD7WuapkiSIgh8cAzvfoIwcUAUPjQrfO5PePVmI26CPpIcJHzTofzkc3Hk/a/wp5qpKIoarCS7z13cmesOYBh+UykK/haqMQkC1XrPF/RQ4BkNjoPX1eD91t/L+ZHMu1cKBbaGqqrKsgz7dWChODAXuF4CjSDwgbmAhWIh6JXzRFu/wF1ctrnpwwo1svdxKPE2Fb0OMsi8DbpleBEhrCW95Q/iXQIFlhTEl8Auvxxz3MFob7AFD9ImlmXB6MEyFpQAvddsYPcLXjfKW34OdxmP+m16suP/VZSfPIXr/9xLcu0abpYCfUUjTDydS4GVGkVRoVDIucRFQq0HKaNPq6TBQg5vbxwA//kFLhhkpMFedxTKGeJ18dak3vLWy6rdNtv2/+WNmO/EPpjjhXQNDB2kTQbHMHgJb3X5i2JrHz5+zpTjxT1fRaGUt8MPBVCO8+B+ck/CZLgVijf3fdVLyJ88+vEH0IePLwnMH4LhAGkZ2IIaohQHSj+RUCP/ZXKAPnz48OFHOV8rwLYA9p9N04AypAcBaffyjyEXP15AtbFl2baDarpQBUcQ+7RXBNUIfrrJh6etbtn2NYUYEtV9fV2dXj58ynlaUY5X8jSEo3uv58nFc088yrFtuyvLsqyoqmqYF/qGUA3I0BTH8xJSDPoZ17z5uD9My2q12zKSwnScT1KYAi+kUymfcnz4lDPSam44R3evIAqa/59glOO6rmXbiqI0m81KtVYqnTdbrf7NXnYa4jhOEgRJkWIolEwk4rFYLBYVUW36zWlF1/Vms6Uh105gJSTvT4JMAPWzmIZ+Cfd4HxiGUa3Vi8Vi6bwsy7L383wux/w9Iwi8P3X4lONjyEkZWjpM0xzCiAGV3j+WXPwYIhukHVc8O/v4cX19c2t7Zwfp6bpuz71oYryogcMkScznc7MzhZXl5cL09K0r2W5X3trZqVZrgSD6JxCgaUoUxUQ8ns/lfh7T8S/hHu9JOZVKZW19429v3pbOy97PX718MTtTyOey/tThU46PIaMcxDjaEHwDtVIkSXwxMfYHcaHruu12++DwaGtr+92Hjzu7uyenxU6nc+vxXJ2D7t1Wq91oNF+uvsjnstf6ojrdzvrG5t7+vqc5GJbEyclJ1DWd+Hm8D7+Ee7z390Jvtzvn5cppsej9PJfNeE7hPnzK8THMVws6ckCB9IGsE0SKvxRQzpOKcly3Z1l2tVr74W9v3rx7t79/UK3V75gsDEMvVyqtdnt//+DsrMQwNMsyiXh8kHLa7c7HtfW/vX3r/SSbyWA4nkwkbMv+ebwPv4R79OHDp5yfknKQUY42hNs80u5FasQs8xjavaNAN/Rqtba3f7C5tb23t1+t1VVVBXEnMRRiORZyRKZlaarWudA6NHTdaLc7JEl+9+8x1+198/plNpvFcRwU2C3LarfbtVrd+yssw2qqZtuW23N/Hu/DL+EeffjwKecnA5izqeqD3ebB4pCiKGSqy5AU+aQoR1GU/YPDjc2t/YODcqViWRb8HMnjT6bTKTEUQnmk7vl5eW//YDAAqlRrv//DH7uyDPUEDE1jfsuRDx8+fMoZU5SjKoo6hCk6inJohmFoiiaJp0U53W53c2trbX29Wq3puuHFN1NTk9+8ejU1OQFFR7KsnBaLDMMcHR3X63VV0y62jqvVUum82Wypqgqal/6r4sOHD59yRqccW1UVVVVs23mogC9SfqUYmhmjc8+4AHsSH9fXVVUbjG9evVz9x9/+ujA9RZEUSqyZZ2elsCSFBOHNu3dAORfxn2PLiizLCo9cJv1XxYcPHz7ljArklKOpqooc0QMPYh3Q4mRZhiTJp6Oz6SKVUlXTmq1Wu/2pPo2mqFg0mkmnM+lUKpmEmMx1XRzDNU1vtdvbOzuD5zFNs9lsNVutSCTsd2H48OHjyoLbH4JhoxywoB5VQ/rphDguam41DOOawShBECFBCIUE8Cj0lJV5nsvlMtlMhmXYweMN06zV67Va3TBM/z3x4cOHH+WMCrDTBm+0oSiHAHO2J1Ue3UPuzTeVe/o36ziO7QR6n4w6gsEgRdER5IpJUhd9jiRJciwrIld2yzINQ5eRrXin27Wu7ni5rqsbRleWm80WTdHoswTLshiGgT2S47q9AUGHwd+algVlxwRJgFmFi/Tu3AExb5zAGZqGILLX61mXvnafO8a7L3iy5qVXG3hngJwPQRD0pcM0HA8aDXDmcd0jNNJeKJXdeYxlWaqmWZYVvOwECmJBHMMI5IzUQ1tr4EuNYRiNrPrIS99SiGg9ryAHedrixIX9B4kMHT73ckLnlm3bBvqsZdmBXg9H/lUMTSNTK3+G8OFTzninZvSVA4G1L+yU8+Vh2zaSWFNs58qUSpJEKCSEBIG8rBGgaTqZTKZTKUHggximaXqz2ezKcqVavdbZA+es1xtn5+dQFCcIQjqVwgm81W7LsmKYhjPg7T342063qyhqIBDgeY5hGIokHcfpyrI5EFSxLBtDhrMkSTquA75/dxyD40HPAMkwjHano6gqYjfTth0sGKQZmud4SZJ4jvOOB40GOPO47pG8rEH/0WNQn39VVpTgAInSFM3znCSKrus20OAbukGSZDgsiaLI8zwFlINuU5blVqstyzLo9LAMQzMMTVOCIETCYfYzLyd0bimqemHdqyiu67IMEwqFYtGohQzR/VnCh085Yw5xQNPTNM0HfcGCQbAtwMHC9EkVdGFogdxfxV/N9Wm6Xjo/Pzk9rdcbyUTCW/+C5U80Gl1ZeQamo2JITKWSqT7rJKORiOM4xbOznd299x/WWq32zXNiGNZqt0Oo6jqfy/767/9OEIRqrX5aLJ6fn3dlxTs+GY+vPFvGcGxnZ69cqWi6zrFsPpeNx+OCwMuyvLO7V280vePTyeTL1RfIuB53kFgcXMnnjnF7QcdxZFmuVmvn5fJZ6bzdbns+oSiko1iWFXg+lUxOT08l4jGGYQbPPPo9Xv6W95TK7j6m1W6/e//hosMfPTKe51LJZCQcFgReVbXDo+NGo2GaZiQSWVpcwPF+VGeiOvhqtXp4dFypVrtdGdRaYdMOEI1GpiYn0ql0LBrhOM4LASE2arfbp8WzUum8Uq22Wi1N09xej6aocDicSad7gV61VtNvpGd9+PApZ0hcZBUuND0f/NUKBvvxATLO5p9UlINhGEPTDE1jV69KVZTDwyNRFIulUiaTjkQig+vfRCL+n/7pn759/SoUCsGWD8uyFEkZplGvNw4Pj3/3+z+sb251u92b5yyVzimKwon+2V6trs7NzJAkWf6k0HXuHT89NWWYZjAQ+Jc//fnw8Mh13XQ69e3rV7OzM/FYrFQ6/93v/7B3cOAd/2xpKZGIp5IJmqZQtKHAlXzuGJjly+XKm3fv19bWt3Z2avX6hRVtrxcIBpBXA4bj+ML83P/+v/3/Xr54kYjHEEsp47pH+G0+l7u4mB87plar//HPf3n77j16qxAxJxLPn6+kU0kcxyuV6vsPH8/Py27PnS0UWJaJRiKSKFqWVSqV3n34+Lvf/2H/4BA57w4YUqB/0qnUyxfPV9H/wQrjIpGIYqNS6fxfv/vu49r66Wmx1W5DrjKIBcOSNJHPh8MShuGyLA/RPODDpxwft1OOaZqw0z6EbcGlUw7LcSxBPCHKgbqAUChUmJ6qVPuA/JWN6sGLxeJfv//Bdd1ny0vZdNpTURN4fqYw7TgOh9JcNEUBj7Y7nXq9oahKpVqt1WrXk3WXNeaf1u/ZLBIycAxd77Q75XKlWDzzfuvYjsD3l/Y7O7vn5TIQZKfT1TTNMAz4K4PHJ+JxXdfh0bgoKr37GE3Xz0qlre3t9x8+rG9s3qEpZ9mWKIq2Zb9+tSrwgmma47pH+O3F/d7jGMMwarVa8ezTb1VVw3H8vNSnqGartbd/0Gz2ozoxFEKhjKFqWrvd+dvbd9//8GZja6tUOr/1HmVZQUQbDIfDDMqY0RSFlCn6rLx3cLCxsbm5ueUpUwBarbaiKKIoMgyjqiok63z48ClnPJSj6zpszz40yun1Ahj2dPdywmHp9auXpmn++19/AMoBlCvVf/7d7yuVajAYpCk6EY8B5VAUFYtFe70e2sh/rILvRrP51+9/6M+GivIY55dleXd37+37Dx8/rh+fnNyhKVdFCgudTicSCRcK0/bDd/IeD91ud2t7myBItJNkadqVSd+27G5XPjw6/uOf/vL2/ftuV777PFgwmM2kJVGkSBIoR1XUw6Pjra2d/cOjQWWKSwrUy5VKrd7AMAziIX+u8OFTzngoB2wLgG8eKuiJKAeDijUMe3KUw6OopVqtra1vXp1QjEqlukXtRKNRQzeWFhey2YzA8zRNU2g+up6mQzs9YkicmpxUFNVTKABAbRvL9f8hyf5LODGR5zjuc1dlmmbDfJSSa4iBGs3m5tb2xsbmeaUMcQnLMJFImON4kiQ0XfdiPsMwqtXqabF4ViqFJcl1nXHd4+iwbfsOIjEtq9Fsnp+fl87P6/WG93OOZWOxGEmSqgb/9F/sblc+KRb/9uYdSZCCwPO80Ov1mq3W5tbW+sZG7VKZYvAeoUxRvVTe8ycKHz7ljAegIa1p0ATag5TUg86AnHKYp6YhDWBZNpfN5rIZlmU+t8YvnZ8rqmrbzuREniCIW7uLMAyjaCqRiK++eI5h2DWFgovatnQKytsCgcDU5IQoij/NAsIwarX6xubW1s6OFxkIIWFhfj6Xywo8X6lWr8V8um6clyvxeCwSiTz9e/QWDYqiVGu1a3wgSuLzlWeCIJyXy+fn5dJlfV293vjX775zHGd+bjaTTjuOU683+nHg2rp3m4P3SJJkt9stnZf39vd9yvHhU87YAKW0gUCQpmme529NncH/v/apS01PHCpWOY57gpRDEkQoFMrn869fvXQc5+TktD2wqwFrfBzDeI7Tdb3b7U5O5mPRGM9z17Jq0ECazWRIkrRte29//3zAsIuh6WQiPjszMz83E41EA4FAJBIWQyFN1269KliJh8NS6KLu2Y1Gwvl8LiSEII80SmRgGGar1W62WoMhAuxRLS0uSpJ4cHi4sbk1+CnLtjqdjqpqmXQ6LEpjucdxISQImUw6LEk0TQexoG07uUwmHosbhrG9u7e5ve3dJkRy8/Pzr1+9FEOho5MTiqLanQ64eZqmWa83qtVqF1VRO7YjK0qz1Rp8HziOm5ycWJifm5qY4DhWUdTTYpFlmcPDo2sxnw8fPuUMD2SwRoZCoUgk4llyXWMXj3LgP6H2CaRuEolkJBIRBOEJql5C3dpkPv///y//WZLE//bf/5/2jY102FkpVyqNZvOl/Hzl2TOKorxuFS+tFJYknudTqaSmaX/4458Gz0DTdCKRmJ2ZXn3+PJ1KAUWxLPO56RhW4kuLC9NTk0JIMC+KeunROduyrK4stzvtazsToCz3bHkpEg4Hg8FrawvHdlRVtSwrJAipPsZwj+NCLBb9zT/8/dLiYiQSJghCVVWKpOLx2PHJ6YcPH99/XFMu98Mgkvv2m9fffvM6JAiRSNhxnIODw8rgnaIoEAk7OTe70ASen50pvFp9UZieliTRddxiqSRJksDz12I+Hz58yhk2DiBJURQnJye+/fZX09OFO8Khy4jnCuVQFJXL5VOp1B0N3j8tm6K6NWGmMA1qaaIoVqu1drsNWX5vZ6WH5lBUSWHMz83m87mwJHmxDoZAkmSAZUM3yBWITeB5SRIjkfB9Vu7zc7OvVldzuSzPc5ZtO6hjRteNriyPRDlo/6PbvV7USyFluVQyyfN8Ih4vTE9VKlVv5a5q2slpMZvJvFpd5Vh2LPc4OkDzuzA9vfLs2crKshgK4Tiu64bj2MFg8Oj4pN3ptFqtT0lUhslk0hP5fDIe53lO07V4LAYl41fIVVE73a7ruP1Yx3Gv/kUqmYhnM5l4PAauFpZtJeIxSRRJgvTnCh8+5Yzni51IJERRnJ4uXFsa/2hODvmBYjRNQ9P7k9KQvkarYUlaXJjnOG6mUPj+h79tbe94WX4A1DU1ms1ypVJr1P8j+Y88x1+LdcYFVNRQmJ+bFYT+n+hdoivL5mhlBdDOKSvKNcohL5XlcBwXxX6MpSiqt3KHew9L0n/8p//wdJ4aisymlhYX5mZnJvJ5AscDwWAPFViqmoYM84I3aTUWjSBFczIkhEKh68QJuuDtdqfX692Ud6LQexKWJDDu8+HDp5xHST3RCD/hVvAXuEcMw8LhMFIVICHu2d3dK56Vms0mtFxAfZTjuLZtkySZSiYpikomEwLPQ6g0TgokSEkUw2GJuFQJAximOaLbECSODMNwrha7g7YCzL8MQ6dTqUJhWlEUSZS8Y8Lh8JOaamlUsJ5IJCRJ7MdeAzAM4+YT6fX6t28YZrvT1lFxgWFcV9OAxmdYajiO3bvqcBpEgSxJEk928eTDpxwfXw1gpT85OSEIQjaTjsdiH9fW1tY3Brv8DF2vlCsMTcdjMZIgaZrmHqHfKIgFCZIgiPHHhT3XBWHO3uf7q2Ac8rksgePygPzM5E9agXbLl7l/nXzo3nuEtm3LXblWrxMEQdGUoiitVss0Lf/N9+FTjo+fALDSF3ieIkmCwCG8w3Fib3+/ctmn4riuYxjVWm19YxOVVAgEjkciYYZhxnklqNEHw8a/lO71Aq6LJAo+314FqVSCJFLJ5GBqMRIOwwbGE3peOEEQ93XEQKbjB4ZpiKJIEIRpGMWz0jXZHh8+fMrx8UUBTJOIxzmW60+yYkgUQ9/99fvBPpVuV97e3nFdVxJFiqIomhov5fy0YBgmm0knEnH3qjQ/QRDs13yb7U7n49r69u4ugRPBYNB1XcM0lcfRd/Dhw6ccH/eMA3rguSKKoSCWCwT7JGSaJssw5+UyJJps2+7KcrF49vb9e5IkI+GwwPNgRfMzGAFwkWF+dk/Wsqy25afRfPiU4+MpARa/gV4PanBnCwWOZRmaCYVCf/7Lvw7ubTRbrTdv3wUCgdmZQiqV5DGMwnzbWR8+fPiU4+O2aObS7VTXDV3XjW63W6vXHcdB7luRVCol8DxBEKlkChlmOoqiUBTlxTqWZbVa7Xqt3mq1FEVhaDrg184+YYihUC6XjUYjSAXu9ieVy2YK09OSKPp9nT58yvEx/oBG1TQkxV9vNJr7Bwdv3r7r9XovV1+svngeEkLgIMBx7MREHomr4TzPX4t1bMeRFUWWFennW0T+80A8HvsPv/3t6ouVTDotCMKtx9AUFQoJpmWVBrR8fPjwKcfHGKIc13Ub9cbbt+/3Dw87nU6xeLa1vcOybD6XU1XVM6LGcZxj2UQ8MT8312g0L1zCPMpBlmiy8vMx6TJNS1EUTdcsyxrshWQYNhIJf70VBBRFxePRiXx+YiIfEgSk5qBf14EOoqJEx3moKZQPHz7l+PgRynEct1yp/uFPf373/oPt2KZhqprGXm0qHJhw6XQqlUZ2bdcpB0U5tu38PEZG17Wz81K1Wut0rkzHiUR8ZXmZ/VnU5sGOXa1eR8Zun0RxhJCQSadpmrL8QgMfPuX4GCOQyjUWCPY5Q9VUVb1QVFM17fj0NJ1OLczPO0nHU1EjCEIQeIHnCfyqRIrtqIoyGBU96bvGgjiB4wQevNr000NWOq7rBoNB07KazdbR8fHR0Umr3faOQboyuUQi/vSfLHabgV6vF3Ac13EvDLdty6o3mh/XN46PT7xj0qkkFgwmEoler4dh+I0z9Gzbtv0YyIdPOT4ePjFhSGhLSKVSyUTSU1TroO4NlmG+efVqanICqajh3vEESVybrB3HURFlOc5XEOVgQZBsIbEgdi3ocxFwHAc/zdPTszfv3p0NmDfruvbrv/+7r2Qxgd+0NYLydyRj04P/3Ww2P3z4+HF9Y5BWs9lMOBzGMOzmGVzXNS3LtCzXpxwfPuX4eODE1J+bOI7NZtOZTLrVaoFvCpKDsaq1WrlSaTSakUiEZXE03TimZRmG4d5QJ+vHDfhdulv91bHjfJnVcX8yda81cX4C7EvdNAV3kPerbhgMTRumWW/Uz8vlaq1Wr9cv3DA57qZvxbjuEUUPju3YYxkfDMMokqQo6lqblG1b3T7kfqCCEmuyLDdbLbhHQCqZ7PUCNEURBEHTN8/gKIqqKEpYkvxvkI97vY3+EPgYBMuwuUzmpiuoruul8/NSuawb+uV0Y8tdWZavlwngBM5xHMffpbTm9lxgMtf9IpTTn/lvn/oJAud5lB4krlKOjWI1pR+rGYZRqdYq1aq3kYPcMBPJZIJm6Me4R9ftXXy2546FcmhkGH6NMEzTqjea9UbDNE3kdatrNxxxcBxnWVZAKVT2ho8tIq1Ot9O1Ldv/7vjwoxwfDwbDMJl0OpNOXSsKAHGU/v9ot5OJBI7jXVk+OT398HGt2WwOHkkShBgKiULIc0whSVJCAFuzQCCgadppsRjdjSQTCXAfYFkG+d2NB5Zltdrt80ql3ek2ms2PH9c2t7ZvVQ8jSBIkfK41pqiaenJ6Cv6tp6fFw6OjQcphYZQyaa92YPR7NC2r2WoVz840XT88PNre2T0tnmnj6Ia59EAKzRSmq4g7QdVGUZXDoyNRDEUjkXBYOjsrHR+fqKp2lXIwmqY4jkU3KMai0cF77HS7G5vbFEnZjpNMJFzXOT0rbW7tHJ+cqJrqf5t8+JTj40cph06lkqnUdcppNpt//eGHs1LptFhMp9MMTdcbjfcfPh4dH7fbV2xD+3OTKEqSSJIXbxfNXMQEpdLF/lC3K29t71iWxdB0pVoLBAJJVP01rrvQdaNcruwfHGAYfnJy+qc//2Vnb2+weWiQIClRRJZiV74LXVne3tnVDYPnuHKlsru7V6lUvaotlmVy2Uwuk2EZdlz3CHEkSZLVWn1nd+/7H344Oj7RB0S7R0Q4HH798qVpmkgfT7l2hZIknRaLB4eH14gZCwYpkmRZlmH6fJnJpJPFT/cIb0W9Xlc0LZNOm6Z5cnr6/Q9vjk+ONb911IdPOT5+FEAY+Wx25dmyYRhnpRJY5ZumZZotJDrQK56VKIrqdDr7B1cKapGXfmR6aiqbzUQiEYqiPsUEmXQmnW41L/aHUO+OXDwrvfvwsXhWAo2cfC7HcexY7qLbX31v1eqNQCBQrVYPDo8ajebtXwCCoGk6Go1OTEyUK1XPDUhR1P2Dw2arBXdardUGy6NRLJjKDBSIj36PrXb73fsPx8enzXarVDo/K5Xk0QxPr4HnuOmpyXKlDNHqtSvkOK7RqNfqDU9lgOf5ZCIxOzsTjUQYmqZIUgyJM4VCtVbrdDpwbfBWHGInNMMcHR9bll2v14tnxU7Hl6P24VOOj3sAx3GO4yby+X/6x9/SFPX7P/wRKAegKMrh0dFpsYgFgzbqHBz8bCgUWlyYf/H82fTUZCwa9VxbvP2hw8PDweOhFg7CC03TfvMPfz8uygG1N8iVWZalqJ9N8mAYRlNUPBZbXlrsdrueG9Ddd8owTKqPJHO5lzP6Pdbrjb/827+TBGHZNrL31r9M/ApXiGOYZVuWZXuRXDgsvX61+u03r1OpJE3TYNO3MD/XbLX29w/L5cq1MxAE0eu5lmWP/cp9+JTj42cLKKiVJHFudhYma5Zli8WzDsq3oALoW6ZvjuPisdjMTOH1y9XlxcVYNOqFOP3pmGPz+VylWtvbP2h3ut5OAOyQe9PWEM2GBE7wPB8OR2Kx2OAeA+zlQF0Zz3PJZMKybG8P48r9ItaRJHFhfk5VVVXTeuhiDMO49U4lSZycmPjm9avJfF4SRW8H6P73SFFUJBKJRCODQ4QiBrPRaECkGAlLiKJ0L+p6vPh18AoHn+bi4vzL1RcLc3OSKELdAcsw2UxmtlCYnSmoqupdG5wBRpthaIahLcv2RsCHD59yfPzoipjJZtIkSbAsGw6H//l//a5zp3OXJIrPV56BFNvUxEToqnEZx7ITuXynI+/u7TVbLW8nYHRQFBmNRDLpVD6Xq1Sr184MdWW5bHZyIi/LsreHcROCIMzPzULfq+u6e3v7V0RfBpBMJv/Lf/5Pf/+rX01PT3Ec59WA3f8eYeLOZq7XBA5GiknUXlqp1q55sD5e/HrzaX7z+uXq8+eTkxOepzXVDwejhempF89XTNO8dm0w2iGk1daV5TE+ZR8+5fj4+afXcByPxWIXPeq2MzszY19isBEHJwiaotLp1LPlpbmZmcl8PhyWrhkhEwQRCgn5XPbb1695nj89LbY7HTgJdun0uby8JKKgQZKkiYn8qvI8m0l7Z4Df3nqdLMukksnVF89pmjo7K3W6XZAM6MdqopjLZdOpZCwW63Q6juPks1nvs7OzM5FIBCeIIDJZiITDU5MTmqYLvJBOpxqNBtq4cr3rJAmCZpjZwvQ3r14VpqfEUGiwYvgB99iPcsKF6am/+/bbcDhsmabjuhgCjmPJRGJ5aTESjhimUalUGYZpNBq3joMoisvLS4OjEU/EJybykiTdKgs9GL+6qEmpcHximKb3QPsXgGEEQaTT6Rcrzxbm5zKZtMDzHq3iOM4wTDKRePF8hUKVfuVKFarPwU4pn83xPG/ZVqfTreQqgwT/uSfo4xeXR/GVKnx8Dq7rWpYlK0qj0ex0u7qmo06VKwkTlmHC4TBKFIUFXqBpmiAIVJT76Ty9XqDX6xmG3u50arV68eys1W47SIENR/7WgUAgEY+vLC8zLHNWKlWrtWarNbglAL+9KS0DZ1ZVtVavV2u1arXWlbuO7QSxIFRhpVNJjuNsx+l2u+fnFVn5tK6PRiIzhUIyEUfu2ji6QkNWlGazValVO52OoZumZXrXKfBCLBaNR2OxeFTgeRzHB9tc7n+P8XjMcZxWu31yclqp1iDbhhM4RVI0Q4XD4Ww6QxBEs9VstlrtVsdrhLo2DtVqbW1jo1qrDcamkXA4kYhnM5nQZ5ShHcexLKsry7Vavd5otFotRVW966Rpmue4SCSSTialsMRcPs2B2wR7C61ebxyfnjYaDd0wem4PJ3AxJKbTKYqkZEXu/5+sQGn43U/Qh085PnxcJx7btk3TMkwDjHQGez9pmgqFQhzLUhR1R++np1Stalqz2VRVDVoOPQ0VjmNjsRiOYZ1uV9U0y7yi2Qy/5T4jMOo4jmmaqqZ1u11dNxzHCQaDFEVxHCshV3/DMDRdV5QrZMkwtCRKHMcSBAGUAFcIxKPpumVaSD/M8cKpa8cPd49wF6ZlKRdQbdvGcZwgCJIiOZYVUVryR8dB7c/79cE2GhzHvTPQNH3Hs7g5YhcfJ0mGYTiO5XmeutPrSNf1ZqulKKppmr1ezxsfHMdUTdMN40FP0IdPOT58XFm/9+fS3oXu2OA7EwxiONFf8AevhTafn5FBXgVO4n0GwzBIBzmQz0J/1fsg/PaOif5C1cZ23F7/zEG4MPxCFgx+614VIAhiGLpwfPDCPbWxi/tEuFDGvO34Ie7Rozekb+Y6bv+qYPQw9FeAuX90HCAGvaI2NHCGuy3Ab47YxT2ij98qp3brQgTJCLm9gfEJBoP9G3/gE/ThU44PHz58+PAxZviLDh8+fPjw4VOODx8+fPjwKceHDx8+fPjwKceHDx8+fPiU48OHDx8+fvHw1Qd8+BgzUNeLZdkXbT2oijgQxII4qj4mCQJ6mO5TVu7Dh085Pnz4uAu2bSO7VFnVVMMwoXOWIAiKJGmG5jlOEkXmhsOmDx8+5fjw4eNeGBQHqlSqZ6USaPZYluX19hMovgmFQslkPBGPx6IxSRI5lr0piaZpeqPZ1HUNSV0HwJ2TIimGZQSevyZB7eMOmKYpK4qu6aZlOs6ntlmapkRRBGttv0HVpxwfPr62yMZxVE0rnpU+fFxb39jY2t6p1epuD7X2B1BiLXAhMCCJ4kQ+Nzs7+/zZcqEwnUmlblJOV+5u7+xUqrXgpymSFsVQMpGYyOd8yrk/dF0vlc4r1Wqn0x1UB49EI7MzhWQiwdC0Tzk+5fjw8dUAFG7arfb+wcHm9vb7D2s7u7unxc86YzabLVlROp1uq9Wq1RuvX67mczmWZQbltzud7vrG5u7evveTcFiampwkSTKVSvpj/oAox7KardbR8cnR8XGr1fZ+PjU5EQlL0XC45/O3Tzk+fHxFgJRapVr9/s2bt2/f7R0c1mr1z9ntwLq7XK40m63d/f3iWYljGZZlE4n4VcrpfFxb/+HNW+8n2UwGx/FUMmFbtj/mD4g+Lbvb7Z4Wi2/evj8rlbyftzudZ8tLzpTjK375lOPDx9cEXTcq1ere/sHW1g7wDdiJ0jQtiSLHcZ4ftqqqbeQ3Cuh2u3vU/r9991fHcb/95hWVzXr7CpZldTqdQaccnuN0Tbdt2+25/pg/YEHQc23b1jW93W4Pjid4RniyrT58yvHh4+uAoij7Bwfrm5v7BwflcsXzR+A5bmpqMpNOi2IIcmWl8/NrfqOVavV3f/hjR+4mk4l4PO7vK/jwKceHDx93odPtbmxura1vVGs1oBOIb6anp7559WpqakLg+UAgICvK6ekZx7KHR0fVy0jINM16vV4pV1qtlqqoJEFcM1T14cOnHB8+fHxCu9P5uL7+cW1d07TB+ObV6uo//vbXM9PTXmKtWCqFwxLP82/evgPKAdi2I8uKrMg8z91trebDh085Pnz8QoFc3xxN09rtTrf7qT6NoqhYNJpOJVPJZDwe8xzVAsGAqqjNZnNre2fwPKZlNvtoRcIRFBH5GBsYmk4mEgsL871Ar1ab835eKEwnkwmSovxMpk85Pnx8NZRjmKZhGFesOZHQgCDwoVCIQjMaqNpgGMbzfDabyWYyLMsMHm8YZq3eqNXruVzWH9XxgkMRZyQSef5s2TRN7+e8wKdTKYamfQ0In3J8+Pg60Ov1XGQXfa3qye25oLAGDtPww2AwSFFUJBIOh8Ne7ydJkhzHSZKI4ZhlWbpuyLJsWVa707HsK8XQjutout7pyo1mC1pBSYLkOBbHcesSzgDzETjBMDSG4a7r2LZtWZbdv9QeRRL8pX6B57ptmqaF5OD6sJFWAoFTJMUwNLhHf04LDnqSLMtGZ7Acx+n1AhgWBKkFkiApirw5p0NZ+eeuGccJdIxjwWXbtuv2MCxIkiTLsiRBXDiLO45l2YZp9E/iXTNFecfANQcxjCAIhmVwHHdcZzD6IUkSjrEdxzAM0IkYfJTeCHt/y7sYEJKgaZr4DGMNnvNiVINBkux/iqFpYuAuTMvSNd3tuT96Tp9yfPjwcdt0YzuyosiybF+lDZIgQoIQCgnkZY0AQ9OpZCKdSoUEIYhhuq43W61OV65Ua9c6e+Cc9XqjVCpZVn+1LvBCJp2iKEpVVVlROl3ZND99hGXZWDRGU5RpmZqmdbqyrmu27QgCP5H7pF/guq5uGJ1OR1FU3TAMXdd0vf9xhgmJoVg0FhJ4kiQ/FwoAeSiq2mp3FEUxdN3t9QgCpyma4zhBECQxdPOztm3fcc0cy3pCNQDbcQgCDwmhZCKBCzyO4xBfyrLcbLXkruxdsyRJ3jEXVO30qVqWZV03HOfT47BYjqEZmqJxvGdZVqvdlmXZMMzBY2CEGYbx/paqqrbtEDjO87wohiKRyOfoYfCcMKoYhgk8L0lSLBrhOM67i06nU63VLMvmeU4Uxejnz+lTjg8fv2hgGEYiXNsP0HWtVCqdnJ7WG/VkMuGtW4PB/uo4Fo2+ePGcYRiSJEVRTCUTqWQylUqGw2HHcU6Lxe2d3fcf1pqt1s1zBgOBZqsZEoRAIJDP5xjmH2KxqKyo8Kl6/VPfSSwWW1pYIEni5PS0Vq+rqmaYpuM4E7lcSOjDcZyuLFcq1fNy+axUarXapmWZpmkafT6jaArkRzPp9OxsIZFIXFt9Q5tRpVo7PDqqVKqyomi6bpmm2+vhOE6RJE3TsWh0YiKfSiaj0QjPcV60ZDvOHddM03Tp/LzZammapuv9fzmui+N4LBqdnSmkUkmBFxRV2d8/LFfK3a6sapp3zYl4fHamMJHPJRMJHm2LmabZqDdOisWzUknuyt7fSqdSr16usixDkoRhGLVq7eYxiXh8eXmJpqiT09NqrdbtyrphOI6DYxjLMul0+tnSUjaT9lqvIGpUNQ1WBofHx41Gw0QhoGmYQSzIsmwkHM6k06lkIhaLGoaxd3BYKp23222O4+ZmZ0iSdETRT6z58OHjdsqhaZq+sQWtKOrh4ZEohs7OVjOZzLV1ayIe/0//9B9+9fp1SBRCQn/+Z1mGIkndMGq1+uHh8e9+/4eNza2uLN8859lZCYwPAoHA61er83OzkiTKigyf2ts/8I6fmpq0LCsYDP7xT38+PDp2XdftuYFe4NWr1eWlxWwmY5hmuVL525t3H9fWt3d2arWa2+shTTi3f2tBDMMxAieWFhf+r//z/3hJUdfuQjeMcrX67v2H//d//q/dvX3HRQlGZNMQCAb63IJh6VTq5eqLFysrz1eeUYib4cpt277jmrEg9qe//OXwGF0zQqDXPyeQxNzsbCaTrlQq/+N//q/d3b3+33Vc75rT6f4xr1++ZBgGKMfQjXKlsra28cObN6XSufe3nj1bAqanafpzx0xO5GVFDgaxf/3uu+PjU7hHuBgMw+ZnZ/v0Q+CZdNrLlLqu22y2PqytvXv/4f37D+flsjeqwUAQw7BwWJrI5+bmZleePet2uv/jf/7zzu6ubTuFwjTPcelUynVcn3J8+PBxC2DDICSGZmcKtVqtXKkqigLJHFXTisXSd3/93radlWfLUDIAPTc8zxWmp23H4TmWYRiPQtqdTiAQUDW1Vq/XB/rkvQSRqmnqZR12f0Ks503D7PV6ju3Ap0rnn6ZLt+eGQqFAILCzt1cuV7yfNxtN0zQ1pEC6ubX9/sPHjc3NOxThCJJYW1/nOW5xYZ5C8ZzruqZplUrnP/ztzfd/+9vm9vbZWenWz6qK2uv1bNuhqP6MjCIPDqKBu695a2dn8JoBhm5gGFavN2LRSLPV2rrt7xpG/xiGpqenJuOxGOzfgNBDtVob/FupVFI39B7ah/vcMbZjsxwbCAS2d3ar1drNGwz/uxToBdhfsxB39sO+SnVrZ/dvb95+XFs/ODi8Fqqip9xWUEax2WypquaNniSJuqH3aTvQ8ynHhw8fn0VECr9+uWqa5nf//legHEClWvnn3/2+UqlieD8Y8lTUKIqKRqOBQA9DeCSXtkaj+dfvfwBxhJu/7crKzu7eu3fvP66tnZycGgOlXNfQaXc+rq0zDBOLxcKSRJIkuAEdHh797l/+8Pb9B/lqNHb1r8jbOzuWZbGoDIHnOaCcYa+5f7bDoyOCIFAnk/y5Y0KC8He/+nZqapIZrcmp1Wq/efsOcYl287e1Wv2Pf/5X07Tm52Yn8jloCl7f3ERM/Ob45ETXb9HZ0/sRVbXZau/t7buu2/386PmU48OHj1vQj1oK05Vq7ePa+tUVt2kY9Z3dvX/9t3/XNH15aTGXzYQEgaIokiRuMg0WDBIkIYri9NSUpmmeQgEAatt4juO4C3+dqclJjvvsDG5ZVuvGEhtFEj3LtlFv0Pb65lalUoXICRQTWJbFcdwwjEazCZ2tqqaenJxGI5GlhYV4NBoOS5qmHx+f7OztnRaLg6ploVAol82wDKPpercrwxlk2T4rlT58XEOkmwgJIYh47rhmlmWTiQRJkrqha5quqipoCNm2Lct2IKBAoUEiHv/cMd1uV9d127LGoRId5DkuEY9blnXtiZim2UAwTRPq087Py2vrGx/XN0qlc1lWvDGRJIkkiE63e3R80m63PYU9eKbxWIzj2OmpKVEUCZLAfu5GsT7l+PAxEliWzWWzMNve/G2lWv39v/zhrFRSVdWx7anJiXA4fGsBGIZhNEUlE4mXq89xHP/bm7eDExzUtmXSfYQEHu00TEjSg7eaXdc1DKNWr69vbm1t73h1cTzHTU9NJZMJhqYbzaYnpoBW5ZXjk9OT02I6lWJZtit3t3Z2tnZ2u90rK/RYLPqbX/9DMhGvVmuHR8feGdrtzoe1dRzHF+bnUsmkhBTn7kBIEBYX5gVBaDQalWq1VDr3ZOvueQwUH1+reB4Cg2Muy/K1J3KFLE2z1WqdFIsf19YHRxXGZGF+jue5w8Pj//u//fd2u33r+aenJpKJBP0LaE31KceHj9G+Qqj0OZ/Pf/vN614gcHR03BqYVkzTrDca+/sHAs/rut7udKYmJ+PxmMDz17JqBEmGQqFsJkNRlG07O7t7g/sKNOqin52dmZ+djUYjgUAgEv7/2Lvz5zbO+wzgwN43dhc3AfAAT1EkRUl2E7vJNE3SmU77Szv9TzttMm2Spqkbp0kkW7Ik25JMkSIJkrjvxbG7QAf7UmsQFCnKYuKYfD6d6WTkBfRiSe2D9/q+Opn5eK1RryWk6bpuGoboLTsm+29mpjPBYLBaq9Xr9fHxK0VRFhay89msLEt7u3u7u3uFYvFVRHlLhKtVb7eQ3W5b29s729vb/stFUTQNY3lxcW31RiIRLxRKwSC1vfMy4L2D44y6Hd7f2LAs65yxtVBIm85kFuazqzdWREE8zOe/2tpqNJrjo08XuWb4avHYO0ZOSA/d2thYWlyIRMIVbw6M47hiqXQ6eGzHaTSblUqlWquR20Luf3Z2dvXGyo3lZVEUZEne388Nh4HDoyMyKkiGWGdmpleWljKZdCQcVlWVYVlEDgCciaxbm86k/+6nPw6FQv/2s5+PRw5RqVb/eO9+vlCoVKutVnv95irPcRP7XViWDYVCsiwn4vGO1flv9aOJCIlGo9m5uY31tYR3ShvDMDzPt8/43j3qtUzPLC8vra3eiEajZGq90ahTFM0wTL3emOg6qKqytLh4Z/OWqiqKLH/8+z+M/1cvNlrNZtOxnbbV3tnd3Xm562/mJ32OWxvrS4uLsWjUNMxmqzUx6EcqA3U6HXIs92uRtXx37tzOpNOBQGA/l6MoauvFdiCff6trLkvEDH/4/e/dvbPJ83y+UAgGRyHx2r6OYzvNRnN0f17txCL3f2V5eWF+fmY6483aUR9+8D2WZT767e9I5LAcq+v6dCa9dnM1k04zXlXXK18NAZED8E7IujVFUWZnZnq9frVW03W9UCjWarX2qzkGsjEwuBdkGKbf73e63aWF+UwmY+ihryviBIMUM3rsBISALEsT+wHJsJssiaqqhEKhN7ZKVuRsdnbt5uqN5aVIJOz1t+y21W42W/V6vVar9fsnIserC2fEYzFJEuOx2OzMdKFQ9Gd0Wq321osXpmlMZzKW1Wm3Wp2xtXNeWGqmYaiqIsuy7Tij9jP0ROS0LavdbruOQ53xVBUFIZlMTKfT0WjEdpxWq6Wcug8XueaycDwXDpvxWIyiqF6vN+pWKsprS307ruN9OstxXP9+mqYRjYQ1VSG9TFmR47FYNBrh+eMZpl63VygUypXqqKOsKtdlVACPDIB3R/ooy0uLsixn5+b+cO/e06fPJuYYmq3W02fPK5VqPl8ol8scxyuydM7e/nehyPJ8NruyvJhIxMkSXm+Gw8wXCvl8oVarT/RyaJqWJEn22hMKhVaWlureWrXj+RivWjbLsas3VhzHcU72VEg1GpZlqSAVDAZomqJPrcQje3Fa7bbjuNwZn5eiaUEQBVEYZZLjfONrLu3LhJf0F1lV+KoP1/X7cF6dvRE/omiyi2usqhv5fdB1/Uc//MH1+ZeCyAG4jOE1r4+iadoMTZMv3ZqqPv9qK5c78PsKjscrS+ZyPJeIx1mWScTjiiL7NcEuMQI1TQ2FQqJX5mCsN8MOBq5t2xOlSF3XtSyrXm9QFNVqtYKj5yNH0dT4wFrbW4UVj8d+8OEH6VTKf204bC4tLqRSUwzLWFanWq3W6pOR5npzQr1eb7zQ2en+4nFcndunfOM1l5s6F/m5nF6wEAwGGZpmGPrrlweDJMDGY9hxnPapwkiIHAC42IPeW0owPZ1RVWUqmYiEw48ePxk/SsdfA8Z59WBYlhFFgdSOvPQI5FiWO1WM5yykmnXu8CAQCJZKpUaz2ev1J3bC0wwjSdLSwkI8Fh8vAcd6dTPJ1/larXZweJQvFLpe3bOvH8rHpTyd4woFcF0hcgAu70uxV0VNliSWYShq9A2X5zmGYb7aepEvFMhaJrIGrFwqf/HlU5ZlFUWhKdowjIkTDd69KWRI6IKX1+q1Bw8fFgpFb+amdXh0dHiUn4iNoDc6JHvInxyfGNTt1uuNUqmUOxjFTb5Q2Nl52Wg2T/YDAkNS++Uq7q6nKJrjeG6sX0gqf3e6PfdVbA9ctzsyedQFIgcA3vEB5JUbiERkWTINQ9M0VVUmahOQcXzXdUMhjQzxX3LkvCVvL/3HHMuRx2W/75X4PLsqgR85Pa803NaLF48//+L+/U/2cjnbtnvd3nhtnqv/GKUpSRQkUfQXMpyuJn78J+3rNYyGyAH4kyMj+xQVVBVlaio5DAypIGXbtihK/p4MMo5/cHj48OEjlmENXVe8YwK+rZ2A3l76/sWvdxyn1+sVisVnz7/aebmbOzjY3nn5fGtrvDL0NfqSQdPCCO//+LqdzsHB4e7eXrFYNAydYZh6szHqARZL3VdjkpJX12BmZlo6tw4QIgcA3vzdn2ym0VRVmJuTREkQBFVR/D0ZhF/Fa3FhPhGP+Yen/eUjy76/+PLpv/77z7744mm/3+/2ep3r1LMZd3o1Wtuydl6+VFVl7eZN3dAlUayUK3t7+wcHh93O8XBlSNPWbq6ura6GrvqBBYgcgMvpzQyHQ9t2Ot0OGaYnx225rqtpWiRseqvRFIZhYrGo67qDgdu2LHIeDAke27brtl32dq232hYvCN9W4ITD5vLiYjgcPueahflsOBwmx7Id5fMPPnt07/4nT58+zx0c+NfIshyPxQKBgD93dS0eo97RR2EzHPGKn5L9WJ1RR+fgj/fuFQoFnuer1ernX36Zz+e7ve6rXo6YSacymbQkopcDABfr0HQ6VqFYLHpHDrzY3r7/6YPhcHj71satjXVVVRVvT4wkitOZNMsytHeg5Ee//Xi8r+PVRW632q1vUDPtsqRTqX/553+6tbF+zjWCwOuhEDnTc3vn5X/+4pefPHg4UWnN0PXbm7cCgcDE3NXVxrEsOXstnU4ViiXv5Fbbq7BX+vVvPuJ5jgpSjut0rI53cvbxXA7P8/F4LB6L8QKPyAGAN/dyBoNBuVK5/+mDF9s7jUbz4PDw2fPnkijNTk+PF3ehPeFweGF+vlyufPLpg/H3cVxvm2Sr/S1OLAs8n4jHZmemjw+BbrU73U6/33fH1km7LjMcDru93pFX6HM/dzg+c2MaxsJ8dmlxcWVlqVKtPnr8+Pr8JtA0LYpCOGxm5+bK5Uq9Xic130i16dPXq4qSTCbWbq5OZzKmaXxXRlMROQDfcuS47iCfL370vx8/ePgZqZvZ6XbPGicReCERjycSCeFkzWnXcdreQf+u4/4lfK5Ot3twdFgslOqNxvj+m1g0evPmjeFwuL+f28/lJmZuksnEP/7D32+sr3Es9+TzzwVBuD6/CeRIcl0PLcxnK5VRZ/fUCXMnGKbx/nt3/+q9u9m52VAodOXrqiFyAC4B2QlPUdRwOOz3+35FNcuyXu7uxmKxxYUFUqGLbEFnGFqWJVmSGPrEvzvH8eqPWZbjOn/6NlM0zdAMHTy5f3/oHaUzGAyCwaDdt2vV2svd3Z3d3Vrt6xKlC/PZVGoqEAh8+fTZ06fPmq923pCVVyvLS4sLC5l0utfr8Tx/5YvwT3z58Gb17Eaj2Wg2/aGzcSzLypKkaZppGosL83dvby4uLOi6zjLX6yGMyAF4p++2iiLH4/FYLOaP4Ncbxydp3r29OTsz7VdRI9ezLDNRrsV1HcsaZc6foZfj1UNjSD20iafmwEPTNDn3cz938OmDhweHXx/23OlY7793NxAIPHrilVTonlh5tbG+HotGeJ4/fbzNdTAYDJrN5tb2ixdjxzqc7OPysVgsm51bW72xvLS0MD9HTpm7bjcKkQPwTh0dSZKmkolkMlGtVZuv9tw0W61ypZIvFMrlimmeOLGm2+u5J/efe+XZGIZlgmdXDhsOh47rOu987JhXvlOUxMkSO+5gQBbdCQLf6/dL5cpRIV+uVKrV2vGJOKahKMpwOOh0uo16Y/x8Gm8mQyTHlVLBIJniCgyvUWGbfr/faDYPDo+8LUqHnW6H3DFvDZspS1KQCkqiFA6bU8nk3OxMMpkMh81rNfaIyAG4HKIopKaSqank9vbO+J93u92jo/xRPi9JEokcEkXNZss5OfDCMLQsvWbA7cSX6CGpUWYP3q1GGcMwsqzIsjx5uIC3Ds2yLJZler1ecaTkT+SoirK8uLgwP8+ybLVam4jM8baR+S13cL0qqXV7vXy+8HJ3d3d3r1Ao2LYTiYSXl5Y21m7e2lhPJhI0TdE0wzIMy7ECz3McxzDX9NmLyAF4J4IgJBLxRCIunFzq6h3A/GQwHFRrtVg0StN0s9Xa29t/9PhJpVqdiAHVw7DH/x5ZjtN13d/hEQgEOlZnb3/fMPRIOEKSQBQF0zDetrUsw2iaqmnaxJCO1ens7u1rWkjT1P1cbnvnZaFQ7HWPI4ec/hIJm6LXPZoorjzetkq1UiyWXrzYIYf/XxN2367VapVKtdVq9Xp9/0/2cweCIJRKJX8+T5KkaDSiKirDMDzHiaLA8/y3WHUCkQPwXYscnk/E44lYbGKcpFKt/uHe/VzuYH8/l0gmBJ4vVyoPP3u0u7fXPFnykhxxFtI0lmH994zFouPzQ6QmW7/f53m+6B3wTNaP8fzbbekY/V2aFgpNRk6z2Xr2/KtutydJYr5QeL61lS8U/EXbpB+meAeGCoJAn3w+jrdND4VI8Zv6qaNRr7Cv+6+v7hi5Jy9f7v7u/37PMIyf0clk8u7tzelMRpIkXQ/FohFD179DVScQOQDfMpZlNVVNpVLrazftvp07OCBFlG3brtfrQ2+I6eDwiOXYZrO5vb1TrdX815IR/7nZ2dTUlGkYHMf6PadkYnJ+yHGcw6Ojzx49zuUOyPqxTCYdjb5d5NA0LYliJBzOzs1WKlX/JP92u/1ie6darZF2lkvl8ZqePM9HY9F4LC5LsqZps7MzhWLJf+142yRRrFQrpXLF6ljXaLDo+EA22R8uOz4L59Q6AvLTHPV+eF5RZF3Xk8lEdm42EY9rqvq2XyAQOQDXDjlPczqd/uFff8hz3K9/8z/jdftJra393H4wSLmuO77NxZ8jWV+7OTszHQ6b/pT+WfND9Xrj8eMnZPyt2+1+8P3vRaORt2otqXIdi0Y21te73Z5/kv/57RRFMTU1lU5NybJk6Pr6zZuW1fFfO942iqbI0/a1C4WvKl7g47FYPB57Y2aQu/SUfUZRFEVTDM3Mzc3+zQ9/sLmxMTc3g8gBgDfwdufQmqbNZ7N9225bliRJe/u5RqPhH1F8+lVkL8t8du725q0by8umYY6PdImimE6lCsXS1ovtRqPhz+iQAZxXQ2FN5+2XI5PjRzVVW5jPttvtWr3uDgb1er13qign2Uei66Gol0+ZVEpVFJZlVUWZn8/Wm418odDpdCbapipKamqK53nL6jRbLfLO/l6lRCJ+Y2XFP27nyqAoiuM5juP8KRly93iBZxm27/V3yX0Y/wkSrutKojgcDERRICsLrvbOUEQOwCUQRWEqmWBZRhJFXdd/8av/IpFzFrKXZfPWxsba2nQmrarKiUASxUw63Wy2vtraqlZr/ozOZZFkaXZm2rbtaq1m2/ZXW1sT3Rp/H8nS4sLdO5urKyuZTJrn+WAwSF7btqzd3f1GoznRNrKv3jSMw6P87t6e/85kr5Isy9+gZ/ZdRO6eaRqyJDVbrdfeYYLM+fX7/VQqFQ6bIU1D5ADAhQaswqbp115bXlhwXNdxHNuxx090phmGrDi4sbKczc6l06lQSJtYMuvNDcip1NR7d+6oqrq/n6s3GuQ0SerVPtKVlWUtNHo8CaIQj8Vura+PL2Cbz2ZN02QY5rVLoViG0VQ1k07dvnXL65cky5WqV+t6QAoQ0DQd0rRkMjE3O3tjZSk1NaUoCnkr8tqZTPr99+6EQprfNooKsgybTqfevztqcyx2GDbNsGmOryOYzqRFQaCCQUF4Q5sv8rkucg3Hcrquz8xkrE4nk0691TXkDpP/fdY1y8tLsiyXy+VPHzx8+Nkj/8Nqmra6upKdnVUUpdfrLS8u1OqN45JInU6lWs3lTsz5lSuVer1uWR1ZlnkMrAHARXjTJFFZlmemp5vNVqfbsayOZbX7Y/0AURANQze8RdCKt1TJW9EUnAgwlmWTibgif7CyvJQ7OKjV66Q2Ac3Q5NEfjUSi4QhD04osz87M8Dw/PmJDChuzLBcMUmcFZDwWUxRlPjtXLBXrjWav1+v3+67jBqmgwAuapkbCYcMwNE0VBcH/6k1eO5VMqqp6Y3nZbxvN0LIsR8JmOpXyapiaqdTU6o2VXv/rb/dh0zQNI0hR8qirdF6bL/K5LnINL/DxeIymqVQqNX6u9kWuIXf4+Cd7xjWmYYRCof393C9/9et79z/xm2Ho+t3NzTu3N1VVYRim3+/3ev1ut1tvNIrF0pPPP5+Y83Nd1+p0rLFSsIgcAHhzX4dEiCxJ5Cznbq/X7XbHS0TzPKcoiiSK54/aB4NBsmNDFAVFkS3r+GHkb4uRJFGWJW9rp0wFKVmWxwe4BIH3Nt9MFtfx33zs/UVNUzvdrt23HcdxXTcYDHIcJwqCoiiCwE90lchrBUHgOE4SRb9tNE0JgiDLsqqq5FZommb37fFnKPksrNdmmqLPafNFPtdFruE4zjQMr1N1oiUXuYbc4eNezhnXUBTlum6pXM7nC+WxotEMy2iaahi6IAikihrp4qiqIktSpVqdWFLv9YzdwTtXl0DkAFzH4PHqqjGCwCtDZehtyh9/ZNNeNdCJns1rg4GiKNELJ9cvIfPqZRRFke6R5O0nDIW0E38LNeoEnP+3kPcXvODRSOWA4ZD8LaP/EKRI0dLXvsNr2hYMUt5HIzmqh0Kqqvpv6N8ZEpkMw4iCcE6bL/K5LnINx7KvbclFriF3+NXA2uuvabetQrFYrVb7dv/0PSKLR7reDSS3l6IoRVFU7+C+6/mvA5EDcPm8XAkGAtRlvA99/nzyGy84//1JeFx625g3PVPPb/NFPvgFr3ljS97lml6/77qu7diDk0WAqtXavfufFIulieuHw4HrDl7u7tXrjYnb5e3sufpRhMgBALhkR/n8z//jFzx/qqbAcPR//V5/ogIFx3GGbhiGzl312tKIHACAb/oApWlZlvSQHgmHdT3Ubh/vUup5LvIOuh6anZm5e3szmYiPL9O4qij80gAAfDOkZl0sFk2lpmLRmPD25QNi0dhP/vZHP/3Jj1OpqetQ3xO9HACAb4icFZRMJG5v3lJkZf8gV63Wut2ubduu61qWVa5USVkHlmVlWZK8UyrIej9REERRnM/Obd7amJnOyLL8xhUlV0BwOBzi9wYA4Bsg69C63W6tXi+VKkf5fLFULJcrrVar3+8fHB49fvJ5wav8rSpKciSRTMQj4XAoFAqHzUQsHo1GTMOQZen0qRCIHAAAmDQYDBzHsTqdRqNRbzQajWan07Ftu1Kpbu8c1w6XRMkMm15FBiOkabIsa5pGwuasIhGIHAAAeH13ZxQ8rndauFc6aDgcOo7T6/Uc1/F3+RzzTgmlaZrx/v916NwgcgAA4M8NK9YAAACRAwAAiBwAAABEDgAAIHIAAACRg1sAAACIHAAAQOQAAAAgcgAAAJEDAACIHAAAAEQOAAAgcgAAABA5AACAyAEAAEQOAAAAIgcAABA5AAAAiBwAAEDkAAAAIgcAAACRAwAAiBwAAABEDgAAIHIAAACRAwAAgMgBAABEDgAAACIHAAAQOQAAgMgBAABA5AAAACIHAAAAkQMAAIgcAABA5AAAACByAAAAkQMAAIDIAQAARA4AACByAAAAEDkAAIDIAQAAQOQAAAAiBwAAEDkAAACIHAAAQOQAAAAgcgAAAJEDAACIHAAAAEQOAAAgcgAAABA5AACAyAEAAEQOAAAAIgcAABA5AAAAiBwAAEDkAAAAIgcAAACRAwAAiBwAAABEDgAAIHIAAACRAwAAgMgBAABEDgAAACIHAAAQOQAAgMgBAABA5AAAACIHAAAAkQMAAIgcAABA5AAAACByAAAAkQMAAIDIAQAARA4AACByAAAA/kT+PwAA//+5WMug4cI0egAAAABJRU5ErkJggg==;sketch=1;curveFitting=1;jiggle=2;" vertex="1" parent="1">
                    <mxGeometry x="-742" y="84" width="171" height="147.38" as="geometry"/>
                </mxCell>
                <mxCell id="17" value="" style="shape=image;verticalLabelPosition=bottom;labelBackgroundColor=default;verticalAlign=top;aspect=fixed;imageAspect=0;image=data:image/png,iVBORw0KGgoAAAANSUhEUgAAAVQAAAEECAYAAAB3HMxCAAA1rklEQVR42u2dD8RW9///v263JEkm07dzfXJLZjKZzD73Oe/zPvVNMklmZt+ua/0mk8xM8pFkJiaZzEwmk8nMTDIzyczMTCZJMjPJJO2672+SJEmSZL/X633Odc7777n+3Pd13931fPB2/Tt/3ufP9Tqv9+v9+vNf/wUAAAAAAAAAAAAAAAAAAAAAAAAAAAAAAAAAAAAAAAAAAAAAAAAAAAAAAAAAAAAAAAAAAAAAAAAAAAAAAAAAAAAAAAAAAAAAAAAAAAAAAAAAAAAAAAAAAAAAAAAAAAAAAAAAAAAAAAAAAAAAAAAAAAAAAAAAAAAAAACeGCbfbIy0m9GL7Va0b6LZ+HyiFX1Er69MtBrzcHYAAKBHSGguJUH6LQnQhyRI/6HPWot+n2hGCc4SAAB0od1sLCdBekkToJZAVe1uu9V4FWcLAACCwjRaQNrnWRKW/3TaRKDRsndJ2KY4awAA4B/qHyQNtdRMlVBtVoK1+q3zPmqTNvsszhwAAOjCtBmtJLvp3QlNM8211MjRVA3ttdn4+u9WYwRnEAAASu00OjKhaaAkYC0bauT9jQTuI/q8EWcQAAAI0jYXkYC8WdpOm9E/7vsof1+2hr7MRRKqC3AmAQAQqK1ok6GFNt3Z/bbzudBQlcBVQvd9nEkAAIb7zcahidJeGlm20+rzhPHaMJal7+6Q1roSZxMA8LQL1F8qzdTTmjXfNfUWfU8NE1QAgKeTv5vRPNIsr3t9Ta1XtzlO/4/ouy04qwCAp1M7bUVjNGR/kAvHqDNzb83u6023p7rLkPC9TN8twpkFADx1kHDcoA/f283Kgb+tfWdGSVnvm5UJoPjtIM4sAOAp1FAb/wnE69ta6KOa2P5q2dyd6h59fh5nFwDwtAnUL/Whflsb8pevzegBCcn3aMLpkb2ctoy97g8TrWUzOkFF+1xCAj2lY9pKr9vaebrB5bjKAICZEULNxoXSSV9/LZty4r9MAmoete8mWo3Ksd+7fLneo2FnpGq/2VhE+1lP+/mIhP05Dp21+s2a8/3ciyF6CVcbADA87bQZLaR2y3bkb1vDeBJMJwsNcAW1OyysHOd/v2sVTVBFC6dP+EfzaLsvUX/20PufqJ+3w+5ckeHWpcwQJHxx1QEAwxKoq0jYPCpn6Zv6UL+KhqJ2oDIRRO/rs/vtoF21FGgHBhegy0aoT8+R8NxJ2ztBr9fauWtWcL9tKweB4bHQjC7/35vLRnHlAQDTL1Bb0RvhsFItGqrZeF0TwgtovYtuNJUZUaXnTaX1n+tDC12m+tVsfEHvWcN9GBLW5f6bZt6BCaNPxQOi2dFaoxdx5QEA0w4JmoOd4Xsn6clES7NBlkIqes5cr7GpzZqtva5mV9V/o/enQhFUJOAW0/ZfycNfo9+p3S9yrZq2UMMuqv8WaS5f+udIc+UykrqgfAsAYAgClQWdkQzFHPoXwugWtYWWQB2h3741ltVsl+1mZNkylXeAmqCiiaQF9Ns4/fYBffcrtTtVOkBfusBIs4NGlq028qQajPzhsZWGuxpXHgAwrUxui0goRlcmasqcFELqvFezbPIEVeNOt/W1IIDbtM4vRZrAR933O/2NBP2NdvNfsKECAKZbO20sJQFzrxqud4bL1efC7ngstA36bd9EuWy1jXZT03Tt753fG85yxjot87sJazttz3qdbbaN7SuB+hGuPABg+gVqq5EY2aI0bdJKHr07LFDV8P3ihOWLqoerGttsWglX9JDXlqcfrcrPdaJpzuTbfXVm+a3wWFrmBr1fgisPAJh2SODs7GmY3Gqs7yKYXxnOED4abD1vCkIOMojewFUHAAxLoB6ZsMJM21oIaTEkZ5elZT2YD05U6zWcbZmtoYWoNszlPaGv5rJRT8varlx0HJ/iigMAhjjkj05X9kaPdpfbHtuTFJ3Ug/lgLJ+tN5JNG8mnjaxUTe++uiWx5qioH2m50xOWbdTMehUZ+8xzCjTm4YoDAIbCZItDOKPrZg0p31A7+qlnAd1s7G03Ncf+Zq0Z4R+3hpWzDGes+o1eD9B2Mw5hpeWWc7SUr+5V29N/6ssfE81li3HFAQBDHO5HYySYHvqim9p6Ab5W9EkfGi9NUEV/to2Q1YZnu75KAGpZNi/8ScLzMG1nM23vGWv7i0iI/u5GSkXmBFYVbnqNk2fjagMAhi1Q36qdyKkik97q04ywsc1O/N56U+5Qn7Z/lQToVyQEt5Hwa3DAgG+7f7cao3kQQuRu17efVnSX2su40gCAYQnRZ0nYseD6jt7fr+L0rXBOc+JoTd/7aVUTVG09jDUPZb1FjQXjLvp+VbsH+2xhTjhshpqaPqpt0/+Vo7JexxUHAEwrJHDGSGN7l4TYz/R6ryM0tZBQ9301w3+XWt/2RxJqy2m925od9DRtbz+1lPa9YIDtvWdWC4isEFM9RFUJ7X248gCAKcPhpCS0XiCh8j4JmfN58T3XhumzaXoqm178u7V8oIz7bY7Vb3LCk2hKE0JttqU282No10xwabbTYyhjDQAYfCi/ddkoCZFxEjyHSAu9RO2h7opUhWY29OxPVfin4bakh3Q2Tsyqdt1srFauUs3IyjilhapqiVFImHJWfrhHAQD6FKItVY5kPQmXz6i1J/JyI2EbY6v+eyO2vrKrvj+Lx7eM+nbV6HMncMAW/Pnvlya2ml4BAABQI2RUYudNnKyEBA75kPYa7hkFfEDDw+hC89s8K5ppq7GQBOTZsO+q08+bE1a+VgAAcIVoUxWhe520sOMkNG6ZrkKRmWCkZSULqYtSMtPqmU7y+fIPZsOH8+/mv0bpWL8tTRMtq+9uJNV9es1wpwAA6oa8L5FA+5IL4vn8Q/VZbX/EUah4XhR4LYX0JRLGh+j9mlk67kNtp7+hJCns79qfnywA4KnSSFVBupPtwk3ILJZnD3/NZCRmBFLkrQ9lRhkVWZia0XlqH9B3q2Zzhpz6s6NTgM/te+R7UHyIOwYAENDOordIO7tr5Ah1ZuKtsh++5CDeCCijJMkDar/StnfxsL69dfbdjKhf64vhu2mCaAbi/ZuN41eby+EeBQDwamfbi1R5A5b26JYPVNWkP0VCdDu1Zx8zrfx56vOtbglVtHaGjmEB7hoAgE+YPkdD2rtOLlG9jLPzarVmpGfY77ynMM/oaxJSr9N3ix7LY282niWB+le7ZWfq9x2r+v0KvX8Wdw0AIKShHTXqOFmJlA0/zGbDqMVUlm6uhsWT9NvntMzGv5uN+Y/5g2R+W4WlmjWlOkP9tl2FlcNZm9Eq3DEAgIAwbVCUU+Oyk4Wpiw9mGTWUa3GXitlxipZqzImKnpMtCpFtNb5uN3suZ/KAlt2IOwYAEBao5MSuyit3hvta1nrjfUdrNSKa1DIcu75wDj5IPpjQCu2Zrl+RU2yPHho7cbeAOUGapiMiyV5Ik7Uvpkn2okjW9hwPnWrr8auIs1VpLPuaMBBi7ajI91vsP+t79lbEcplI5Bba9/Y0kZupH7VhiLSvUVqm6HfW8C+TPV8ss6p+3+vybcV8/Gs75yF/TbLVSZIFtUYSKPPbPEz31EaqrZ+k1WriSCH6zEmZX5gbD5H/HqVjuN3uUh+qPP5m4wz+pWDuCNRErieh8ZDaP9xIOPUUeSKTbDEtf7ezXr4uvcb8nTyQimy0R2G4jQTPo3IbSbaij76voX3+SNt4lK8rO/24T21lzT5fKvsdZ/s8v7OQvJEvI3/t0v81aawdv3YueBt1ArUQqicnQrP0zYBTvzdxs/IpPUPv3yKN9rGeBad+fmFHcLUDx0ffc2jpIvxTwWOPFHKUtLozulCkz7t61E7XGOtZjYTJrh62MZ/aZXP/2Ws97T+W75AwexDug3wmrKFm27UHyGbPthvatg53OYa3jOM2zkG9MC6Gv6/6yoaU9ejdaCa/TdX0O+Uw1SPtWYp46uGYl+f5WU2Thp2DoN0sE1Tvx78VzAHtNHuNBE9Hs1SN3h/rcd23OhoZaYaH6XUnCZOjHW2TvjvXXShm76WxJQhj2TUChvbRqvaj1jup+kPDfvr8IQmyq120yk/VsdI2qI25v2ebym3H2Y4uffmkeBA8pL7vo9edfC5Ui7N13bW1BsWvN34Nh1paiZ+9v0fe5Yoh8zl6v2PizcfL1sr1qnpN6kLn585EE+5S4DGGBMF8EkB/5gJV3iZhcIMaC8LzvWmI2ce8vGrFMJ1e51G7XWznL2qjNesvoj5cLwT5JPXjnlovzr7vIgyfLfrLWigJsWyrZ5klXbTbn/N9ydtx/D8jnvX3FRomt/EuZoef8vOQ3aI2UD7Odl4077rrf2n6ZPqSKusJUcwidVbYZpPLPEefD1LWZDgCtfFsOy8NbWXAigL+t41P8K8FvQ2942xUiHSU/pwjMyhQd4hYdjTMj6idKjQtFgwLu69PgiTXKG92JqKUTZOEnMgFzC9dBPL+YjnWBN+ldS8UwplNACM1AnV/Wq33Yf/HLWkSTl4vtOvz9EoTWlrLP3+nhGmSPaC2uEaY0gNEtvmhRH26oG+Ltr2kr2EwCbo2p+VreurU6599dlU92bJe4sTzW+HPep4+72zPsm2S+rDfLboXeV7V+3t0fpZDWgBdiCylPyoNV+URaqfpj9emdr8QDizYeHLoGtve6PUj+j6N47UjQ+jHQhICVwuBeov2+yy9flwM+Vkre75u/SRJWChNFlrcbXr/NW3vBLVb2jB8e42GuFRpmbmt8yq9LqB2vLC98tB5cc26F4p9PEi6zOb7hWD6rPDZfKshvv7dlXptOePz9shvQ5bf9S1gWtEKEnJnJ2rciYL1lFqe+HdnPVNotXm2vRklsyhQF1MfboRrW9laduMLSJGnfWhNw0AelpLQYSH5MLdXyuqPa7wv7Zj/FMNfNXRmO54YcDgZ0NL2FMNZ3v7BQtt6W5udfqPLMJc0MHlfEx7layGUvpU1s/zK5loet3ynMBfsL2fLkyyt0VDvFQ+fS2IAjZ69GoqHhn8yy/z++y7bWleYDjwCWg40kTL5v9FomwvrkTtVuzblXqT5qla+m+2mU2zPEaiFP+slElSZNWpZPONCtRXtNrXuyJqM07JjNaOH1PfnIVWeSm1UjpCA2EZ/3itqSFi2jrCsvisEW/m78b5Yjm7239lFZ8r9SuQS2tYNTRD+Qvv7jr4/ownGg/XbyNaVx0KClZa/W2i6Z6jtkGmtMF1J5+Sedk7I1KD2f6E8F7F817fu+n+vp3PKglwt06bzO4DParZbO7+fsdsUve5Tr/n7z/PzrfZxoMu53KUdxxF9W+zbOzUbY7SABM1OEiIXjTLJTn2ohlZzyVzOTNTcMQE0ONvUoUktwQid04V0vGwT/3zGbanNxgLq21XdRFGWszaOpzyWE5AuT5swpZnjQlAZ2ouIpaZ9Vu/TjsZUvreXKX08yTwg356axiw/0iZcNP/R0i7J35/qso33NI16XZ/n5uty351jq4Rzp19HawTypVJ7j7M1A1ybY6IzoeVxreLRRKmldtHUqS9fpOV1yZYO4176+38bIyRMNnERunbua2oK0ZYpNI26UkbEkZroukDrvGRdyw3ULhc25VmpI0V92lG6SBn1rhpm8pf8uB49ru5gYDhD/E2CbYn5cLYUGvaw3hjym36YtZ9p+498zug9CtPl1O4UApUmXOQNveVCJrcdpkmtlvlFsRybMHoWJCJ3xH9YnBvWNDv77bRHxW9na47h4+q8yIvUnufJPNoujwieS7v4v9Lv5wrh3Q5onR8V26e+yFVdtnW2GFFMJvHaUT5nHNCQJtnocARP9CIJ069IyNzvL8VfRD6f0b7JVmOe1vdnqJ9flDbg/HxunR2B+q95XC0gVCbaU+blR0iap2OY/zb9sR9oN6jHRhcQnEmX7832iLXEAbSzo9qEy16PgDhd9OGBGJdLa47zbDWhJOf1IdB/0LT1luf3y0XfeMJqXtB+y54F2rlI2UUrzq7mNufsm9D+2RRBy94tjvGHwLGdKvpwV4jwsZEQnS+KSbgi0uxmp7FJhX4bWuE4Eo7LSMgcJGFzoy6RSuF2dFrP0pTE6uHzalpMKur3HfV5fLb+O9TfN9reKgORM0FXTFKhltSTrZmyMJWPhD5U122n5fee5vldG/4a7ytXJ+XSs6EP2+kqZe/MHfkn2Q/UIySOiqS0567zC5y185VrVb7MT308bNazBlr0/w8Rp/M8Av8HzWZcEzqapdSHG1pfy/PIJo2wEMxWdtahdsjzO+c1uJL/nl3ocj5XiMS8htrrHdFnToMBNdaFpK29Q8L10kQZVVQKH0539y61Ue38slvYCZE/kG07/UPq+7LZ+v+0W8vJtBGd113D2s1QmK06vjPUkLX/CbWZ8jD/gWELTHTbYFb8iTsuRbKaES9nx2UVi25MULnrVpMm7GKVLe9RoG6ndcg1SR4XgaEdff9q8Tu3DYFjXULLfFMss70Pgf6ftNg/tY2BZd4W1TJrupxzcvAnz4Ak+42EKwURZBRCq8wBK2q0yhc7x8ez/Z7f2a/0m2KZXV2OZ7V2PMe17XKbUSf0iTeXccKRLSriSk06NTg7/1jZV6EmSOn6Kw36n+qhkmn3m5qonNUcAKR5vsJ1pbwBC80qefZE9XkzpM+Tp5nSrHVhMy2b9A/57WWc76Vrb00CttcqZv1X2v88XAmghGuzscS6P1dwApng/VN+J/+Y2v8ge17U5E/oXajqYbiNQNXT0gXsDwqphZb65GimSqM5qz/1DQ0ycTVPYWikIQ3V1HKN9WNpaq25eQHJI4DHzKKi4e7o91qqaadCT+gSZyenMEJjv2Syf1ejGhJ4HAX1Dmmdz9Frz0KPtM5UeTO0dPewhuYW1jCqF9BrC1f6yblh93q1y9hMOOLO8ktreb8XgPB5AGiBAIWD+p/0eTWuBrCE3AK2M3uSz3hHPSRkPx1whLaY7sMLhcvd7kowNr7WtMq/SPh9Ttrnq/R9Vy1WpTR0or+siqhlqZjG5b+3LsMIbc4P9ZOsQTfSndrZenf4zq4452i9PfQ0f0XkuUi30XfHlDtTHJjljwMz/Yk85ptcAoDusYbyOIkD95H7fle/+6B7eIFQiWZKW+yxSkON9vqzZTXuk8D8TWXtb0UvT3qEIbuHtcsqsPUht4V/6ju44nNfoH4q6mbu7Vl8jiSKs9c5Q37gSb+UBOvxTlhkrQeA8iXtfUIIPJX357h9H3WCR/TIvOr7rK8JHtrOaH6/ynLERfdumbKRBOYrZXKWMsIr0pK2lO06fXeChOx2EpLLaZmRfP3omyoarIoE06O/tMQv11Baek4Pp+TCXEBKM469c2NVw/HO0J/9Kl/qYZg2kqrMT5lmK9Xe5/v4nUuN4CqALgJva2rY3DPT/m664HHr+Z4af1klxzksEmnY9Qs/3AWFQFyhtEw7eqsjILVkKFWtLJrhp4km+u1Tet2toqK00NOJprFsFU2Vf78XV33uCtRNtk1KGDP60nyN5e6ety3YF1J+ZW9DsA9nnsB5Ia4A6GHI/34PASKddo+E4jO93/9q24/c+14pD2P5kP9f7Mp101vOpe67YDKYumWUUOUgB/w35ujT/2PbtUl4PhfaKduxlvf3Z5CLaZ3L5XYSedsXWQRAjUA9Vms31cu1xFmbAjZ6mtgRiYoGfOh3vcoM08EE17jqko3f97ndV1itsR2YwebmzWqEUBqvVTapUrDS07//tGi0jY3UOFnz+WGGMfr3nY2yTyG1l6gPXCZlB8fIc7gr12MSPKFG/rf03fw59BCcl0cKyYSO53XqO6crfJeuDZdu2UqfMw5rlU+IT2+RUzeQG0LagvZMj/fFFpUIxgo8MfNRyDLBCgm4o07dKye01EqmrZfNNlITdkpKu7W3Jiqn/1OQTnNTQ72gG+N1X1IjZDQXrBTml/WdxFfmMddcO2nB8P98KafFa+RZ/LPjrB2zFiK046vcvDrfqc83VbgoC6ZZDFsMaFJ0/uQqanupkWO7vGb23XwAVoJGTtKxf0vv35oOR/VBkONyRNnplVO+XEPv+SGQWo2+o4mnJFsjrGQsIhFsNrpi5pQw79fUSB8Zzn9QbTNLOol1qvNnbTc/j8c765CQ22VUMG15qptawlZ3k2o7ibE9y5hhqtcgneYYMlE3+5+mENW0VUMDKNPj/SD/PZwMRFN8MMznZNJFjaUHwslsJQ1hI+Kw+w1XHhA865tks5pajetJ0TXZTX39XWWvSmTYB7PGLa2YvLnDOULrSlJP70NAadB7qD8UTivv+vrk0Tav2Qlq6PPiNCmEXzDZjn7fZge69OsFlQ0s1teV3j7ROeM8DZ2Z+vVVCGlUhZDaNbGqulGOhtoO1dEyE8B0tn0PEmouDqcSeV7EmRttUnPz0x/l/cdHkGYsSLkM8xX7DybsP1tpH/ZnuNdzFhTng9PzfU2tMaPHpGL75aFOaRWrT/WCKfCdJrjuKbs5aY1D6jun0vuEzvPdPiaSOtftnMd++lyoNEug5Pf2mnt9eZHOsbdtkWbcydJFGmqD2gNvHSy7PItTSyv6x6k35dTOiszttaChzs0hfyJP2k9/EcuAU35pEiANUG6Z3X6rbEobdA27LoWgfUwiCeRw9R6zSm23TSbZyJAfbvM4kUmeAcu6HoanhXEtuvQ9qMVeEj24v/Wplb6SV33tOXWj3d8Tfvu7T/v2H5sIJAnPE+Gwpu+ZfDIFcic5OSfafrWz/rU3l43kdtToVpX82tRWtVl6I6y0TCpduka5SVLaRliqWvYkpNOcFKjZQdNupGegNx3xDdtjPlu/ZpYeAotUQuGYSy/r/dOH9jL43rGhxqajuBlyW9rq2H5MQ2Y5lMkrTsjBEypGf5Iux5EE3vfQiuO8S69TTsScJWtHODqJs5SZfsyZeU41e6VZ1aH0ef7II1B36uuK0DHl+2V3vDGP6WQhtV/say8C5y3PtpZt8x0rpxkkobqRBN9nJPiu5rH6lcbZ9lR0bWuTUm0t5NSuN1VVJ1C/vQ7pNDc11FfsQm8+e6NI9Ju/dPZnbWTlDD8AONXcRd2Z28gVoPfR+py6BfhsH1vLwyHTJ+Q65+KUmObhMu2rlXLor61RJzJQ/FATIonHVmzNggvb3hhrmpjyvsjemeI9tDevUKD5MRt2d+mzUzsjCVpuh0drP+TkhrDei2qbt6gtsrRm0vp5Ys6+x608FJWWzOVkdvZy3O3mf4+SEFzT5tDTZnRhgk0Cgdn96rVqYV/V6OzfWu5XMJdsqDFHSlUlk312VGH7p5o35UUu3TxDwn8T7e+WbUsUgT4KI4N7JUTs3yofWXe79jkoBMZJMZ7On4bj4dyeB/IJJ6u/cRa08/ZiQxVJzfpxZmcHY1/MbQPasN8o1g/aps3rJMN9irP1nofNt3XHZr6XfwmxrjTLJLFgzfmI/xp6+8dla3YPej1JoI6pJNmtxo8kaO8YJU+aDY8d1WuP5QqxKyCZ5vaw/0j/EwiGNsUJkYdatrcIP7zfrS+92e9k38fo2cZhmrAY2KbK7kGdqqTd9isGsUf23+6x/2qfD4Qx1gqnZf+5S95Kj8C+0MeE1E/VemvZfW5/52HVSykeah8IMT12cs5ERZrmayQgvyRt9Dq9PurmzE9C+DcSpmOQSHNfoLJj+/2qZIdVGtqKl061vKaaXetnMbyZ49fz+lZmflanf0YZkcxcxtf/2FPWJbGSbSR2YpjyPQ9xXxvkeKSaUJNHzEoIlk3PCrQQvnNunQfHu8Hqc2qV99bPQXGcbVp3SU/HMK4KCR43roWvT1UZGMNnVLjL3aa22HrozKd2PTWudebajquqD59r98w7eRFIt08i8VxnVUFXDmXScbIVzSehmpKQPUBC9jS9cmjpXfqOWuMaffc9abevkYaKYf6TM/TPPnYmEbSkKOakj/m99vvJ6Y44ou2upxv+bt1EmT0pVfXJ6l9ebvmByiWgT2AlmbGuHiFmHqeeG1b9ESfTARzmafv7dTuemXzGzqKUOUlrjAm0TlXTxJpMS/RtZcY1dezK+nEm8sse75fVuf21SnZT9TszzmPQjh0b+SMuJ0kyYp2npYJHJbFpChGxm4u3MNnsLUYzr6nrrJX2Fp78vFpk1GepkDOWLZ8FJwnSxSRQF7f/37+Qpf+JFKhkzKcb66LXpaQ2wXRmRayo6KRpCXmk7Y2pqKBupVOCeVe5nHPGaQR3ciROUYxuOZdrZhcf+lPtp8YJhR8G3Wmcz9Ium32wzwcXhYoWJabjmnLbnvLcPIudctRQLI9S47pKFGWUrVIlpxOOQlLhlGSTzc6ndox6qFKt1Y9ikmq8+7XJDg9U5Ta8zM+e67+mJ7NOlcOURzLrDB/YbjlU4+yYTDJohmAokz4v0k1229X2bLcpW1vKbHceTjI9OjUBryKffhOORmVqksL5zK4z8hzXZe/FBKFCI+MspWV/ziu9ZoYGZczye/pRVE19pjdhKlcW7maO5uY759XklJr0+Za+oxj97n/+8X//D9sPx1lIpbFt7tC0Q30Iru8zkT90uTZcwvqyqDRDr7eFNcHG0V4fUuPQ3ndpv/mrCvXlPARuIcX84ZNZXgmZWUFCS95D2+FkJzeFPqlnh1Sb/TseKvENwHQNsTerWvaeks/B0tD+ctFHsnjtwEKVtvm+bsu1fTGr3wwzxSRnskrH+9c4iiQq71C7Z9te7X16zs273bafjKejeZIPyy7r/NmdhN7n6PXlwR5Ka3nia29naG7bix3bcWVv5DLMq2rO1bLCfGLaaHV7ZbV91sb395oBytrPHsdPOKmG6na+Cfr+rn4eQ8dX9O3kXEqIA+aypqqyFslH1R88syYS3MxUwsx32nnPPoQjAwhTTgRyVxilp81tC3tyJcl+oO+XTsOxb0z5j+lMZLj5MqvigtnpeDwd6XJMO/QJKGfiKZH2pA2HvR4SydQzRlH/3hN5mRknxDaUA5f6dbBGQ12Xeq6NNvTWC+mR4EpHBnsgsBeEaW4RiR2Db08w6fs3j01b96dhhd4CEBIA+61ZbWum2Mi879EWZCdyZV8/+5ViLWem+s5J1qL9STyztF/QMtOmbdD+t3Z8K4NaualJcp7YJTVCejFt67rjdaAJIkMIcXasJNsxXccjU45kkl+Z1zNzZ/kTowTIHzWmoZ1ebxBrRr04voFDlKmPP+nC06xs6tuXZj5JpCN0i9ffyGa6GP9wMKMkpFXQjfuZXcdHJPX1pgybZv7HZcG0sw9BPt5JtycslyFjtr3SPL4RSTrtdjDax5cizkzXKc0dy3jNf9tcI6Dft12kDG1KG8qqiadY7pzu4+GEK2zvFZpzvNc9rHLAZze6ZYFtfZI627GFXJlcZiAn9VQ9BLK/jFFKrO8zs+7LzCgpLdwqEfyeEwEtwb8bzI6WmqydV8zae8If3TBIr0dAPiSmP2e2scch97f+8tRuqWraJv9BhjJ0E5xTtazeGjj2xOjLB4EHxEL6/brjFeGcp1I4Hx6iffwjd2Y/XAKck88ENNSTfu8EO2yXa5WtHej6kABcJDiCL67xTIhrvFAcDxSl9aN+GZhtoZotoBvxR2/0ThwomxKbYZ7Fd9e4XHWXfY3l6eVqXF2q7dPkUfbiMI+9KG39T9DFyRQ+XwW007eCbl1OiKn8k70bhngtVyif1V6iyvLvnRj/JE/4/Ecv0WokwC8N3leOwuoxyinuOR3fUVIS4PcJZtuemi0mgXHGGyZpxWb708mVQ0DSbMITFCohcWBbwk7yMURNTrPhbRS+9G56n6oEJD8HBOqv+vJ6VJTryiQ3DPV4YnYRY5cy+9pI93rlD4n9Ho17AbWbVSRWINFzfrw/TuGeW+cUi3RGQtItgeLE6ks9OTq7xSGLE5h9hLLBsQaVOVE7rn3Vmqwq/3hK49gSspkVOQF85ab/sWyq5Lgtlw/7mKnfz1C7Z5csTi37XfFHP+8RYMtU7tjE7yIlzFR3v4kBZ8P7vI4fO+XBXVetjsnlY885WaZCOq0QZMNtqjqmI1M492/bk56V3Vr6v/fa+TM7PPmG6LPQJADD+jOO0c14xUnzZ2k2XYZe52m5UY9GwmGG91Jr4safUFh+O4PH/JcxsRFOS/cHJ+SwtNNtvQ5TadszUgmW+t7qKWFMbpI45HlIJGnca3UA+Z8p9POAr0+it6F9bSJqTqKSJhIO/eCxsKm+QDfkddElTVtdVh/hyWrE1Uft9UXoDxRnb8ycQJWneizf8YdtzqD+f9HjuhSvLhfNjPlGFcTrNXvTB57r3+p9/cGSxxT9/KaPTP93eSTRTwYxuq578G8Gj4lQVVrKHTvaJ41rXKpMf84jHlvjPjOxSXB9dudpzKBA/aXr8eSvZz1a9+9+1zJ7/ez0jB1PLJ/reo0qU8a7nuv0gej1OsfyxcHPe3a2p/3kw/nT1K+9QZe+xHu97g0agQbAMP6Yr+Yp9eoTHwvvcFJeStN1ljYnv/ZlzxduIuKrHCY6Yw+PovhfMPl29XrStAmr+lB363KZanbUT2fwYThWP0Q2nOe3eh4Sx+xEzf5rr8w3Swc75+lomleD8Offdc/lVzLO5lG/zgSqqYb6+aed4R+A2bSpvqcS81q5Nt1ZcSsEUNUyMh2saRvnrcxKZrnn6k/x68wdX7pE2XVjO4TRzQvLQRDWuWkUQQ2BmWfDFrt7xo4pryJaa6bRUvllHoH6qwgl6Y61GHsyC8kBE+TwvVG4xTkeH4FM+/sLc8RqlSjb44kiwom8uU4YXKnA4yBQJc/MH0tjK0myUfzMnsSRnfydqzThw76uNww3GCshdGVOyL6fQW1ufWrV13ILxpVBCO9Y667OE4NI3Wnf4zal2o4ZOyYa5ppZoTzFC/P+cbTac5agG6V2OY19kz1mBi0uTz6F8/5C6qv5ZOSvNfq9TbuX3rcLMPqDT8rz/2gqtl4Aplvj4Tj1vwZwsh7XtrG8j9rrp2bw2D7pvYZ7tsYSCi/3XEo5zt6bwYfElh4nynjIvsgyyywyco32WRK6D6G/uZ/yKXQvJdXxqSz/5/oswcKRbA38m8FjAf0B3uitiJrxPtUE1zqfjUx47Hz0emGGbMTzqV1N4yw4XNTKetywy0sLzkngZKcyTSFatc5DM/iQ2NWtkF/Rv0nPuitE0ov9VGmpH01B6O8K1dMS7nnkhNgNa/2X8gdCfcFF67sfBRJNg6mSJOmoEGJKNiRO5EztZmqWmHZKhwizRPJqbZj2trBKdqSe0iuijA8f/kQC7XOrXUZaJL4k2+qYvvEIn9WiyMxvlmExy38U5+KnmdNQSev2JWB28wz85ll3g5Gc2vHFNY5v5+D3U3bYLKetherq2aby/dz05XOga/WhmUNVmgmvnSoMapn/QCKAwW5akXKmei4Dco5usHQaNJ8z3gQgfu2Hk6Us0zSKg3q2IiOphb9++4bhClM5n/Zz0UmwEXKGj7PNHuHDZoyHQef52PKjTLIZyc9JQuPbrmVBEn9uApW2ry7238z1sGEK5/9kT9Vs831eDIwwFgiumBrXBC7YOWATNRH2EqQD6HdINc6x5yrpcK4lnZwOgSo0Ier6lGZ6EbpJodWdoj/5CbOgmztzrE98UftmyMPi/WVQgVmKxEoIo/pyVXpysYpk7TzOIG+4f5m1t8y4+TjbPkND/nP2pJRTyibv24ceYXzIEZzevA4qxPi5KfTxz2D9Kze5zA812xkv/JZNjdoaLaRaOR1OUJPGGZJPg54E6Sq6ab4VeSozfbjDeStXT2G7C5QdscxTab9afoCx/N7SSM4LY8io57y0fEDzP8R9+nO/MKQh8UalQSdW7k0jGYrx3Z4as8EFK7O/4X9q1a66lA4x01TRn3mc9cscOrvRacXn7Z5zc0I4CWK8tuU7YsAkzpzdjNoNEYxwsmtYme5qnu19ZCfWEVYYq+6SVbiEHZECrlQgPIRaTjfQURXiqCf4MP0oB46Pp228YZecEFaNeCsR8U7NXsaa3KRwMrNLI8OU7fvJEUzTHY/NE0nUt1upt4yG1w/1Wl3IKC33WWolPjYTTJvZtLhKwhCE6Ebt/eK0SGwivGVr9NSM0hcefN4VTnqpmPIYr07hGjREUbHVPmf+85jt7rI9zkf7p0+oCjsbVXXNWeHYAskB7CHPEvpjHOqEibrpzIwMSOx3uHGAPyxnoboq7HITVmkUTYDc02dlaTnu432jHEdslwmxfFKrfXwyXU7ZtL1N9Ce65ctinxrC1SipsaPL+d+cJplT3C+1S6FUfrs8Unh1Oo6HIofYRv6BPhooHN/NOlZOVjDZmTlfYWl686ldE5ZfqHCS2eQPuyk8AMZTT1kVPV2gVeVgS/dtylRl/TIzaTkPBEPIclLwGK5U4L86vnhyD/0pbvTsC5m3SbrRVvQuhLKltI+ztfXlEzsRtemfSPt7oaekwbE3gTFrW5+IKZQC5sqX1D5MuS5UX8k1st+6lSDOh6+cO7TmvCR2km4VmdWa2sNBPUhPFA/Ow5ppZktPvsI8STaeznceznlJk25JqVlAHZuC+ajVX/JoubrH6/xJKDl4zXX+QY7DlQoCVWmm2X2/MJJBYVVoS5dpmdqkFlKsG1HZofK4+tCf0i1VkZcnftn682/2C2Dp9UN0ZtzzfvPwvy+bqhAZR3ltpPV+98++m1Fe5nGq0iirehRuhz25DNzzZO6fK5QeZcHYp2mHtci3O3bSwsa4S+vLbn8JEecYL3uGzi+GHmye9+9PwTz1vrePia9EixrZ9HSO2NWOjv9SwMsiXFolmbmwYPB4C9XjqadscarXTE88YaFFlIxgzY+EhtRyl9LnZ2i7rOX8KDrairE9s1hbJZBK4XjC08/3rFynbpihvk1PLHyxD/5zfa0yvcfhyR0WUtQ4T+lvQs9DoPfVcqkxzQ1qne19mF1WCmW79rlb+c+Tdr44YOAAvV8Zvs4qkQgN5blKbZWrVrM7brZtuuaDwhxSd/KFegTqa+Z1CXgs5MPmrVMQqMfC963zcOURVc+jkzQvf/0g9ZgpavLv3rOj4MBTaT/Na6eHy1yEMw5pSUxIaKqJl9/pu79E7i/pKXcREnRGnffbPnMC20H9N7J7g7tRM979PVKmDlWCWH6mBFJMfq6cJYlCEpUrk11OxesrGkxufTjrsy4RrXfEd16CiZDdPpD9j/1i5dd0PIeo75x8+XBeUka2XX/X6lxw/lpNuP/gP16njM1Rz4Nojz2RFj5/g6fFS7WSMd3y7VJfzg1gKz9cm1jb87/gkto8uQWp8lRrqHIkLYqpma5Lmn+oVY7X9iFN7fLNieleYpcn0UuDaMPxzvfvBTS474x92uWju/TJ+0DQj8+YHNNMG6awt8Mm7VpPnd++Swew1/KwtJzQsc6bNnzV3Hl8kVVGqWnTUyN2UwIWD0QWxMp9KUkyLgt+0XZjMyaoyv1mez2C7nNfWLCntMuDQfPVpkL18Yo+KWg/SE13L3l8AIG9mLb3V3X/2xOooXSU8jNIFQjVQMVN6SuDHFhGGg7R/nLRgTLS1fa+95U9KYZhF9zCa5kWghqeQBCxrJ/AirNAiWT5j3dyJVimWP3pfuQQ2yloXpvSWNMku/YxM7I3OfZc2+7nt2le1+6FeaosdtLdWT71FLKjff/YtQJs3i8KQU4H8qdl31X2Ya25j+xKswcH24/cYKRWjLOu57LwgtkMqfIUk4xTnH7MWqrPhmpVk7TtYlpVSWGk47NS88UB+2wltFhLfiYwFFauOOZ+rW3FnrSAts3XqiBqTvS4KdyEG3nlTtCY5+JUmkx9yEfb+tB7zmM7isp3rHafXNunY9eM5RltJNBw0ypmXvs37e8lS9CN5BM6tv3dMhvk6/4xsJkqkStzz42A6citsPv2FExin9v3rIila8c387xeo7YMkuUpt6Wqp2vi8+HzlSfJ7FIRwdIdetVPY+hUtcv0Rx6r+QM9S+1BmtT0wepnavUl9VXGjF0f1tDxGT6n3hIa2VFq0xLBJNOMzTBfdCunYib0sP15sy5lR3QTThWiy3W8DJNN6Jrlk3tLrQffQmq3bb9Zb6XUZPAwZur7hlAJE2N/1fv1g/8vsmeUeSGW9aV73HPONcY8RSblC4KvbdHSfAJwlF4/pc9btXt+E3tw0G+IxJrDQvWgqH3SWzYq3cao2+Q82fhF7J8cEsp+K8e63NRr6kMYZaCMivSWE+mhQKAVEePOUmu2Va459G4Sr53WG1/+ey2PGj7XCxCKLun0RE0BxC5VRw9o53p7j+vdTFPzz57m0Uu9FuYbuJwL9WlnrxNSnLzbDj7oW4CTcEvzidc+7h3VdnkEKo22ZIMzj9H9ta2jyQqeNGRf7cLkRcv9LHLfZPi3zuWhf+5G1b0ch6/GkIhtYZMF3JnKJznbTJ/pQdC/XrutytuAq4LeFI7gC09KOYI/CQlOzyx1LM/R65rhXQ8VxbQnNWpy+TwA6oa+sqvzu55whdPZ1VenLc/1Bc+DL/P6APsTo+yagkA9VJuVywhfJo05HixfgKUVH0vD5VFCD/G7dI+tDpixaEQjN2lC+4pQnizZK9T31VwJl15ntC4aGMYEFUdPxfIrczbf44Cv54u0J6ys74SzjuTQzXdZgPf4B9rjm4By9s/2uzhbRu0bFYvu6ZOw7F36doSb69OdVMuF7nX2Rkjj4SYp0a5JwtmNzOsgnXNgeh0EgwF8zu+ZJji+8l9TaU12uTkd6Ly85VybJHRfDD5xUz704/DEXXlNE3k5iZMpjx6ov1y/qu3cU4l/IlO7p37nSLhuApWWu8KJfDixDK33aRFaexUa6pMw9KdhR8qF9eJ8JlUkpnAUTjYfK/tT7DET5H9IDpc82q+7TMcVpzIfuNmmihv6h+JpTzbIbH2eKtDqi54FyoqC0Y/PTYqcV1Kl9faKwOTZkK8JhwnvFuzva4eheoWfk3fU95lnpE/piZeD/p3uLPohz9B4v+ghVFPkiVemkLUsOxOc1Xej5n6eRpPYlk7SmNAxOg+1XFv+tKtAJTstfeYsXxwMwwUO2Y4ODfXJsqlmK/Lietm91KNxCEur8/2ZCsF1lRqnRxsbUJj8ZDjt29pv1ZfPrP5zdNA6zosq8qGf6dMZewST7fqlypYojWizGE/nz/Y1STkrUpJtpz6dVhN1Xg1V1oVkcrgql0X+0M5FStukMFvS7vP8A2Wj734rIsby7/LPr3qu0z76/qxqsTwrivdCNXm28xv181dqAz2UCj/Zk9Qnrn7LWa3olZr6LM+LzmuS/07vP5jmBxuftz9puxf1JgKfRd7+1OtZFQ+fvZy1THuQfZfm9+sWUUTYccIaAYH6BJoBaBjNEy90E5zKwxxtwSMtX0hlTD9NjTPsJ3qS6P4nZyTbEf8yJr6sKpflrHVNijZVOI7tUzH1iWdgOaIoL7rGs9J3igQxl+k3FhhfUuN49pc5o/tj+bDLcwyweWNrUSTwJ/XnjSUdk7ylbId5kAC7MfEDiSOmaBIkGxNxij/pFMg4Q1ealo1LA+mf7e8673HmgE8w8dBzjF1RSPhwPaW36Q/9Nv1p3yi0wbHptC3SvkgQ5rlHHT9Kd7jVc27KlGblC/9WzvTEZTDmp3M8Y1BRrpuvzwK6LpyAeZ4YRwJkAEA1NBoTeakMvdidNXQvC7G9gDMGAABBrStbZ+cGcPz98tncexwAgDMGAADhYex2obkK6WWVzfLTXNBPwjYIAABBgRpnB/SwPyvJtfa9PIuzBQAA9UP+b/yZsJzX4zhbAABQA8c3GzlZrdyj2m8HcbYAACBAkufmbJvlpqVVKrgUrDtwxgAAIDTcjzOOn77XJWtRZ8i/HmcMAABCw/0kWyWsjPTuZFQRGx6HC9QBAAAEaqzyUHrKGEs7s9BtEa9djDMGAADhIf+7/nInTinqK2mKEEsAAAgL1CT7WCRWKQ1v+RH5M84WAADUDfmTbAkJ0udJiD7PdeN9TSXljRFyCgAAAAAAAAAAAAAAAAAAAAAAAAAAAAAAAAAAAAAAAAAAAAAAAAAAAAAAAAAAAAAAAAAAAAAAAAAAAAAAAAAAAAAAAAAAAAAAAAAAAAAAAAAAAAAAAAAAAAAAAAAAAAAAAAAAAAAAAAAAAAAAAAAAAAAAAAAAAAAAAAAAAAAAAAAAAAAAAAAAAAAAAAAAAAAAAAAAAAAAAAAAAAAAAAAAAAAAAAAAAAAAAAAAAAAAAAAAAAAAAAAAAAAAAAAAAAAAAAAAAAAAAAAAAAAAAAAAAAAAAAAAAAAAAAAAAAAAAAAAAAAAAAAAAAAAAAAAAAAAAAAAAAAAAAAAAAAAAAAAAAAAAAAAAAAAAAAAAAAAAAAAAAAAAAAAAAAAAAAAAAAAAAAAAAAAAAAAAAAAAAAAAAAAAABgivx/erutQ7ODE6kAAAAASUVORK5CYII=;" vertex="1" parent="1">
                    <mxGeometry x="-347" y="-415.98" width="169.97" height="129.98" as="geometry"/>
                </mxCell>
                <mxCell id="19" value="" style="shape=image;verticalLabelPosition=bottom;labelBackgroundColor=default;verticalAlign=top;aspect=fixed;imageAspect=0;image=data:image/png,iVBORw0KGgoAAAANSUhEUgAABLAAAASwCAQAAABBKHtEAAAABGdBTUEAALGPC/xhBQAAACBjSFJNAAB6JgAAgIQAAPoAAACA6AAAdTAAAOpgAAA6mAAAF3CculE8AAAAAmJLR0QA/4ePzL8AAH9CSURBVHja7d13vBXVuYfxh97roQgIgoIFBEWsgAUFsWFHTaxJrDGxpGlummleTdGg0Rt7bFHB3sCuSFEDKE2w0QUph9455f5hBeFwyi6z1jzf+dz7uTdRWPO+M3t+e83aM9WQVBE12JF2FFBAC1rQggIKqE8DagPNgFo0BNayAVhBCUWsYj2FFFLIYpZQSCHzmcsmSylJ8apmCaTtaEZXOtGJjnSkI+2plYE/s5hPmcXML/7nfRZbZkkyYEmxq0kHutGLrnRjjxycJ8t4n/FM5X3Gs87yS5IBS4rJjvSlN73Zkzp5GsEmpjOGMYzmE9shSQYsKVzV6UFfDuJg2idoVJ8xmtGMYTxFtkiSDFhSOFrQj/4Mok2Cx7iG13iGEcyxXZJkwJKSrDo96c8gDqJ6MGOewbM8w5tssH2SJClZanA4/2IxpYFuy7mXY6ltIyVJUhJUpy9DmB9stPrmtoz7GJSRB0ZIkiRVUg/+wbwootU3t8X8iwNtriRJyrW6DOal6KLVN7dpXEULGy1JknKjG9dRGHW4+nJbz1D6+6MVSZKUTbU4m3GpiFbf3N7nEurbfEmSlHmNuZw5qQtXX//KcAjtPAgkSVLmdOQ6lqU2XH25beA+unkwSJKkquvGQ2xKfbj6civmafbzoJAkSZXXkdsoMlZ9a3uJfTw4JElSxXXgNmeutrmV8Ax7eZBIkqTya8f/scEYtd3bhffT2YNFkiRtXz2uYpXxqZzbRobQ1INGkiSVZRAzjU0V3Aq5nBoeOpIkaWv2YaRxqdIPIz3KA0iSJG2uFfdQbFCq0vYoO3kgSZKkLw1msQEpA9sarvJmoSRJgo6MMBplcJtATw8qSZLSrDoX+ovBLPyy8DrqeHBJkpROe/K2cShL21QO8gCTpExzFYaSrhoX8igdLUSWtOQ86vMGJZZCkqS0aMWzzjLlYHubLh5skpQ5zmApyQbygi8rzol2nEch4y2EJElxq8cQSpxbyvHzsZp74ElSJlSzBEqk3XicrpYh52ZzivNYklR13iJUEh3H87S3DHnQlHNZyAQLIUlSXKpxla/CyfN2H/U8ECWpahczKUkKeJCBliHvJnAysy2DJBmwFIOePO4TrxJiEafxhmWQpMpxDZaSYyDP09oyJEQDzmKhC94lyYClsF3Ag678SZTqDKI5L1gISTJgKUzVuIa/U91CJM4B7MGzFFkISarohU3Kt7r8m9MtQ2KN4QSWWAZJMmApJC15lv0tQ6JN42h/UyhJBiyFYwdeYk/LkHgLGMBUyyBJBiyFoAOv0NkyBGEhA5loGSSpfFxWrPzpxOvGq2C05jUOtAySZMBSsu3BKDpZhoA04yUOtwySZMBScvXiTdpahsA05GkGWAZJ2j7XYCkfuvMaBZYhSOs4ltcsgyQZsJQ0XRjJDpYhWGsZyCjLIEkGLCVJB0ayk2UI2gqO8C2FkmTAUnK0YyQ7W4bgLeFQ3rcMkrQtLnJXLrXkJeNVFFrwKrtZBknaFmewlDuNGcleliEaM+nNZ5ZBkrbGGSzlSk2GGq+i0olnaWAZJMmApXy6iYEWITK9eIQalkGSvs0PR+XGL7naIkRoV1rzrGWQJAOW8mEwt7reL1L7spy3LYMkGbCUa315glqWIVpHMpnplkGSvslZBWVbe8bT0jJEbQ0HMsUySNLXXOSu7KrDo8ar6DXgcZpaBkkyYClX/sn+FiEFunCfnyaS9DXXYCmbLuB3FiEldqOIkZZBkj7nGixlT09GU88ypEYJxzHcMkiSAUvZ1JLxtLcMqbKUfZlpGSTJNVjKXnS/y3iVOs0Z6gM5JAlcg6VsuZQrLUIKtaWU1y2DJHmLUNmwB+OobxlSqYQjjFiSZMBS5tXhLfa2DKk1l71YZhkkpZtrsJR5fzZepVp7brMIktLONVjKtEP5lzOjKdeNj5lsGSSlmRdCZVYDJtPJMqTeCrrxqWWQlF7eIlRmXW+8EtCEIRZBUpo5g6VMOoAxhnZ94WSesAiSDFhSVdVmAt0sg76wgG7+mlBSWjnboMz5lfFK39CG/7UIktLKGSxlyu68Rx3LoG8opT+vWgZJBiyp8kfSaA6yDNrCB/Rgo2WQlD4+B0uZcTaXWQR9SwtWMNYySEofZ7CUCfWZRgfLoK1Yxa58ZhkkpY2L3JUJvzReaRsa8XuLICl9nMFS1bVnOvUtg7ahhP0ZbxkkGbCkinmY01NegXUUfrHBajYBNWkENKElBbRIffx8g8M8TSQZsKSKOJg3UngcbWI6k5jMTGYyi8Xb+aeb05GO7Ew3etAtlQ+zGMyjniqSDFhS+Y2md4r2dh6jGMMYJlf64QM12YPe9KE3u6Sobh/RlSJPFkkGLKl8juG5VOznekbxMi9ndC3RDhzJcRxJk1RU8Pvc4+kiyYAlle/4eYv9I9/HDbzEMJ5gVZb+/DocyWBOpFHkdZzNrj5yVJKk8jiR0qi3t/kBjXNSyXp8l9coibqaF3vCSJK0fdWZFG0YWMOt7JXzinbhryyLtqZzqetJI0nS9pwRaRBYyDUU5K2qDbmQDyKt7OWeNJIkbW/+alqEEWABlyXgMQo1OY8ZUVbXB9JKklSmk6K7/C/hZwkKALW5mE+jq/ElnjiSJJVldFQX/k3cRsvE1bg+17A2qjp/Qg1PHUmStuXAqC77r9A1sZXuyONR1fokTx5Jkrbl0Wgu+Mu4MPHPgxvE3GjqPcqTR5KkrduZokgu94+zQxAVb8pd0USsgzyBJEnampujuNCvDeyxASexJIq6+9pnSZK2OpuyOoLL/H/pElzl2/FqBJUvYmdPIkmxq24JVGFn0yD4fbifQ/gouFF/ygB+T2ngta/BBZ5EkiRtaWLgMyjruTDo+p/KyuAfOFrL00iSpG8K/QENhRwafA/2ZLYPa5CkJPMWoSoq7Ns7M+jDG8H3YAoHMt6jSJKkWDQOeoH7uAQ+rb2yGvFy0AvdO3gySYqZM1iqmO8GvMD9vxzJ4mg6sYpjeTLY0dfg+55MkiR9aVywcyav0jC6btRiaLD9mOPXO0mSPrdbsJfzMRHGq89ngsKNWId6QkmKl98hVRGnBzru9ziW1VF2pJizeD7QsZ/mCSVJEsCUIGdKptA86q7UZ1SQfVlIDU8pSZL2DPShljtF35kCPgiyN0d4UkmKlbcIVX4h3tJZx0nMjr4zhRzNogDHfbonlSRJ04ObISnh5NR05xA2BtefJb4yR5KUdnsFeAvqf1PVocsD7NBRnliS4uQtQpXXicGN+BV+naoODeHe4MZ8vCeWJCndxga3uL1l6nrUILjF7jM9sSRJadacosBWXx2byj71YkNgEWt3Ty5JMfIWocpnYGDPLLqJ51LZp/FcE9iIj/bkkiSl171BzYp8SL0Uf2kK62bui55ckmJUzRKoXBft+bQOZrSlDOCVFHdrT8ZTO5jRbqBFpK8xkpTyC6e0ffsEFK/gjlTHK5jC9QGNtg6HeYJJMmApnQYENNYlXJX6fv2ZGQGN9khPMEkGLKXTwQGN9dcsT32/NvCzgEbb1xNMUnxcg6XyHCVLaB7IWKeyN0W2DHghmJmhYgpYYcMkxcUZLG1ft2DiFfzEePWFX1ASyEhrsL/tkmTAUvr0CWako/3R/1cm8phHmCQZsOTlr+p+bbM2q0Yos3muwpJkwFIK9Q5knK/wus36hg95JJCRHkBN2yXJgKV02YFdAhnpX2zWtypSGsQ4G7KXzZJkwFK67BfIOKfwks3awqRgatLLZkkyYCld9gxknH8PZLYm11UJQw9bJcmApXQJ4+ZNIQ/bqq14kelBjLO7rZJkwFK6hDG3cC/rbdVW3RPIUeZDjyVFxQ81la0Oq4P4hVc33rdZW9WCedQJYJw7McdmSYqHM1jaXnAJIV6NNV5t0xKeD2Kc3iSUZMBSioSxAushG1WGMFanucxdkgFLKRLCbwhLAnopTD48x5oARukMliQDllJk5wDG+CbzbVQZ1vBsAKPcxUZJMmApPToFMManbdN2PBPAGDvaJkkx8VeEKttymiR+jF2ZZqPK1IKFAXyZasRqWyUpFs5gqSzNA4hXc41X27WEcQGMcicbJcmApXToGMAYh9umchgRwBg72SZJBiylQwiXvDdtUyRV6mibJBmwlA4hXPJG26ZyeIsi47wkGbCUDB0SP8IFzLRN5bCaSYkfo2uwJBmwlBItEz/Cd2xSNJVqaZMkGbCUDi0SP8KJNqmckj+DVWCTJBmwZMBKhsk2KZqA1cImSTJgKR2aG7CiMYXSxB9tPvhYkgFLqZD0VTHFzLBJ5bSCRQkfYS0a2yZJBizFrx71Ez7CeWyyTeWW/N9bepNQkgFLKZD8Rcc+oqEiZnnESZIBS/nXLPEjnG2TooqjzWySJAOW4lcn8SP8zCZVwKLEj7CuTZJkwJIBK/8KbVIFLEn8CGvbJEkGLMUv+Zc7A1Zc1apjkyQZsGTAyr9lNqkClhqwJMmAJS9327fOJkVVLW8RSjJgKQWSf7nbaJMqYINHnCQZsOTlLobIYLUqwluEkgxYSoGaiR9hkU2Kqlq1bJIkA5a8IHtBDkvyq+WLjyQZsJQCyb/ceUsprmq5pk6SAUspkPzLnYuiDViSZMCSASvD6tukqKrlLUJJBiylQPIvdwU2qQJaGOklyYAlA5YBK23VMmBJMmApBdYbGaLSPPEj9LlmkgxYSoHkv+lvB5sUVbWW2yRJBiwZsPKvo02qgE6JH+FSmyTJgKX4LTdgGbCM9JJkwFJmbWJ1wkfYhrq2KaI4utwmSTJgKQ2WJ/743dUmlVOLxP8koJiVtkmSAUtpkPxbNt1tUjntFUCcL7VNkgxYSoPFiR9hD5tUTnsmfoSFNkmSAUvp8KkBKxo9PNokyYClZJiX+BEe4DFcTgclfoRzbJIkA5bSIflzCs3Y3TaVQ0EAdZpnmyQZsJQOIVzy+timclWpmkebJBmwlAxzAxjjIbapHA42zkuSAUtJEcKy4yM9isthoAFLkgxYSopFiX+WO7RiHxu1HTsG8bywWTZKkgFL6VDKBwGM8mgbFUGFPvNFOZIMWEqPEALWibZpO04KYIzTbZMkA5YMWEmyD11sVBmacYQBS5IMWPKyV1Gn2agynEJto7wkGbBkwKqoM2xU8NVxBktSVKpZApWpHquoEcA4D+Itm7VVnfg4iC9SOzPTZkmKhzNYKtu6QG7dnG+rtuEHQZzlK5htqyQZsJQmE4IY5Rk0tlVbUZPzAjnKSmyWJAOW0mR8EKNswPdt1VacQrsgxvlfWyXJgKV0mRDIOK+gps36liuN8ZJkwFIyA1YYN2924hSbtYXDOCCQkY6zWZIMWEqX1XwUyEh/4a9iv1WRMCzzF4SSDFhKn3cCGec+vjRnMwcF85bGcZTaLkkGLKXNyGBG+keP6G/4UzAjHWWzJBmwlD5vBDPSbj7T/Sv9ONwjTJLyxTUrKo9PaRvISOexO2tsGNV5h16BjHUDTVlvyyTF9jEsbd+bwYx0R35qu4ALg4lX8JbxSpIBS+kU0i2cq2if+n414w8BjXakJ5gkA5bSKaRLYH1uSX2/rqel8V2SpOSbQ2lA22mp7tWhlATUq7XU8/SSFB9nsFQ+zwc12ptontpO1eX2oH688irrPL0kGbCUVsODGm1r7khtp/7KrkGN9zlPLklSejVgXVA3CUv5Xir7NDCo24OllLKTJ5ckKc1eCOzCvYrOqetRaz4LrEuTPbEkxclbhCqv4YGNtyGP0yBVHarJI7QObMzPemJJktKtY3A3n0p5IFUd+ltw/SmlryeWJCnt3g7wAn55arpzeoAB+FPn0CXFyo83ld/QAMf8d05IRW/24+4A3yw6lBJPK0lS2rUPcI6klDXsH31nOrEwwM6UcqAnlSRJMCbIy/h8do66K634IMi+zApwzk2SyslbhKqIoUGOug2vRfy0pSYMD+zRol96hFJPKUmSoC1FQc6VlDI9uAcYlE8jxgbakVL29YSSJOlzzwZ7OZ9Km+i60YRRAfdDkiLmLUJVzD3BjrwrYyJbi9WcF+kT7Ojv9GSSJOlLtVkU7JxJKbPZPZpO7MjUgDuxnhaeTJJi5gyWKmZj0E9H78AYDouiD90ZQ9eAx/8kSzyZJEn6WreA500+nzs5M/geHM3KwLswwBNJkqTNjQn84l7CX6gZbPWrcXWwv+X8cpvp3LkkSVs6I/DLeymlvELLIGvfmMcjqP4vPYkkSdpSLeZFcJGfS7/gKt8r0Ge2b/nyogJPIkmxq2kJVGGbuIVrg9+LHXmZv/JbNgYy3ur8jD9SO4Lj5z4KPYmC1ZACWtKCAgoooA61aQA0oDbQlNUUUcpyYCNrKKHwi20JhXZdaeO7wFQZLZhDvSj2ZAI/4L0AxtmZOyL5/WMpXZnuKRTMV/Ad6Uinr/6nJXUq/WeVsIS5zGQWs5jFTGayzgLLgCVt6XYuiGRPNvF3/pDoj/qa/JTfRRJo4XmO9fRJ+FWhE3vRne7sRaes3uVYwBQmMpnJTA1mJlkyYCnLujE5oqPnI67kuYSO7RBuYq+IjpwjecnTJ5F2ozcH0IM9aZSHrzkfMJlxjGW8UUtS2sXwa7ZvbsPZI3E13olHIqvyu36pS5g69ObnPJmYNzSsZSTXchzNbY2ktOpFSWQX/43cRvvE1Lclf2dtZBUu5RRPnISoRk9+yRusS+zT6qZwI0dS11ZJSp/no7v8l7Kem2ib98oW8GdWRVjdyT5gNAGacRr3sCCYh3o8y4/YxbZJSpPeEUaAUkrZwL/pnreq7sI/WRNpZU/3pMmr9vyEUYG+B+BD/sb+tlBSWrwSaRAopYQXOJlaOa1mdY7iseBfg7Pt7X3nr/KmLZcxKoKb+jO4jp62U1L8Dok2DHy+fcZ1dMvRvNXvmB15Nc/0hMmDFvyQ1ymO6kj6kD/S1dZKittzkYeCz1cO/Ybds1bBjvyM/6agilOp4emSU9U4nIdYH+0RNZrzqG+bleRTUKqKHrybkhs/nzCC4bzB6gz9efXow9EclZpv4sfzjKdLzuzAuZxP5+j3cwUPckcQ72KQAUuqsHs5J0V7W8RERjOaCcygpFJ/Qkf2pg996BXFewXLaySHeqrkyBFcwvE5Xj+YX+O4jQdYb+tlwFJcduKDKryfLFxrmMpkZjCLWcymcJsf77UpoD0d6cTOdGNPmqSwVqUcxNueKllXi9P5SUoXgS/iFm5liQeBDFiKyQ1caRFYQyFLKGUtG4BaNASa0yIPrx1JnmGcZhGyrAkXchk7proGa7mXG/nIg0EGLMWiOR/QwjJoGzbRlY8tQxbtyJWcT2MLAZTwNH9hrIVQ/vlcGlXdUn5tEbRNQ4xXWdSS6/iQnxivvrqmncgYXmI/S6F8cwZLmflQG+tTlrVVn7E7KyxDVhTwY37iTehteJmrmGAZZMBS6PblbedDtRVn8IhFyIJG/JBfpvInE+VXynP8mokWQvnho/+UGfPpxN6WQVt4hassQsbV4gqeYBB1LUWZqrErF9CBt1ljMZSPA1DKjNZMp6ll0DdsZG+mWYYMO5a/s5tlqICV/JkhbLAQyi1v6ihTFvJTi6DN3Gi8yrA9GMGzxqsKasz1TOEEC6HccgZLmTyaXqS/ZdAXPqAn6yxDxjTjGi5J1RPaM+1lrmSKZZABSyHaiSk0tAwCSjiMNy1DxgziX7S1DFVUxK38jyuylBveIlQmzeZXFkEA3GS8ypg2PMbTxqsMqMllTHKeXbnhDJYyHdnfoK9lSL2Z9GC1ZcjIZ/QF/NXHiGZUKQ9wJYUWQgYshWVXJtDAMqRaCYfzhmXIgN25wy8sWbGAS3nCMiibvEWoTPuQKyxCyg0xXmXk6+/lvGu8ypI2PM6DPqhV2T2Fpcx7hNMsQmpNZn/WW4YqasXdHGsZsmwOZzPSMsiApXA0YyLtLUMqrWFfpluGKhrIv9nBMuRACf/k52y0EMo8bxEqG5ZxNiWWIZUuN15VUT2GMNx4lbNr4GWMoouFUOb5LkJlx2zqu3okhYbxPxahSvbkFY713kJOteM8ZjPZQsiApTC8ziF0tAypMpNBrr6qkjN83lVe1OEUmvOK8+7KJL8nKXtaMYF2liE11tOX8Zah0mryJ37hZ3IejWYwCyyDMsU1WMqeRZzq4tEU+aHxqgpaMIKrjFd51Yf36GcZlCneIlQ2zWM1R1mGVLiFay1CpfXiFXpahrxrwJlsZLSFkAFLyfcWu9HdMkRvDN+l2DJU0pk8RYFlSITq9KctI1yNpapzQlrZVo/XOMAyRG0B+zLfMlTSr/mDn8QJ8wKDWWUZZMBS0u3A23SwDNFaRz/etgyVUpN/cpFlSKApHMscy6CqcJG7su8zjmaFZYhUCd81XlVSI542XiXUnrxFL8sgA5aS7n3OcoVOpH7KkxahUjowhqMtQ2K14TX7o6pwkbty40OW+2EVoVv4rUWolN14g86WIdHqcDqf+IR3GbCUdG9Tm4MtQ1Se5TxKLUMl9OBVn9gegOqcxHwmWAgZsJRsr9HWVQ0RGcsJbLAMldCLl2hlGYJQjUGs5C0LIQOWku159qCbZYjCRI5kpWWohL68SDPLEFDEGkg9XrYQMmApyUp5igPYxUIE7yMOZ4llqITDeI5GliG4UGzEkgFLCVfMUxxGewsRtDkc5oNFK2UAz1HfMgQZsRrwkmWQAUtJtpFh9GNHCxGs+RzOTMtQCQfzLPUsQ6D6AG9YBhmwlGQbeNSIFax59OMjy1AJPRnhzcGgHcY6XwQtA5aSHrGcxQrTXA7nY8tQCd15heaWIXD9WcQ4y6Dy8V2EypemvMh+liEos7w5WEm7MdIHM0ShhPO43zLIgKVka8RT9LMMwZhJP2ZbhkrYiVHO10ajiNN4wjLIgKVkq8ODnGIZgvA+A5lnGSqhMaPobhkisp4jGGMZtD2+7Fn5tIHTucsyBOBtDjFeVUotHjNeRaYuT9HFMsiApWQr5gL+ZhkS7lkOp9AyVEI1bqe/ZYhOC4bT0jKobP6KUPn3Emvo7+3qxLqHs3znYCX9listQpSacwAPUWwhZMBSso1hMoOoZSESp5RruYISC1EpZzPELw7R2omdXewuA5aSbzovMsjHMCbMes5jiGWopN48Tk3LELHulPpsd22b366UHG15hn0sQ2Is4WTetAyV1JrxtLMMkSvheJ6zDNo6F7krOeZzGE9ahoR4l32MV5VWi0eNV6m4gt7PLpZBBiwl3ypO5n9cOJoAj3Iwcy1Dpf2NvhYhFZrxOPUtgwxYSr5S/pcjWGgh8qiIqzmNNRai0r7LZRYhNXpwp0XQ1rjIXckzm4fp46tF8uRTjuMhy1ClC+5T/iI2VbqzjLctg7bkInclU11u4BLLkHOv8F0WWYYqaMi7dLYMKbOJvrxjGbQ5bxEqmdbzQ0706eE5VcwfGWi8qqKbjFcpVIsHaWgZtDlnsJRkrfk3R1mGnJjNOYy0DFV0Eo9bhJS6mx9YBH2Ta7CUZGv4D8s43OM064ZxLB9Yhipqx/P+oiy1ejKdqZZBX3MGS8nXi3vobhmyppCLedQyVFl1XuJwy5BiS9mLeZZBX38kSEk3nn35A5ssRFY8Qw/jVUb81HiVcs25z2uqvuatF4WgmNd5mgNoYykyaiHn82tWWYgM6M7Dfp6mXidWMtYy6HPeIlQ4avELfk1dC5ERpdzHT1hqITL0VXU0B1gGsZbuzLAMAm8RKiSb+DN7+mrVjJjBQM4zXmXMj41XAqA+/3LiQl9+75JCsoz/MIEDaWYpqvAd+1rO9DeDGbQTj1LbMgiAXZjJRMsgbxEqTPW4iqu8WVgpz/JjZlmGjBrBQIugryylq+9TlbcIFaZ1XMOu3E6JpaiQ9ziEQcarDDvXeKXNNOdGiyBnsBS2ffkL/SxDuczh99xLsYXIsJZMo8AyaAvHuVpUzmApZOM4nAGud9iuQq5mN+42XmXBn4xX2ooh1LEIaecid4VuBnfwMV1pYSm2ahXXcTqvUmQpsmAv/uXXVG1Fc1YyxjKkm7cIFctXhdP5FV0txGZW8n/8ncUWImte9Ra1tnn27epS93Tzu5fiUMx/6M7xTLAUX1jC7+nI1carLDrFeKVtasyfLUK6OYOl2L4yHMOVqX8n3Fz+zh2s9XDIqrpMZWfLABSzEljPOmrQGKjnI1QAKGE/v/IZsKS47MWVnJHSRaZvczPD2OhBkHW/5NqUxoZPmMYsZjKLzyhkMcu/9c/Up4AW7EAHOtKRLnRLaeR6k0Mp9VQxYElx2YFLOZ8dUrTHGxjKzfzX1udESz6hUar2+APGMJaJTGVNhf/dGnShB/vTm14pe+b9yTzhySIpPrU4iecoojT6bTa/prUNz6G/puCo+nybw+2cTMsM1a0uh/BnxlOSkupNdqWzpHi153fMivYDfA33c4Qf4jnWhjUpCAdT+A17ZqmCrTmfF1Px5ec7ni6SYladw7mdwqg+uEsYyfdTdpsqKW6KPBR8yp/oloM6tuQS3om8ltN93qSk+NXmOB5gZQTRaiw/paMNzduc6Ppo40Axz3I8NXNaz725hRURR6xzPWUkpUM9TuZuFgZ6+RvJ5exoE/PqtmhvN99KlzzVtDE/ZXakdf2EWp40ktKjOgfwJ94N5kN6CQ9xXqp+FZlUO7MxwhCwgt/n/a2KtTiLD6KMWBd62khKnx05h3sSvAi+iNH8lv1dx5EYt0Z3+V/NdYl5ZXVNvsfMCOewPH8lpVYnvsd9bErQRe8Vfs8AF7EnTIvIfj9YzD20SViNa/MzlkcWsQZ76khKtyWJ+DD+O/vleJmxyuu3UV32R7NfQuvcijsojqjSb3nqSDJg5X872EYkVB0WRLTq6vKEPz/tIKZEFLE8q1PHxxNKUnmdE83PDJ6hK0MoSfQYx7IPv4/mvZo/9fSRlGbOYGnbqvF+FHMpa7k8oKrvyaRIHgy8h6dQujiDJUnlc2wUl8h32IshAY13CgdxexTx/HJPIQOWJOnbLo1gH27nYD4KbMxruIjvsCb42p9DU08iA5YkaXPtGRD4HqznB1wU6Jqmh9mX6YHXvx5neBoZsCRJmzs/8IdFzqcvdwc8/un05tXAj6ELPI0MWJKkb6rBeUGPfwq9GR94D5YxkNuC3oN92MdTyYAlSfra0XQIePSv0IfZEXShiEu4Jug9cA7LgCVJ+oaQX9f7HMexMpI+lPJ7Lk3487vKciYNPZkMWJKkz7Xh6GDHPpSTWB9VN27lPIoCHXsj30powJIkfemsYN8NOZTvsim6ftzPhZQGOvZzPJ0MWJKkz50e6Lhf4ByKo+zIPfw40JEfQltPKAOWJAl2oVeQ436ZE9kQbVdu4epAr7qneEoZsCRJoc5fTeXUyNZebel6bg5y3Kd5ShmwJElhBqz5HMOK6DtzBU8FOOo+QT/yQwYsScqI3egR3JjXchxzUtCbEs7kveBGXc2bhAYsSVKI81c/5N2UdGcNJ7LEY0oGLEkKzcnBjXgI96aoP7M5O7gHj+7Pjp5YBixJSrO2wd0gHMPPU9ajEfwxsBFX4yhPLQOWJKXZ0VQLaryrOS/CB4tuzx94I7ARG7AMWJKUaqFdCC/loxR2qYTvBfa2xQHU8uQyYElSWtWkf1DjfYz7UtqpmVwe1Hgb09vTy4AlSWl1EE0DGu2KwEJGZv2bF4MarzcJDViSlFpHBzXan/Bpqrt1Eas9tmTAkqTkGxjQWN/gnpR3a1ZQvybs4UufDViSlE6N2SuYsRZzOaWp79g/+DCYsVbjYE8xA5YkpdFB1AhmrHcy0YaxMahngPWxYQYsSUqjcH7ntZLf2i4AnuZlA5YMWJKUZH2DGemNLLJdX/hlMLdK96KR7TJgSVLa1GT/QEa6nCG26yvjeDaQkdbgANtlwJKktNmLhoGM9K8ss13f8Jtg5rC8SWjAkqTUCeUG4SpusVmbmcjzBiwZsCQpmUK5QXgHK2zWFv4WzDFWzWYZsCQpXcJ4BlaR66+24nXeCWKcTdjJZhmwJClN6rBrEON8gjk2ayv+Gcg4e9gqA5YkpUlXagUxzjts1VY9GsjCfwOWAUuSUiWMC99MXrFVW7WOB4MYZ3dbZcCSpDTZM4hR3kWJrdqGOw1YMmBJUtKEscT9YRu1TROZGsAod6WerTJgSVJ6hDCz8A6f2KgyDA1gjDXoaqMMWJKUFo3YIYBRPmKjIqhPFxtlwJKktOgUxCifsFFl+iCIm4SdbJQBS5IMWMkxnZk2ajtGBDDGjrbJgCVJBqzkGG6boqiRM1gGLElKjRBeYPKCbdquUaw2YMmAJUle9MqriNG2abs28Fbix9jB67ABS5LSomPiR/heAHMzSZD8GFqbtrbJgCVJBqxkGGuTymVUAGP0JqEBS5JSoS5NDFiReDuAlwntYJsMWJKUBi0CGON7tqlcVjEj8WMssE0GLEkyYCXBBj6yTeU02eNNBixJSoLkzyhMocg2ldMkjzcZsCTJC155TLdJ5TbN400GLElKguTfsvElOeU3y+NNBixJ8oIXR2gwjJafM1gGLElKhWYGrIgsZo0BSwYsScq/+okf4ac2qdxKWZDwEdazSQYsSUqD2okfYaFNqoAlCR9fHVtkwJKkNEj6Ba+UZTYpojha2xYZsCQpDZJ+wVvuU7CiCljOYBmwJMmAlQBrbFFU9apNNZtkwJKk+CV9RmGjLaqQDUZ6GbAkycudAcuAJQOWJEWnlgErKsmvl6uwDFiSlAKlCR9fDVsUWb380YIBS5JSYFPCx+cNpYpJ/vzQBptkwJKk+CV9PsEbSrHVy5u+BixJSoGkz2AZsCqmbsLHV0yxTTJgSZIBK9+a+9ykCtYr2bxBaMCSpFRI+g2bWjSySREFLG8QGrAkKRVWJX6EBTapAlomfHzOYBmwJCkVViR+hK1sUgW0MGDJgCVJ+bcy8SPsYJPKrV7i4+hym2TAkqQ0SP4twk42qdw6Jv4nAUtskgFLktIg+bcIO9qkiMJooU0yYElSGixN/Ag726SIamXAMmBJUiosTPwIe9ikcuue+BEutkkGLElKg88SP8LW/o4wojDqDJYBS5IMWMaGwK5xXQ1YMmBJUhKsCeB3hPvapnLZg4YGLBmwJCkZkj+H1ccmRVOnObbJgCVJ6TA3gODgp3d59A1gjLNskwFLktJhRuJH2Iw9bFMUAWsRa2yTAUuS0mFmAGMcYJu2q0sAjxmdaZsMWJKUFjMCGONRtimKGhmwDFiSlBohXPQOpb6N2o6jPdZkwJKk5Pg4gDHW9SbhdjTksABGOctGxaqmJZAAaMs+7EODRIzlJaYy8Yttma3Jg0IWBfCs9NN4ylaVYRD1AhjlDBsVq2qWQKm2I73Yh17sQ5uEjnA2E5nIe4xlge3KoVfpl/gxrqI162zVNj3JCQGMsk0Qbw6QAUsql+p051AOpQ+tAxr1x4xmFKOZTqktzLqb+VEAoxzMo7ZqG5qwkDqJH+Vi3yoZL28RKk1q0JNDOIy+NAtw9J3pzLnAEkYzilGMo8iWZs37QYzyPAPWNn0ngHgFk2yUpLB15Ic8wwpKI9qWMZTv09bmZsUhQRwDRbS3VdswLogO3mCjJIWpBr24hnGURBWtNt8+YQj9qW2zM6oJxUF0/3e2aqv2CuTsPc9WSQpNc87hYZZFHKw231bwGGfR2MZnzAdB9H0utWzVVtwRyHm7r62SFI76DOYZNqQmWn1zW88znGPMyogHA+n5WbbqW1qxLpBbvPVslqQwotXpPB7IR2s2t7U8zhk09ICokisD6fa7tupb/hhI7ybbKklJV5NBPMTq1EerzWPWMI6jhgdHJfUNptM+0X1zDVkSSOf+ZbMkJdku/JlPDVTb2ObxZzp7kFRCAzYF0uPRNmsz/xPM2Xm2zZKUTHUYzEtR/0IwU9s4LkzIa4BC8nYw/T3aZn2lCYXB9K2T7ZKUPHsyJKAP0mQ8N+sW9vbAqYC/BhSgfSvHl34fTNfm2yxJyVKN/jzjvFUlt1EMdl1WOR0fUF/PtF0AtAtoJeYjtktSctThHKYYk6r8aNKraOrBtF3NA3nY6Odr7bwFDPBAQOfhZbZLUjK05dpgfh0Uwg3Dv/iale2aFFBHf2+7ODComW0fMiopAXbn3pQ+OjSb2yYeoocHVxluCKib69g15d2qyYSA+rXEW/WS8m0P7gvmB/PhbSU8Qy8Psm0YGFQvX0/5UvergurWg55ekvKpK/dRZAzKQcjydsXW1GVNUJ28IMW96hjYg4Z9xZGkvOnO0IAWGYcfsp6kpwfdtwwPqovL6ZjSPtVgZFCdKqaVJ1fsqlsCJVJnhjKRwR6hOVONExjPU67J2sILQY22CfendGXPLzk4qPFOYJEnlwFLyrUC/sFUBvvoxDyErON5l7toaym+0ILDAxtxX/4nhX06gN8FNuLhnlyScqsuv2CZN+zyvK3mGp+qBBzF/CB/G3pYyvrUnBnBdam3p5ekXM6fnMks401iXuNxfqp/Rl6Pm4N9W8BCdkxRp6ozIrgOfeYjGiTlTh/GGWsStk3iyJQejfvwftCde4s6qenVHwPszy1+4EvKjZbc7bsFE7o9zU4pOxprcHUED7W9PyVrGL8T5CfHoX7oS8q+apzDYoNMgre1XEPt1ByPHXg9kr5dk4JuHcz6IG+/e4NQUtb14m0jTADbZPqm4ng8m+URPdnse5F3a3cKg+zMED/4JWVXU4b4lPaALtf30TLq47EJD0TWsyJOj7hf7YP9ScxBfvhLyqZBQf4EPt3bYs6LdmVPf+ZG2LENHB1pv9rycaA9meMT/iRlTzPuNa4Euo2I8BEAdbkh2h9ZrI3yl6BtmBpsR/7iBUBSthwV5VxBerblXBjV8diNd6Pu1wZOjuwTZCc+DLgfe3gJkJQNTbnHiBLB9lgk67Gq89Mgf4dW0We7fzeiz5DdmBNwL0Z6EZCUDUczz3ASybaQk4I/HtvzSkq6VczPI/kM6cuSoDtxtpcBSZlWh+soNphEtQ2lecBH5OBAf+Rf2e1OagX/KXIqawO/vV7fS4GkzNqVCQaSCLfZgf7kvGl0j2Qo3w8UQg7E1bkm+J8i3OylQFJmncMqw0i063uuoXpgx+NBfJLSbs1h/0A/QxrzRAT139uLgaTMacT9xpDIt6cDmhmpzfWpvlW9lvMD/BTZN9inXn1zG+vlQFLm9Ar6B9Vusd0qjP2RDOXbHg3qVmF1rmJjFHU/zQuCpEz5fgp+Au/2+baRnyb8CdXVuJx1dopSSpkXzONHd+LVSGo+w1c8S8qMWtzihSx1twqbJPZ4bMsLdmiz7d8UJPwzpAZXRLR68zIvCpIyoTUjvYSlcJtGl0Qej6cG/vSkbD3L7KwEzzruw9sR1bqQhl4W0qa6JVCWPhoPtgwptDvjOC5hY2rEbQxL/GxNPrTift6hdwJHVsAQ3gn2F49b83+s9oCTVFXfc6VLyh/ckKSbIX2ZYU/K3Iq5j04J6lhDfsmKyGq8njZeGCRVTQ2GeMly4w5qJ+BorMWfKbIb5fqJwr9on4CO1eNKFkZ5PiiFqlkCZVB9HuJ4yyDgTU5hcV5HsDv3s6+NKLcNPMANvJ+3v785F/NjdoiwshvZjVkeYJIqrzXvOBfg9tU2k655/Or4Q9bYgwpvJTzLkXlYm7s7N0X8todbvTg4gyVVxR48l6iVHMq/pQxiTB7+3h24i2Msf6XN4i7u4dOc/F31OZUL6BtxNdfTOUe1lAFLUerNU7SwDNrCBs7ksRz/nUdxt0uKq6yEsQzjET7L2t9QhyMZzAk0jrySN/ITDycDllRZ3+Vu6lgGbUURF3NXzv62htwY5Lv2kqqYNxnBcCZl9E9tw1EczZEJfixt5qxhFxZ6IBmwpMq5nBs9krRNpfyGP+fkbzqQ++lswbNgPm8whlFMprgKf0oH+tKbQ9gzRZ8X13O1h48BS6qcX/Eni6DtuIXLKMnq31CTX/MralrqrFrDVCYymenMYjYby3GFaUMndmVPetCd1qmr11K6sNTDxoAlVcZ1XGURVA7DOJNNWfvTu3A/B1jknCphPvMppJBC1rPmi7hVjaZUpwUFFNCSnVK+dOAybvZAMWBJlTl6buAKy6Byep6T2ZCVP/kcbvFNb0qcaeyVxS8VSjzfRajKqsGdxitVwDE8Qd2M/6kteZJ7jVdKoCuNV+nmDJYqpzYPMNgyqIJGcBLrM/jnHck9tLWsSqCnOcEiGLCkiqrBfzjNMqgSXuAk1mXkT6rHdfzYzzAl0ka686FlSDdvEaoy8eoB45UqaSBPUi8Df86+vMtlxisl1E3GK/nxpIqH8rs51zKoCl7mBNZWKeJfze+oZSGVULPZk9WWwYulVLFI/k/jlaqoP09V4ef7O/EqfzJeKcF+bLySAUsVdT2XWARlIGL9hxqV+jcH8x6HWEAl2AM8YxFEJT/ilFbX+lhRZcgetOK5Cv47TbmLP2ThUQ9S5hRyAmssgwxYqohf8TuLoIzZlxq8VoF//khepLdlU8JdzFiLIAOWKuK7/NMfRSijDmV1OS9GdfkTt9LYkinhXuVnFkEGLFXEkQz1aFHGDWAGk7b7T+3NC5xkvFfiLecoVlgGfc5F7iqPnjzqr7aUBdW4m+O28xn1C96mq6VSAC5mjkXQ1x9v0vbsyFh2tAzKkrUcxn+38d914F4Os0QKwr2cZxFkwFL5NWc0u1sGZdF8DmDeVv7zwdxGM8ujIMygJystg77mLUKVrS5PGa+UZW15/Fuvz2nGwww1XikQRZxpvJIBSxXxT/paBGXdfty/2afR4UzkdMuiYPyetyyCNufvwlSWn3C1RVBOdKUmrwJQh+u5laaWRMF4jQsptQwyYKm8BvBv5ziVMwczg0l0ZTgnuzpUAZnLAN89qG/zY0zb0oW3XQGjnNrArVziq3AU2FF7KG9bBhmwVF6NGEs3yyBJZbqQOyyCtsYbQNr6cfGg8UqStuN+45UMWKqIaxhkESSpTOO50CJoW7xFqG8bwAijtySVaQEH+mocGbBUfq15lzaWQZLKsJZ+vGMZtG3OU2jLI+IB45UklamY7xqvZMBSRfyW/hZBksp0JU9ZBBmwVH6H82uLIGXQR3yHRZYhMjdws0XQ9rgGS19z9ZWUWbfzE9awD6/SxGJE4zFOo8QyaHucwdLXYfte45WUMYs4notYA0zgeNZZkEi8zFnGKxmwVBE/ZKBFkDLkBXryzFf/30hOYINFicBYTmK9ZVB5eItQn9uZiTS0DFIGrOOX3ETpFv/pyQylhsUJ2nsczjLLoPLxdBdAdZ6gi2WQMmAcA3luK//5NBZxnOUJ2Af0Z4llkAFLFfEzzrcIUpUVcy3nbPNXg+NYwUDvGwTqYw7jM8sgA5YqohsPUdMySFU0g+O5r8wF0G+xiGOMWEHGqyP41DLIgKWKqMkz7GQZpCoaxiA+2u4/NY6POd6fFwVmGkcwzzKoYjzN9Sv2swhSlRRyCqexvFz/7IOcR5ElC8gEDnH2ShXnVHXadWESdS2DVAUvc14FL8CDGEYdCxeE/3IUSy2DKs4ZrLQH7NuMV1IVrOMyjqzw/MYznObTlILwCv2MVzJgqeLOop9FkCrtXfbl5m898ao8nmYAhRYw4Z7gONZYBlWOtwjTrDnTaGUZqmQli1hCIYUUspH1rANWUUpjoA71qUkLCiiggJY0s1xRKeGv/JaNVfgTduN5draQifUPfupLcWTAUmXczgUWocLmMokPmcVMZjGLVRX4N+vTkU50pCNd6EFHz76gzeYcRlb5T2nFM+xvMROomCu52TLIgKXK6M2b3iIutw8YywQmMSljL8poTHe6sw+92cM+BOcBfsSKjPxJ9XmI4y1owqzhuzxtGWTAUmXUYjzdLcN2v8WO401GMYbFWfxbmtGb3hzMQT7uNQjLuIRHMvjn1WAIl1rWBPmMQYyzDDJgqXIuY4hFKMMiXmA4L+Z0GXIT+nM0R9HO8ifYK5yXhUdO/pAbqW1xE+E9TmS2ZZABS5XTjI8osAxbNYdhDOO/eVzc2pNTOY3OtiJxNvA//CNLR0ZvhtHWEufdfVzMOssgA5Yq6wautAjfsoChDGVspX50n3m9OI3TfYlRgkzmTCZn8c/fgWH0tcx5tJErudUySKq8nVlPqds3tmJeYjC1Etep6vRnKBvtUN63Em6jftb7XZPrrHXetk/p7cVBUtU87ofpZh+r19Ah0f1qzVXMsFN53OZyRM66fRZrrHgetjdo7aVBUtUc4ofpV9skzg1kaXENBvO2HcvL9nCOHxG7J5Osek63Iv7gL3glVf2m0zg/UCmllBc5Mrg1iAfzFCX2Lofbcs7KQ5/rcqN9ztk205VvkjLhbD9QKeVlDgq2g3vztB3M2W2j/P3I4Ejm24EcbA/SxMuCpEzcaPog9R+oo3O4niZbejDUS2OWt01cQ428drkpD9mHrG4ruNCLgqTM+H7KP1CncUw0vTyUCV4is7ZNpWciunwBq+xGlrZX6OQlQVJm1OKTFH+cLuWqyJ6VXZ1zWOCFMiuPZGiQmC635TF7kvFtGRf6FEhJmfw2nN7nXN0a6ZPrG/MXn5OV0W0+AxPX5dMM0hndhrKDlwNJmZy/SuuzlKZwYNSd7c5bXjQztD1Gi0T2uAlDKLY/GQnQp3gxkJRZF6fy43Q9v03BS3RrcCWrvXhWcVvJ9xLd5YOZZpeq+MOFITT2UiAps+owJ4UfqO/QNTUd7sQrXkKr9OvSnQM4i3/BcntVye2FFH0aSHL+KotbEX9O4NsFs6k6v2CDF9JKbBv5dZ4fyVB+LbmVTfasgtuHDPIiICk7l94PU/aBOptDU9lpX7NS8W0GfQLr8m4+B60C2yquoY4XAUnZcVLKPlIfpWlqe12fO72oVuCRDP9H/SD7fCST7d92t3X8g1ZeACRlz6hU3Rr8eeqfcHMB6724lmP7jOMC7nINzk3dzHRFtg38Hzv64S8pm/ZP0YfqYgbYcGAfZnqJ3c42gjbB97k6g/1t4VaffDeUzn4MSMq2R1PzsTqeDrb7Cy15zQvtNrfVEb2FrgZnGbI2exjD/XTxA0BS9u1CUUo+WJ9O0AtOkqA293m53er2dnQX4Op8lyl2lpXcwE6e+pJy45aUfLTeTk2bvYVqXEOJl90t1uhdF+2jZ/syNDVfp7a2ou4amnvSS8qVpqxJxYqLK231Npzrs7G+sX3MQZH3uzNDWJG6vk7k3BS8sUFSovw4FXMS59roMhzNWqMVpZRyH41S0fFGXMjU1DyIYSj9Pckl5V78j53cwMm2eTv6sSr14WoxJ6aq59U5nHsj7/s4LvLdgpLy46DoL5trOdo2l+tIWJbqePU8O6Sy7w05h1cojq6fi/gnPT2tJeXPPdHHq342uZx6sjSl4Wotl6b80bMd+BXTI+lmIXdypD9okZRfTSJf4L6BY21yBezPyhTGq0n0sPUA7MzljAr4V6VrGMogl7JLSoIfRf44wZNscQUdmrLl7kVcSy3bvpl2XMyIwH5ZOp0bOdIXNktKjpgXuBfzXRtcCUel6KENMznYhm9DY07jNj5I/PP2n+YSOtkuSclyQNQXzx/Z4Eo6IyWPHr3X35eVQ1vO5A4+SljvVjCc33CYc1aSkummiC+eN9jeKrg6+nBVyGDbXCHtOZubGJXnxzrM5kEupQc1bIhiUM0SRKom82gd6b49y4kU2+IquIUfRrx3r3Ae82xypee0etGLXhxAy5z8fRv5mPFM5X3+y2eWXwYsJd9ARkS6Z+/Qj7U2uIrx+1kGRrpv1/NLSm1xRqLWLnRmF3ZhFzrTLGN/7npmMZNZzGQGk/nEL0uK94NWcfpOpPu1gBONV1VWxBm8Q5dIvzQarzJjPvN586v/rzmdaE1LWnzxv1vSmiZQRvAqYQWrKWQxSyikkEIWM4eZLLC0SgdnsOJUl4VRLvHdxOGMsr0ZsSdv0SDC/ZrBLjY3x+pTh5pfvOdxE6uB1WyyLJJiNNjfDmq7zoj0KNnX1krKv+qWINJLZ4we4J+2NoMe5h+Rfr2QpLzzFmGMmvAZdaPbqw/ZhzU2N6NqMSbC+Z6Z7OI6LEn55gxWjI6NMF4VcY7xKuM2cQaroturTvSytZIMWMq8QRHu029528ZmwSf8JMK98iahpLzzFmF8arIog8+sSYaRHO7TcrLmMU6ObI/8JaEkA5Yyrh+vRrZHa9iTWTY2a1rwfo6e2p07ezLVxkrKJ28Rxie+G4S/Nl5l1RKujG6fjrGtkqTM+jCypxq97atfc+DpyI6aV22ppPzyFmFs9uD9qPaniP14z7ZmXQemfPEk7jhsoiUrbKuk/PEWYWyOi2x//mq8yok5/C6q/anFAJsqyYClzIlr7cl8rrWlOfJPpnsmSJIBS1tTlwOj2p+rWW1Tc2QTP45qf452AYQkA5YypXdUz3B/hwdsaQ69zPMR7c0O9LSlkgxYyozDItqXUq7wjXI59lM2RbQ3h9tQSQYseUnZ0lOMtaE5Np1/R7Q3h9pQSfnjKoWY1GcZtSPZl1J6MtGW5lwHPqROJPuyggJfsCQpX5zBiknfaOIVDDNe5cUc7oxmX5rQw4ZKMmCp6vpFsyfFXGM78+TPrI1mXw6xnZIMWKq6w6LZk6FMs515soA7PCMkqapcgxWPuqykViT7sg/v2tC82ZEZkRxJS2lJiQ2VlA/OYMVjr2ji1SvGq7yax6OR7ElzutpOSQYsVc2+0ezJDTYzz/4ezZ70tpmSDFiqmv0i2Y/pDLeZeTae1yLZk142U5IBS1UTywzWTT6/PQFu9qyQpKpwkXssGrKcGhHsx1rasdx25l1NZtM2gv3YRGPW205JuecMVix6RRGv4GHjVSIUcV8U+1GL7jZTkgFLlRfLrZA7bGViOlHimSFJBqy0i2Mx72TespUJMSOShe4uc5dkwFIVxHEj5AEbmSAPGrAkqbJc5B6HmqymTvB7UcouzLSZidGMzyJ4ffgmGrHBZkrKNWew4rBzBPEK3jFeJcoyXoxgL2rR2VZKMmCpcvaIYi+G2kg7kgW720hJBiyl9xJSyjAbmTBPRXFzzYAlyYClSorhlbYTmWsjE2YlIyPYi91spCQDlionhluEvoHQrmSHM1iSDFiqlGpRfEc3YNmVbH398NfSkvJwaVb42jEv+H1YQQuKbGUCzaRj8PvQPoIzRFJgnMGKQccI9uEl41VCeZNQkgxYKdUhgn143TYm1BsR7MPOtlGSAUsV1z6CfRhtGxNqlGeIJBmwDFhhWs0U25hQnzLbM0SSDFgGrBCNdQVWgo32DJEkA1Ya7Rj8HoyxiQYszxBJBiwlS/iL3MfZxAQbH8EZ4gNpJBmwVEF1aRH8PkyyjQk2hZLgz5EC2yjJgKWKaRf8t/PlvoUw0dbwSfD74CosSQYsVVDL4PdgMqW2MeEdCp2rsCQZsFRBzYPfg4k20YCVZd4ilGTAUgU1C34PPrCJCTfNryGSZMBKm/AvHTNtYsLN8muIJBmwDFhevmUENmBJMmAp5ZeO2TYx4Rax2rNEkgxYBqyQLA7+4p0GoYdg12BJMmApZQFrji00YHmWSDJgyUtHZi2xhXbJs0SSAUtJ08BLt+zSdjSxhZIMWKqY2oGPf7EtDEChZ4kkGbDSpZaXbmVd6DNYBixJBiyl7NKx1BYag7Ouji2UZMBSugLWWltol7Kupp91kgxYqpjQbxFutIV2yfNEkgFLSRP6DNYGW2iXPE8kGbDkhSOznMEyYOWCM1iSDFgyYMkueZ5IMmApn6oFPv4SWxiA4uD3oIZNlGTAUkVsCnz83roJQfiPOXCmVJIBS6m6cPiEohDU9jyRJAOWActLt4zBBixJBixVQei3CA1YBiwDliQDlhIn9B/Q17WFBqysK45gmb4kA5ZyKvQZrGa2MADNAx+/81eSDFhK2aWjwBbaJc8SSQYsJU3oM1gGLLtkwJJkwFLirA98/C1soQEr69bZQkkGLFXMci/dMgZvR6EtlGTAUsUsC3z8bW2hXfIskWTAUtIsDXz87X1LXAA6eZZIkgErXUL/bl6LdjYx4erRyoAlSQYsA1ZYOtnExHeommeJJBmw0iX87+YdbaIdMmBJMmDJS0dmdbaJdsizRJIBS8kS/gxWd5uYcD2C3wMf0yDJgKXUBaweNjHh9gx+DxbbREkGLFXM/OD3oCONbWOiPyXCD1hzbKMkA5YqZimrA9+Dat4kTLTONAh8D0r41DZKMmCpouYFvwd72cQEC/8W7mfBvxJdkgFLeTA3+D3obRPtThZ5g1CSAUupDFh9bGKC9TVgSZIBy4AVoo7saBsTqn4EN3Dn2kZJBiyl8/JxkG1MqAOo7RkiSQasNIrhBkhf22hnDFiSDFjy8pFZA21jQh0ZwT58bBsl5Vo1SxCB2qyhZvB70ZlPbGXiNGVx8MdWMQ1Zbysl5ZYzWDHYyMwI9sI5rCQaEEF0n2m8kmTAUuVMi2AfjrKNCXS0Z4ckGbDS6/0I9uFw6trIxH0+xDCvON1GSjJgKb2XkAZRzJbEpTdtI9gLZ7AkGbBUSe9HsRen20g7YsCSFAd/RRiHhqyMoJdracUam5mgr19zo5jBas4ymykp9x+hisFq5kWwF/U51lYmyCFRxKv5xitJBixVXhy3Qc6wkXYjwybYSEkGLFXeu1HsxXG0sZUJUS+SFVjv2EpJBixV3n+j2ItanG0rE+J0mkaxH+NspaR8cJF7LDowO4r9+IQulNrOBBhN7yj2ozWLbKak3HMGKxZz+CyK/diFw2xmAuzOQVHsxyzjlSQDlqomllshl9jKBPhhJLPb422lJAOWDFgAJ7OLzcyzZnwvkj1xibskA5aq6L+R7EcNfmwz8+yHNPRrhyRVhYvc49EymtUmq+ngwyHzqA6z2CGKPSmiOatsqKR8cAYrHouZGcmeNORi25lHZ0YSr2CC8UqSAUtVNzKaPbmSRrYzT2rwi2j25TXbKcmAJS8nX2vJD21nnpzLbtHsyxu2U1K+uAYrJu2ZE82+FLIzK21pztViOjtHsi9FFHgMScoXZ7BiMpdPotmXAq6woXlwfjTxCsYbryQZsJQZr0a0Lz+hwIbmWD3+J6K98QahJAOWMuT1iPalCdfY0Bz7BTt6NkhSJrgGKy5t+DSinhaxN1Ntas7syHQaRLM3myjwIQ2S8scZrLgs4IOI9qYmN9nSHLo+ongFI41XkgxYypyXotqbwxlkS3PkIL4T1f48Z0slGbCUOc9Gtj83R/NWvGSryT8jWzDwrE2VZMBS5rzGiqj2ZyeXuufEz9gnqv35kI9sqiQDljJnEy9GtkdXcpBtzbIu/DayPXL+SpIBSxn2THTH6L+oZVuzqBq3Ui+yfXIFliQpwwooojSy7be2NYsuju54WUFt2ypJyrSR0V0wN3Ggbc2S3VkT3fEyzLZKyjdvEcbomej2qCYP0tjGZkEt7qN+dHtlwJJkwFIWPB3hPu3sQ0ez4lr2i26f1roCS5KUHROju+lTSmlkD8JMgiMpjvA4ecTGSso/Z7Di9FCUe3UXPW1tBnXgwSg/AQxYkhLAlz3HeumcGeWl82P2Y7ntzYi6vMm+Ee7XKlqzzvZKyjdnsOI0h9FR7ldn7veYzZB/Rhmv4GnjlaQkqGkJIvUfDo5yv47jt748JwN+yA8i3bOhNjcnqtGCRtSkEdCQWl/8X7CJ1cBaNgArWEUhRRZLaT1JFKcCFkT6/PNSzuEBG1wlR/N0pF+uVtKKDTY4w2rRkV3oSGta0IpWtKQFLcs9l7yCxRSyhEIKmc1MZjGLlRZVBiyF6xmOi3TPNjKQ121wpe3NyC9mG2J0N5ez2iZXUXU605Vd6Mwu7EKHjMfxQmYxi0+YwiSmsdGCy4ClkHyH/0S7b8vowzRbXCk78hbtot7DTziLt2x0JdRgd3rRk33omcMIvonpTGYSk5jAQpsgA5aSrz7zaRLt3s3iYObZ5Aprzut0j34vi/gj17r2p9xacAiHsh975f2p/h8xhlGMYRqltkVScv0zyseNfrlNo5UtrqDGvB31MfHNbTSdbPh24/aJDGFiAh83W8gzXMU+TgFISqbukV9C36OZTa6A+ryRmnhVSikrONemb1UNDuXvvBvAc/w/49+cQXNbJilpxkR+CX0r4sXamVabEamKV1++NscQvnnIPpF7WBxYF4sYw2/Yy/ZJSo5zo7+AjqWpbS6HejyfwnhVSilz6Gf7gRZ8jydZG3Qvp/N7utlKScm4rBZGfwF9l5Y2ejsa8HJK41UppZQwhDqpnrscxFA2RNPPqVzD7p7UkvJtSAouoO/T1kaXoRlvpThefb5NYI9U9n4/bmZJlB0dxyU09uSWlD9dU3H5/ITOtnob2jIx9fGqlFLW8sNU/SatDVcxNfKeruZuDvIUl5Qvr6fi8rmY3rZ6K7ozx3D11fZsSh7tsR8PRHRLcHvbZC7zpwyS8mFQSj5m1/Ndm72F/iw3Vm22LWJQ1B2vziBeSmFf13Of67Ik5Vo13k/Jh2wxv7Dd33A+G41UW1nyfgv1oux3C37J3BR3tpjHnMeWlOsLbXo+ZP9DAxsO1OYWw1QZP4voGVm/2/CPwB/BkLkn+J9MdT8AJOVGHRak6AN2kgveaRf9I2arum3g59FchtsxhHX2dLPnZX3XkCUpN36Vqo/XZZGvs9meQ/nMi2w5tldpH3yvd+Rmw9U2lr6f7JsMJWVfc1anbJ3NjdRNZadrcg2bvLyWc1vKaUHPXN3CertY5tPPjvPDX1K2DUndh+vEFL5Uo5O3Biu8/TvIx1U24Hcp+9JU2W0sh/nxLymbOqbwF2Vr+VGqbhKczQovqJV6TG1Yvz2rzjnMs28V2B6lk5cASdlzeyo/Wt9MydNx2vCYF9JKb0VcR61AOn2As5SV+lHDEF+sIylbOqTo2c6bz2NdTc2oO1udS527ysCtpF0S3+lOPGqnKr19yrkue5eUHel9MtK77B9tV7sz2otnRraVfC/Bfa7Jz1ljl6q4vc1eXggkZV6bFD+KsIShdIiuo80Z4m8GM7o9RkEiO70X79idjGybGOLDiCVl3pBUf7Su4ZqIHt5QkwtZ7AUz49tnHJ2wTtfnOorsTAa3jznCi4Ek57Ayu83kexGsyKrO6UzzQpmlrZi/UScxvT6amfYkCzPat9HEC4KkTPqbH658wJkBv0ijGicy0S5meXsvEU9Ra8Td9iKLi96P9oIgKXNastyPVkqZwhkBzmRV5wTG2b2UPEXtAD6yD1mex7oppW98kJQVv/CD9YttFlfRNJi+1eEcptq1nG4v0jZvUfrylD5WJdfb++ztRUFSpi7Un/ix+tW2jOvYKfE9a8NvWWi38rAtysuLw3dipLXP2baOK3w+lqTMGOyH6haLmodzckKf5F2DY3g8ha85StL2f9TPac/P8DZ+zrcR7OCFQZlmbk9n10fS1zJsYSH38h8mJmhEu3MG36e9rcm76ZzF+Jz8TbW5gUsteB7MZzBjLIMMWKqqnowL+Hd02TSTZ7gvRxfTbduJExlMH9uRGEX8mT9SnOW/pSWP0M9i563Hv+Z6yyADlqrqPs62CNs0lecYwSg25fjvrcGBHMUx7GMLEugNzmFOFv/8PgyjjWXO8+fixayzDDJgqSp25IMcrywJzypeYQQjmU5p1v+uLhzMQAbQzLIn2HIu4eEs/dk/5EZqW+K8e5dTmGkZZMBSVVzFdRahXAoZw2hG8x6rM/wn16MHvelLH1pb5kA8wKWszPCfWZd/ca6lTYilDOZVyyADliqvFuPpbhkqoJQZTGIyk/mAmZUOW/XoxK50pzs96EwNyxqcWZzNqAz+eQU8TW/LmiAbuYh/WwYZsFR5vXnTpe6VtoSZzGIuhSxmCYUUso5SlgPrKaE+0Jga1KEFBRTQghbsSEc6OVcVgWL+lz9kaIXeLjzPrpY0cV+m/sg1OVgaIAOWonUbF1oEqRL+y1l8WOU/ZT+eMXIn1DDOYb1lkAFLldOEaf5uSaqUdfySIVX6EwYyjEYWMrHGcAJLLIMqyxtE6baCn1kEqVLq8Q8ep6DS//4lPGe8SrTejGRHy6DKcgZLLzLAIkiVNJ/zeKkS/94f+I3FC8BMjvCxDTJgqXJ24T0aWgapkkoZwi8ruFrnen5h4QLxKf2ZbhlUcd4i1Cf83CJIVfiaegXj2bsC//yNxquAtOONCnRX+opP4RGMZz+6WAap0lpyHkWMLccP+6sxhMstWFAacAYjmWchVNHvXhK0Y7IvaZGq6AW+x4Iy/4nq3M4PLFSAVnFMRh8vqxTwFqEAPuVHFkGqooFM4sQy/vsa3GW8ClQjnmM/yyADliruPwy1CFIVteAJ7tvGj0aq8S/Os0TBasyL9LQMKj9vEepLBUz2oaNSBszkLMZ86z/9iz8nCd4iDmOaZVD5OIOlLxVyvu/ekjKgE6/zP1v8hOgq41UEWvECHS2DysdfEeprH9GAPpZBysAn6xH041VWfPH/n88Q7xdEoQmDeJRVFkLb5ymvb6rJ60YsKUNW8nNuB05kGDUtRzSm0uer6CwZsFRO7Xm3Cm9Xk7S5//A4D1LHQkTlBY6jyDLIgKWKOYZnPS4kqQx3cb5FUNlcg6UtfUR9bxNKUhn2YYMPHpUBSxX1OofTwTJI0jYdwSdMsgzaNm8FaWvaM45WlkGStmk9R2zleWeSAUtl6s2rLsyVpDIspBefWgZtnQ8a1daN4SKLIEllaM0walsGbZ1rsLQtEyngAMugHFpAI4ugoLSnKcMtgwxYqpgX2Y8ulkE5MpN9GcsR1LcUCsgBzOY9y6Bvcw2WytKct+lsGZQDK+nDFKA1d3OM5VBA1tOHCZZBW3INlsqylBNZaRmUdZs4iSkALOQ4fsIGS6Jg1GUYTSyDDFiqmKmcwSbLoCy7mFe/+r9LuZH9v4hbUgh25laLoC25Bkvb8zEzOMmbycqi/+VvW/wnC7mHWvT2uFMguvMxky2DDFiqmMkUcbhlUJY8yg8p/dZ/WsTLjOEIGlsgBeEIHmG5ZZABSxXzJq3ZzzIoC8Zw0jZvQs/gPnZjd4ukANRlX+7dylcFGbCkMg1nT7paBmXYZAayqoz/fi0PM5MBPsxRAehAMW9YBn3JFQ4qr3q8SF/LoAz6mIP5rBz/3K484AyqAlDEwbxlGfQ5f0Wo8lrHCUy1DMqYTxlQrngFH9KHaym2ZEq4mtzlbKu+5C1CVSRiPcpxtLQQyoAlHMFH5f6nS3iVF+lHcwunRGvpbUJ9yVuEqph2vMEulkFVtJIjGFfhf6sxf+VCi6dE28g+zvULvEWoivqUfsy0DKqSdZxQiXgFK7mI01hqAZVgtbnLe0MyYKky5tKfeZZBlbaek3m90v/2MPZhpEVUgh3AJRZB3iJU5XThddpaBlXCWk7kpSp/bl3GX1xMrMRaRTfmWoa0cwZLlfER/VlkGVRhazi2yvEKShlCHz60nEqoRtxoEWTAUuVM41C/oanC8WpQFW4Obm4ce3OTz81WQp3CAIuQdt4iVOXtxEt0sQwqpxUczdgM/5lHcQ87WFol0FT2psgypJkzWKq82RzCJMugclnOwIzHKxjBXjxncZVA3fiBRUg3Z7BUNQUM9yUm2q6FHMOErH2K/ZjrqWuRlTCL2ZXllsGAJVVWI57hUMugMnzCQD7J6t+wJw/Sw0Ln0DJmMYv5FFJIIRtZ+dWrjJpQgwIKKKAFnehEmxRfZ27gpx4qBiyp8uoxjGMtg7ZhPMeyMOt/Sx2u5Uo/0bJqHeOZyCQmMY0VFehMZ7qzF93Zj1Ypq9hG9qzAC6FkwJK+pSa3coFl0Fa8yCmsztHf1Z97fT5bFqziVd5gDBPYVMU/aVcO4mCOpH1qavcfzvQAMmBJVXM113o8aQv384MqX5QrooDbOdmyZ8zHPMFwRrMxw3/unhzFIPqm4GdWJfTwzYQGLKmqTuffLjXWN/yFq/PwpKof8A8aWvwqms0jPJK1HyZ8rh2ncjoHRV7JxzjVw8mAJVVVX56kwDIIKOJK/pmnv7szD3CALaikTTzNHbxESY7+vj24gLNpEW09S+nFux5WkqqqCx9R6pb6rZD+eT0Oa/IHiuxDhbdFXEPrPPSrDufwXrRVfcYLg6RMaMFIL1Qp36bSOQFHYh9m2IsKbB9xEfXy2rEBvBhpbZ1PlZQRtbjJy1WKt6dpnJAjsTH32Y9ybbP4ATUT0bO+vBZhfZ/3siApU85mrZetFG4lXJuwX4adzlL7Uua2hB9RO1E9O4J3ozsv9vSiIClT9vYGTeq2dZyTwCOxfZRzIpnZNnFbIpeXV+ccPouq0nd7SZCUOQXRrqhw29r2AXsn9EiszlVssEPf2kbRNcGfH024heJoar3eR+CmTw1LoKxZx3+oS28fBpIKD3E8cxI6tlJG8zyHRvwogIpbxU+5lEUJHuEGnudVDqJlFPWuyUZe8bCTlEnHsdi5gsi3tVwYwJFYn1spsVuUUsqrdAjk86MOf41kHmupj7+VlGmtGe4lLepbg3sFcywOZL7rrrgmsHsXhzM3ispf7sVAUqZV52o2GkWi3B4I7Ht5a55Ldb9m0CvAT5CCKLr2scslJGXDAXxiHIlsW8kPAjwSq3Fpah8i8kKwr7Kqzu8juFXY3wuBpGxozIOGkoi21+kU7LHYNbonLZVn+9/Af9Z0HCsD78DDXgYkZcsZLnmPZFn7FQl7oGhF1eYvET0EYPvbRr4fwedHj8BXY62P5DeRkhKpFcMMKIFvb7F7FMdiLIunt78tj+bmVLvA5x5/6iVAUjYN4lNjSrAzIddRK5ojsQkPpKBnhewf0adHQ14JuBfTXeguKbta8JBhJcBtHD2iOxbPDX5lT9nbfLpF1rH6Qb8j4mA//iVl24ksMLIEtK3gskjf/bAzY6Lt2jy6RNixOjwbbEd8K6GkHGjCEDYZXYLYnqF9xEdiTa6K8kltixL9tsGqqB3s44uXUcePfkm5sBejjC+JfzjlMSk4Evfnw8j6tox9Iu5Xfd4ItC+D/NiXlBvVOI+FxpiEbhv4M/VSciQ24u6oHqVxUOT9asrUIDvzgB/6knKnGf+kyDiTuO159kjZkXgqhVF0rphTU9CtnYJcx7kyNV9ZJCXEPrxmpEnQ9h4DUnkctuPlCLr385R0a19WB9idk/24l5Rr/VP5CpPkbZ9yYaS/GCyPalzO+qD792CKunVGgP3xlTmS8qAG30vN87WTua3itzRI/XG4d6Drez6fe6yfql7dGFyHVqesQ5ISox5Xscyok5fntN9OGw/AL47CmykJsIdL2TllnarFyOC6dIwnmKR8KeBvrDHy5DRc3ZW6S/P2HB3gIurTUtin9iwNrEs3eXJJyqdWXM8qo4/hKo9+HVgn/53SPp0WWJ8+8tSSlP+ZrD+y3AiU1XB1J5080LYhrJtPM2ic2k79O7Dzrosnl6T8a8pvI3k6UfIeI2q4KkvjoF6gU0L/FPeqGfODOvd+7OklKSmXuqv8dWFGt8X8yQXt23FiUB1N+2uETw3sIb6SlBi1OIOxRqMMbNO4yKdJl8OtAfX0M5qnvl9PBvUqI89ASQlzAA8FdeMmadvLHEM1D6Ny+Sigvn7fdtGRdQF1rJ8Nk5Q87biWJYalCr8D7XZ6ePCUW9uAejuO6jYM+FNAPfu17ZKUTHX5Di9RbHAq1zaGH9DQg6ZCTg9oeXtf2wVAA+YF07XhtktSsueyruITA1QZ2zJuYy8PlEq4JZgeP2mzvnJhMF1bkeL3fUoKRHWO5OHAX8+bja2IlziDOh4glTQxmPkrA/TXavFxMGeofZMUhOacz4tsMlhRSjEjuZQdPCiqoFkwt5+H2qzNnBPMefpDmyUpHC24gJcoSm20KmEMV9DOA6HKBgTT8e42azM1gpnDetBmSQpNSy7i5ZTFrGLe4mfsZPMz5JculQ7WpYH0bqatiplPw1HMmnME/Tk2+vmcpbzCyzzLfFueQY9zUhDj7M8rNmsL9ZlNi0A+o5bZLkmhqs6+/IaxUc5nvcu19PW3SFkxO4gjYKKN2qpQnod1sK2SFL4CvsMdTIsiWH3I3ZznSqssauUy6aDtFMhPFC61VfHyFqHSeOnswyH0ZW9qBjbyEqYwkjd5kwW2McuO5IUARrmWtqywWVs1nKMCGOVtXGyrYlXTEih1FvEETwAN6U0fetGTtgkf8ULeZQJjGe16jZzpGsQohxqvtunOIAKWr66KmDNYEjSjG73oRS92T9Ab3RYwnvGMZyozbFHO3cH5AYyyH6/bqm2oxWc0T/woV9OYUpslKX6NuSsRKzOep5nNyKvRAazfWeDPG8p0dxCrsHa2UbHy/evSN61kYSLGUejNwDwL4RbhoxTbqDI84pEmA5YkJUkbmgYwymE2qkyvUBjAKJ3BMmBJUmp0DmCMyxhjo8pUxEsBjNJ3LxiwJCk1OgUwxpcoslHbMdxjTQYsSfKiF1t4yH+NSjzWZMCSJC965ecbCLdvMZM91mTAkqSkSP7C4znMtU3lMDrxI2ziI1kMWJKUFu0TP0IXuMcSsJzDMmBJUmrsYHAwYOWML203YElSKjSlbuLHOME2lctsliR+jC1skwFLktIg+fNXpUyxTeWU/GXuBiwDliQZsBJhJittUzQBq8AmGbAkKQ1aJX6EU21SuSV/rs+AZcCSpFRI/s/mP7FJ5TYj8SP0FqEBS5JSoUniRzjLJpXbzMSP0BksA5YkpUIjQ0NE5lKc8BE6g2XAkqRUaBxAaFB5bWKBgV4GLEnKv+TfIlxskyog6U/Cqm2LDFiSlAYNEz/CpTYpooBVxxYZsCQpDZI+o7CWtTapAgoNWDJgSVL+1Uz4+FbYogpZbqCXAUuS8q9Wwse3wRZVyMbEX4dr2iQDliQZsAwMYUl+IPUmoQFLklIg6fMJzmDFVi9vEhqwJEkKTIlXYtlWScq/pN+Cc76jYuomfoTOSRqwJCkFkn65M2BVTB2POBmwJCn/kj6D5ZLouOpVyiabZMCSJANWvjW2RVHVy1+FGrAkKRWSfsOmYQCripKkwONNBixJyr/kzyg0t0kV0MKAJQOWJHnBCz8yGEfjCvQyYElSBqxJ/Ah3tEkVuMq19XiTAUuS8q8w8SPsaJPKrV3iH2ux2CYZsCQpDZYYsCLSyUAvA5YkecErj51tkgFLBixJCkvyZ7C62aRy29PjTQYsSUqC5M8odKG+bSqn7h5vMmBJUhIkf0ahBnvYpnLq4fEmA5YkJcFSShM/xp62qVxa0SbxY3QGy4AlSamwKYAfzve2TeXSJ4AxLrBNBixJSofZBodI9A1gjDNtkwFLktIh+Ze8LrSyTVEE0TU+aNSAJUlpMSvxI6zGobZpuxqzTwDHWqmNMmBJkgErKY62Tds1gFqJH6M3CA1YkpQaIVz0jqaajYoghBqwDFiSZMBKkB18VMN2VOOoAEY5y0YZsCQpLWZTEsAoT7VRZTqIdoZ5GbAkKTnWBzGvcLo3Cct0RhCjnGajDFiSlB6TAhjjzvSyUWVc3U4JYJTr+MhWGbAkyYCVLGfZqG06nLYBjHIaxbbKgCVJ6TE5kIBV11ZtwwVBjHKijTJgSVKahDGDVcDJtmoblTnBIC8DliQlzcesDWKcF9qqrTqPOgYsGbAkKWlKmBLEOA9lf5v1LTX5cSAjnWSzDFiSlC6hrI653FZ9y2B2CmKcn7HIZhmwJCldxgYyztPoYLO28DOPMRmwJCmZRgcyzppcZbM2cyz7BDLSUTbLgCVJafNRMLdvLqCT7fpKNX4XzFgNWAYsSUqd0mBu4NTiV7brKyexXyAjXcd7tsuAJUnpMzqYkZ5LV9sFQE3+GMxY32GjDTNgSZIBK8mx4ibbBcClAUVNbxAasCQplcazPpixHsFxNozm/MYALwOWJCXbhqB+Rn+D7yXkWgqCGesmA5YBS5LSakRAY+0S1OxNNhwUyAuePzeGlZ5gBixJSqfhQY32F/RMca/qcGdQV7Thnl4GLElKq8nMC2i0NbmDWqnt1W8D+yXlCE8vA5YkpVdYl8FeAT1kM7P6BvY8+wW+5tmAJUkGrHD8kn4p7FIT7qdGUCMeTqknlwFLktLrZTYF9pn+74B+SZcpt9PR4C4DliSFY0VwP6bvwH8Cm82pqis5LbARb+IlTy0DliSl26PBjfhI/pCi/vTm+uDG/CLLPbEMWJKU9oBVHNyYf8nglHSnI48H+MvJYZ5WBixJSruFvBHcmKtxH71T0JvGPE3r4Ea9gSc9rQxYkqShAY65Lk/TJfK+1OIxugc47hGs8KQyYEmSHqMowFEXMJy2EXelBvfT38AuA5YkhWoJrwY57l14LcAbaOVTjVs5PciRr+dZTykDliQJ4JFAx70rw2kWZbz6BxcGOvbnfMmzAUuS9LmhrAp05D0ZRZsI49VlwY7+Hk8nA5Yk6XOrA14305XX2DGiXtTg7oDj1Tyf4W7AkiR97Y6Ax74bb7JHJH1owBOcF/D47wnwqWoyYElS1rzNewGPviOjo3gJ9A68zqCAx1/CXZ5KBixJ0jeFfWlsxgjODbwDPXiLfYPeg5eY7YlkwJIkfdP9rA16/LX5N7dRO9jxf4cx7BT4MXSHp5EBS5K0uRUBvvZ5SxfyapAPH63FP/gPDQKv/kKe9jQyYEmStnRTBPvQh4mcENiYO/E6l0dQ+3+xyZPIgCVJ2tL4AF/7/G0teJJ/UT+Y8X6fSVG8uHodt3oKGbAkSVvz90j24yKmMCCAcbblce6iYRQ1v5dFnkAGLEnS1jzL9Ej2pBMvcA/NEzzCGlzGB5wUSb1LuNHTx4AlSdq6Um6IZl+qcR4fcTk1Ezm6AxjNkEjmrgCe4kNPHwOWJGlb7o/qRk9z/sEE+idsVJ0YylscENVxc4OnjgFLkrRt6/lnZHvUnZd4lT4JGc2O/B/TGRxZjd9ilKeOAUuSVJabWR7dPvVjFMM5NM+j6MhNfMTFAT8MdVv+4GljwJKUjIcZ1qOarUio5dH8lnBzR/E673B6ntZk7cvDfMSPqRthZccw3NMmjfwQlz63M/3py6F0SMh4VvE2LzOad9hocxKmIZ/QKtq9W8B93M6MHH6ZOI4LE7cOLJOO4FVPGknpsytX8AxLKU3otooXuIoeNipRfp7Y4yUzWzEv8j2aZbmKNTmKe1gVeS1f83RJK2ewlFb1OJRjOIZdAhnvPIbzPC+z2tYlQH0+YYfo93IjL/IEI5if8T+5Af0YxCkUpOBYOdgF7gYsKS2acjyDOTygl4V885I3kkd5nMW2Mc8uY0hK9rSUibzASMZkYHF/LXrRlyM5hDopqd4LHOXJYsCS4teE4zmNAcF/uBfzGkN5giW2NG/q8kFi1uvlRglTGctEpjCpglGrNl3pTnf2Z3/qpapmpRzAfz1ZDFhSzGpzHOcyMKrvzUW8yv08xjrbmxff4T+p3ffPmMlMZrGAQgopZAUlrGcdNWkENKIpBbSgNTvRkU50SOjT4rPvfs7xRDFgSfHanfP4XrS/+lrJw9zvKo+8fHq+wcGWQdu0lt2ZaxkMWFKMGvIdvs+BKdjTydzF/Sy15Tm1L2/7LEFt02/4k0UwYEnx6cRFXEDzFO3xBobyVybb+hy6h/MsgrZqLruz1jIYsKS49OUyTkrpuo/RDOFxij0IcqI1H9LYMmgrBvOoRUi3GpZAUanJmTzA1XRL7a2bDgzmuxQx2ZCVA2sg6meQq7JG8guLkHbOYCketTmXq9nZQgAwn79xm7cosq4O77G7ZdBmNtHLm/VygaZiCVcX8jG3G6++0pYbmM01NLUUWbWB71FiGbSZ641X8hah4ghXl/A436GJpdhCfQ7jIqozgU0WI2vmsQP7WQZ95QPOpMgyyFuECv0IPpVr6WwhyrSYP3OLH/lZ05gptLcMAqCU/rxqGeQtQoWtP+MYarzarpb8gykM9gtVlqzkYougL9xmvNKX3/+lMHXjH/5+q4Le5nLetgxZ8TCnWwQxn66ssAwCZ7AUpibcyHvGqwo7gDHcFe1Lg/LrchZbBHGJ8UoGLIWqGucwnStS+/rYqp7x3+cDrqK2pciwhZxLqWVIudt52iLoS/6KUGHZm8e4jIYWogrq0p8TmcIcS5FRH9OGfS1Din3AKf5eV9+cDZBCUYuf8AfnXjKklDv4OSstRAbVZ7wPHU2tTfTlHcugr3mLUKHozUSuM15l8MvVhUznRAuRQWs5k42WIaV+ZbzS5rxFqDBmBv7IHS7OzrhGnEE3XvOFOhmzgI0MsAwpNJKLXYOnLb/FSkl3CPfS0TJkzSLO5xnLkCHVeZEjLEPKLGFvPrUM2vLDQEqymlzDq8arrGrF09xHAwuRESWczizLkLKen2W80rc5g6Uk68gD9LEMOTGdM5lgGTKiJ6OpZxlS42qutwj6NtdgKbnO4Vlfg5MzLfg+NRjpOpIM+IzFDLIMKfEUl1kEbY0zWEqmBtzOdy1Dzo3gLAotQwbcyQ8sQgp8wP4+7EQGLIWjC4/R3TLkxVwG+77CDKjDm+xnGSK3mgOZahm0dS5yV/KcwjjjVd605w0utAxVtoFTWWgZolbK94xXMmApFDW5jmE0thB5VIfbuJ/6FqKK5nAcayxDxH7JoxZB2+YtQiVJM4b5DKGEGM/xzLcMVXQSj/o1NlK3c5FFUFn8FaGSY2deYX/LkBBt+Q4jjVhVNJ3VDLQMERrBWZRYBhmwFILevOQDRROlEWfyPtMtRJWMpYADLENkpnAM6yyDDFgKwRk8ThPLkDC1OZ1qvG4hquQF9mZ3yxCR+fRjkWWQAUsh+AM3UdMyJFA1DqMtw338aBWU8gyH0d5CRGIp/fnIMqg8H59SvkP+P7nYMiTaU5zBestQBU14mX0tQwRW0p//WgYZsJR8tbmf0yxD4r3OCT6vukpa8DrdLEPg1nGMt8xlwFIIGvCYv7EKxHiOcd1JlbTiDddiBW0jJ/G8ZZABS8lXwAhvmwTkQwYwxzJUwU6MpINlCFQRp/GEZVD5+Qg85UsLXjFeBWVXXjMeVMls+vtksUAVc67xSgYshaAZI9jLMgRmZ96kk2Wogo/owyeWITgb+Q7/sQyqGG8RKh9a8jI9LEOQ5tCPGZahCtrwksvdg7KBM3jSMsiAJeOVjFjJ1poXPQOCsYaTeMkyyICl5GvK694cDNxMDuZTy1AF/sAjFMs5hrGWQZXhGizlVn2eNV4FrxMv0NwyVEEhR/CmZUi8xRxuvJIBSyGoxTD6WIYIdGM4DS1DFaxkAA9ZhkT7hL68axlUWb6LULlTjbsYbBki0Y4DeYRiC1FpxTwOHGYhEmos/ZlrGWTAUghu9J2DUenEnjzqa6Cr5HXmcbSfwwn0KCexwjLIgKUQXM2vLUJkdqcxL1iGKnmXtziBOhYiUW7ifDZZBhmwFIJT+Je/WY3QgSzmv5ahSmYwguNobCESYhMXc60zs6o6L3nKhX0YSQPLEKViTuRZy1BFLXiYIyxDAiziDF6zDMoEZ7CUfW15hRaWIVLVGcRzLLQQVbKW/1CHPn7lzbNRHMFky6DM8HRWtjVklE++itxsDjBiZcAJ3Oetwjy6nR+58kqZ/PYpZTfC3228it5OPEFty1BlT7E/71uGvFjP97jIeKVM8hahsuvnXGERUqA9jRlhGaqskAfpTFcLkWPvM5AXLYMMWApHP/7tLGlKHMhMJlqGKtvAMGbS3wc35ND9nMg8y6BMcw2Wsqc942lpGVJjDQcyxTJkREce8KVSObGY83naMigbnF1QttTiIeNVqjTgcZpYhoyYxWH83hcRZd3L7G28kgFLofmr38BTpwu3W4QMKeIaDmOmhciadVzBkcy3EMoW12ApOwZyszegU6gbc3jPMmTIHO6gJgf5RTgL3uQ4nrMMyiYvgcqGlkxiB8uQSmvoxQeWIYP25k56WYYMWs413EyJhVB2+c1I2YjtdxuvUqsBD/pMrIx6jwO5mvUWIkOepTtDjFfKPm8RKvMu43KLkGJtqcUrliGDShjNo/RgJ0tRRfM4h9+x0kIoF7xFqEzrxjjqWoaUB4J+jLQMGf+0Pp2/0N5CVNI6/s51rLEQMmApTNV5k96WIfVm0t1LWRbU4zJ+RSMLUWHPcpm/yVRueYtQmfVzvm8RRDPq+OqRLChiNPfRkh5+Oa6AdzmD61huIZRbnqTKpF15j3qWQUAxfXnLMmRJH/7KQZahHD7lGu52SbsMWApbdV7nYMugL0ynp799y6L+/C/7WoYyLOFv3MQ6C6H88BahMudSLrYI+koLqvGqZciaGdzJJLrRylJsRSF/5Lu8RpGlUL44g6VMac0HvolOm9nI3kyzDFn+DD+VP7KbhfiG1dzimivlnw8aVab8zXilLdTmJouQZaUMoxun846lAGA+V9Oeq41XSsK3HykT+vCmR5O24jSGWYSc6MtlnJzqZR8fcQu3ue5PBizFpAbj2csyaCvmsQerLUOO7MJlnE/9FO75aK7nWUo9BJSkC6NUdT/mPIugrWpMdV+ckzPLGMGdFNKR5qnZ5xXczQX8Lx/afiWLM1iqupZ8SFPLoG3YyJ58ZBly/Ml+GBdwMnUi38/R3MEw1tpwGbAUpyFcZhFYRSGFwGo2ATVoDDShpUv/gWGcZhHyoICzuYCuUe5bIfdxJ+/bZBmwFK+dmUbtVAaqKUxmJjOZxRwK2biNf64mBbSnIx3ZmW70SOVcXykH+iu3vNmH0zmNjtHsz0qeYigvbvOMkwxYisRDnJGivd3Eu4xhDBOYUckFtTuxN73pw77R3775ptfp56mS10/6/TmNwbQPei/W8AyPMMLfCcqApTTYl3dSchR9xHCGMzJj6z3q0JujOYruKTlSjuV5T5c8q85BnMzR7BHcyBfzAk/znKutZMBSerzC4dHv40SGMixry7Q7cAqns3/05+JkelLsCZMIHTmKozmchokfaTHvMJwRjPd1zZLSpT+lUW/z+TO75+iS92tmRl7NszxhEqU2R/AXxrIxkUfLB9zNGRTYJoXLGSxVxRscEumelfIit/FMTl8VW53+XMiJ0T6dbhp7Og+RQPXYj4PpTe8E/ABjI+MZwyjGsMjGyICl9DqU16Pcrw08yA1MzdPfvjNX8L0Abt5UxukM9bRJrOp05QB60J0eOZ45Wsf7TGIy4/kv62yEDFjSS/SPbp/W8y/+woI8j6I5V3AFjaKr7mT28mUmQWhLd/aiO13oRKus/A2rmcknTGESk/nI1XkyYElfO4gxke3RJu7kz3yakNG04BdcGt1b5U7mCU+dwNSnE53oREc60ZICWlBA9Qr+GStZzBIKmfPFk+NmssTCyoAlbd1zHBPZ/vyUDxI2pvZczxlRnaUT2Nc5rAgUUEABLahLdZoA9agLNGU1RRSzEljLBopZQiGFFLLJkklS+fSI6vdt0xmY2Er3ZnxUtR7oySNJ0rbcHc0FfxPXUTfRta7OhayKpt4+blSSpG1oxbpILvf/pUcQFd+ZVyKpeEmOniwmSXn+bixV3CUJn/Mpn1Juog+TghjrDPpzBRsiqHo1LvMEkiTp2+qwIIKZlNkBPiS1J9MiqPxqmnsSSYqdM1iquDPYIfh9eIP9GRncqN9lvwge1dmACzyJJEna0tvBrwK6LuDX0VTj5xQF3oFZfrWTJGlz3QO/uK/nO8H34ChWBt6FIz2RJMXN75GqqB8EPfqlDOSh4Hswgt7MCXoPvu+JJEnS1+qwOOhbU7tG04l2TA56HrHAk0lSzJzBUsWcQItgxz6TfnwYTSc+5RDeDjion+XJJEnSl0YEO2cyhTbRdaMJo4LtxyRPJkmSPteO4kAv59NoFWVHGjI22Ii1ryeUpHh5i1AVcVqgR8wcjmJRlB1ZzVGMD3Tsp3tCSZIEBDpbMo+OUXelJdMD/clBNU8pSZI6UBLgZXwVPaPvTCc+CzJiHehJJSlW3iJU+X0nwBmHYs7k3eg7M5PjWBPguL1JKEkS4wOcI/lxarozOMD5xbl+xZMkpV3nAOPVfanq0F8C7FBfTyxJcfL7o8prUHAjnsjFqerQL3khuDEf54klyYCldDsmsPGu5GTWpqpDxZzDZ4GN+VhPLElSmjVkfWA3n85JZZ+ODG4l1k6eXJJi5AyWymcAdYIa72MpW3/1pRe5ObARH+3JJcmApfQK6zL4GRemtlNX8UFQ4/UmoSQptaoxL6jbTqemuluHBHWbcC31PcEkxccZLJVHV9oFNNoneTTV3RrJ7QGNth69PcEkGbCUTocGNNY1/Cj1/boqqFdbH+IJJsmAJQNW0v0vn6a+Xyv4tUeXJOWTb7NXeXxK20BGOpfdU/b0q219dXqbfQMZ6waasc6WSYrtY1jant2CiVfwC+MVACX8PJix1mF/GybJgKX0CecWzhSG2q4vvM7LHmGSZMBSch0czEh/Q4nt+kY1QuEyd0lSCk0L5IlK41xTuIXnAuncMjsnKTbOYGl7GrFrICO9nlLbtZnrAhlnUzrbLEkGLKXLPoEcJbN4wmZt4U3eCmSkvWyWJAOW0iWUS9+NFNmsrVTFo0ySDFhKoH2CGOVq/m2rtuLxQB67asCSZMBSyoTxuMqHWWmrtqKIewIJWH4WSYqKv91R2eqxOohL3wG8Y7O2qiOfBNHBXZhhsyTFw2+NKluXII6RycarbZrFK0GMczdbJcmApfTYI4hRPmSjyvCwAUuSDFhKlt2DGOUwG1WGx9lowJIkA5a87FXMOD62UWVYzktGeUkyYMmAVTFP2abteNKAJUm55a8IVfbxsZKGiR/lvoy3VWXakTkBnOvNWG6rJMXCGSyVpVUA8Wox79qo7ZjHlABG2dFGSTJgKR3aBTDGEZTYqHJUKfl2tE2SDFhKh/YBjPEN21QOIz3aJMmAJS955TfGNpXD6ADm+drZJkkGLKVD8i95y/jANpWrTtON85JkwFIyJH9VzNuuwCqntzzaJMmApWRI/gzWRJtUTpMMWJJkwFIytDQ2GLBypoVNkmTAUjo0MzYYsHKmiZ9HkgxYMmAlQalvISy3QgoTPsIaNLJNkgxYil9t6id8hPNZb5vKbZaBXpIMWPJyF0NkSJKZHnGSZMBS/jU1YBmwDFiSZMBS2gLWZzYpqmo1tUmSDFiKX93Ej3CJTaqAQo84STJgKf9qG7Cikvxq1bJJkgxYil/yL3fLbFIFLDXSS5IBS17utm+tTYqqWgYsSQYspUDyZ7A22qQK2GDAkiQDlgxYMUQGqxXXESdJBixVWc3Ej3CTTYqqWgYsSQYspUCRETAqyY8vBmZJBiylQPJXONWxSRWQ/BVO3vKVZMCSAcvIEJg6HnGSZMBS/iV/PqGeTYqqWgYsSQYspUDyL3fNbVIFFBjpJcmAJQPW9rWwSVFVy4AlyYClFEj+5a7AJkVVLQOWJAOWUmB94kfYyiZVQEsDliQZsJR/yX+VckebVAGdEj/CpTZJkgFL8Ss0YBmwPOIkyYClzFrPmoSPcEdfrhJVHF1ikyQZsJQGSb/g1WAXm1ROTRK/Ym0Tq2yTJAOWDFhJ0N0mlVMPqiX+aCu1TZIMWEqD5K+JMWDFUylXYEkyYCklkj+DtZdNMmBJkgFLBqzM2t8mRVMpl7hLMmApJeYkfoQ7sLNtKodGAcz1zbJNkgxYSoeZAYyxj20qh4OoYcCSJAOWDFjldbBtKoe+AYzRgCXJgKWUCOGSd5RtiqRKM2yTpHhUswQq03KaJH6M3XjfRpWpBQsD+DLVMPFvDpCkcnMGS2WbFcAYncPanoEBnOkLjVeSDFhKjxBWYZ1gm7bjeKO8JBmwlCSfBDDGvrSzUWVowHEeaZJkwFKSTA7iKD7VRpVhEPUDGOUkGyXJgKX0COOyd4aNKsPpRnlJyjV/Raiy1WEVtQIY555MtVlb1Zq5QXSwPfNslqR4OIOlsm3gwyDGeb6t2obzgohXS41XkgxYSpcwbhKeTV1btRXV+H4Q4/QGoSQDllImjEtfgeuwtupIdvUokyQDlpInlF93/dQVhVvxM48ySTJgKYnGBTLOPRlos7awF/0DGel4myXJgKV0WcjHgYz05zZrC78IZJyrmGizJBmwlDajAxnn4fSzWd/QNZh1aW9RbLskGbBkwEqqP9qsb/h9MOf3aJslyYCl9BkTzEj7cJTt+sLenGKEl6R88XdXKs9RsoTmgYz1ffaiyJYBLzIgkJEW0ZxVNkxSXJzB0vaVMjaYsXblIhsGnBpMvIKJxitJBiyl06iAxvr7YGbbsqcufwlotN4glGTAUkq9GNBYC7g+9f36DZ0CGu0LnmCS4uMaLJXvOPmUNsGMtpQjeTnF3erO+CBe8Py59RSw1lNMUmycwVL5IktIc1jV+D/qpbZXNbgzoHgFI41XkgxYSq8RQY22c4pvE17N/kGNd7gnlyQpvZpRRGlAWwnHpbJPvdgQVJ9K2c2TS5KUZqMDu3B/RqvU9aghHwXWpRmeWJLi5C1CldeIwMbbmoepmbIe3UXnwEbsDUJJUsp1D2xupJTSlK3E+mmAHRrgiSVJSrv3g7t8lzA4Nd05jE3B9Wdx6uYYJaWGtwhVfkODG3E17uXAVPRmF4YGGFYe9b2RkiTtHuAtqFIWB7cuqeIK+DDI3vTzpJIkCSYFeRl/n4Kou1KfMUH2ZQE1PKUkxcpbhKqIoUGOeg9eplm0PanNoxwU5MgfpdhTSpIk2CXImZJSShlDwyg7UoOhwfakryeUJEmfeyfYy/mrEUas2gwLth+znD+XFDM/4lQxdwY78n68FtlarDo8wqnBjv5uSjydJEn6XCNWBTtnUsqEiF6f05jXAu5EEe09mSTFzBksVcwqHg549D15iz2i6ENbXuewgMc/grmeTJIkfW3/gOdNSilladDB5HPdmRN4F07wRJIkaXPvBX5x38AlQdf/tKBv05ZSynxfkSMpdt4iVMXdGfj4a3Mr91M/yLHX5DoeDv73kPf4ihxJkrbUNPgZlM8XvO8WXOXb80YElS+ikyeRJEnf9o8ILvOlrOVyqgVU9ZMpjKLuQz2BJEnamk5siuJSX8qTtAmi4s24J5KKl3KAJ5AkSVv3SDSX++Vcnvi1iIOYG0293/DkkSRpW/aP5oJfSimv0z2xld6Fp6OqtQ9okCSpDG9Eddkv5r4EPuW9AdewLqo6f+AvlyVJKsvxUV34P38E6dU0SEx9a3Mp86Or8YWeOJIklaU6U6O7/JeykCuol/fa1uJ8ZkVY3fkJqK0kSQk3OMIIUEopi7guj78tbMjlzI60sj/ypJEkaXuq8W6kQaCUNfwfe+e8orvxN5ZHW9PZ1PGkkSRp+46PNgx8vv2XC2mak0o24GzeoCTqal7gCSMpTXMQUlW8Ff1jIzfwEsN4kpVZ+vPrMoDBnBT8+wW3Zxa7sdETRpIBSyqPgYxIxX4W8TbP8DITKM3Yn9mJAfRnII1TUcFzuc/TRZIBSyqvN+mbor2dz2hGM4aJlZ6NqUlX+tCHvuyUorp9QDeKPVkkGbCk8urNqBQeR0V8wGQmM5OZzOKz7fzTLehER3amG93pSu0UHiUn84SniiQDllQR/+E7Ka/ABgq/2EpYx3qgNg2Agi+2tD/96VWO8DSRZMCSKmZHpifoCehKmmL2YZJlkJQuNSyBqmwltTjMMmgb/sU9FkFS2jiDpUyox7RULdlW+S1jV5ZYBklp45vtlQnr+KVF0Fb93nglKY2cwVKmjqSRqXpcg8pnGnuxyTJISh9nsJQZpZzPesugzZRwofFKUjq5yF2ZUkhNl7prM//HvyyCpHTyFqEypzYT6GYZ9IUFdGW5ZZCUTt4iVOZs5Ae+DkVf+aHxSlJ6eYtQmfQpBRxgGQQM448WQVJ6eYtQmdWQKT4RSyyj63bf0ChJEfMWoTJrNed4m1D8yHglKd28RahMm00D+liGVLufP1gESenmLUJlXi1Gsb9lSK2Z7M1KyyAp3bxFqMzbxJmstgwpVcSZxitJ8hahsmEpyzjOMqTS73nQIkiStwiVLU9ygkVIndEc6o8cJMmApewpYBwdLUOqLKEXcyyDJLkGS9lTyImstQwpUsJZxitJMmAp2yZykUVIkf/hBYsgSZ9zkbuyaRKt2c8ypMJTXGYRJOlLrsFSdtXiVfpahuh9yP6ssAySZMBSruzABNpYhqit5kCmWgZJ+pprsJRtn3GCi92jVsxZxitJMmAp1/7LuZRYhmhdyVMWQZI25yJ35cL7rGeAZYjSDfzRIkiSAUv5MZqWvgA6Qs/yA0otgyRtyUXuyl2Yf5zjLUNUxnEYayyDJBmwlE+NeIOeliEan9CbRZZBkrbGRe7KnVUM5H3LEIlPGWC8kiQDlpJgMUcywzJE0smZlkGSDFhKhk/px2zLELgVHOVcpCQZsJQkcxjAAssQsDUcxwTLIEkGLCXLRwyk0DIEah3HMcoySJIBS8kzmSNZYhkCtIbjed0ySNL2+JgG5cvuvEw7yxCUFRzLaMsgSQYsJVknXmZnyxCMZRzN25ZBkgxYSroOvEwXyxCEhQxgsmWQpPJxDZbyaQ4HM8kyBNIp45UkGbAUiIUczljLkHBT6ctHlkGSDFgKRyH9eMgyJNgr9GWuZZCkiqhhCZR3xTwOHGYhEunfnMFayyBJBiyF6HXmcbTHY8KU8gd+QrGFkKSK8leESo4BPEpjy5AYGzmf+y2DJBmwFLq9eNwnYyXEZ5zGm5ZBkirHRe5Kkon05EnLkADjOMB4JUmV55oXJcsGhrKOw51bzavbOZWllkGSpLgcw1JK3fKyreP7HoCSVFXOEyiZOvM43S1Dzs3gFN6zDJJUVd4iVDIt5R5q0duvADk1jOOZZRkkSYrbAOZ70y5H2wrO9oCTJCkdWvK04ScH21vs4sEmSVKanMNqI1AWt01cRy0PM0mS0qYrYwxCWdomc4AHmCRJ6VSNC1lpHMrwtpHrqOPBJUlSmrXlcUNRBrfRdPWgkiRJMJiFRqOM/Gbwcl+UJUmSvlTAbRQZkaqwlfAQ7TyQJEnS5vZghEGpktt4DvYAkiRJWzeIT4xLFdwWc7lvb5AkSWWpzeWsMDaV+xeDQ2jsQSNJkrZvB25ivfFpu48SvZuOHiySJKn8dmSIIWubWzFD2dWDRJIkVVwHbmOTcepbvxd8hr09OCRJUuXtxn1sNFZ9NXP1GD09KCRJUtXtwDUsTX24Ws997O7BIEmSMqcRlzM7teFqEdfRxoNAkiRlXi3O5J3UhaupXEQ9my9JkrKpK9exJBXRah1D6U81Wy5JknKhLoN5iZKo562uormNliRJubYHf4lwXdYCbqaXzZUkSfnUjWuYEUW0KuQ+BlHTlkqSpCSoziH8kwUBR6u7ONJoJUnJ5qJYpVU3jqM/h1IrmBG/zzO8zEg22jxJMmBJSdacI+jPsbRL8BhX8zrP8DzzbJckGbCkcFSnK33pQx86JWhUnzKKMYxiIsW2SJIMWFK42tKHPvSmO3XzNIKNTGMMoxnNLNshSQYsKSY12Ilu9KIr3did6ln/+5bxPuMZz1Smst7yS5IBS4pdY/agE53oREc60YHaGfgzi5jLTGYxk1nMYDpLLbMkGbCk9KpOO9rRggIKKKAFLWhBA+pQH2hMDWrSCFjDRkpZDqxnHWsppJAlLGEJhRQyn3kUWUpJitf/A1Rl5f80jEgsAAAAJXRFWHRkYXRlOmNyZWF0ZQAyMDIyLTA0LTA2VDE5OjA4OjQ0KzAwOjAw4X1K9wAAACV0RVh0ZGF0ZTptb2RpZnkAMjAyMi0wNC0wNlQxOTowODo0NCswMDowMJAg8ksAAAAASUVORK5CYII=;" vertex="1" parent="1">
                    <mxGeometry x="-714" y="-405.27" width="107.27" height="107.27" as="geometry"/>
                </mxCell>
                <mxCell id="59" value="" style="verticalLabelPosition=bottom;html=1;verticalAlign=top;strokeWidth=2;shape=mxgraph.lean_mapping.push_arrow;sketch=1;hachureGap=4;jiggle=2;curveFitting=1;fontFamily=Architects Daughter;fontSource=https%3A%2F%2Ffonts.googleapis.com%2Fcss%3Ffamily%3DArchitects%2BDaughter;fontSize=20;fillColor=#FFFFFF;strokeColor=#4D4D4D;" vertex="1" parent="1">
                    <mxGeometry x="-551" y="-367.65999999999997" width="149" height="28.63" as="geometry"/>
                </mxCell>
                <mxCell id="70" value="stream" style="html=1;dashed=0;whitespace=wrap;shape=partialRectangle;right=0;left=0;sketch=1;hachureGap=4;jiggle=2;curveFitting=1;fontFamily=Architects Daughter;fontSource=https%3A%2F%2Ffonts.googleapis.com%2Fcss%3Ffamily%3DArchitects%2BDaughter;fontSize=20;" vertex="1" parent="1">
                    <mxGeometry x="-876" y="-370.9" width="100" height="30" as="geometry"/>
                </mxCell>
                <mxCell id="72" value="" style="verticalLabelPosition=bottom;html=1;verticalAlign=top;strokeWidth=2;shape=mxgraph.lean_mapping.push_arrow;sketch=1;hachureGap=4;jiggle=2;curveFitting=1;fontFamily=Architects Daughter;fontSource=https%3A%2F%2Ffonts.googleapis.com%2Fcss%3Ffamily%3DArchitects%2BDaughter;fontSize=20;fillColor=#FFFFFF;strokeColor=#4D4D4D;" vertex="1" parent="1">
                    <mxGeometry x="-141" y="-367.65999999999997" width="149" height="28.63" as="geometry"/>
                </mxCell>
                <mxCell id="74" value="" style="shape=image;verticalLabelPosition=bottom;labelBackgroundColor=default;verticalAlign=top;aspect=fixed;imageAspect=0;image=data:image/webp,UklGRlpKAABXRUJQVlA4WAoAAAAQAAAAzAMAFgEAQUxQSHckAAABHAVtGzkJf9g3fwCIiAlAfmu/4yo9Aiob5thfGFcuc9obtu2q7bT/dz/PiLvjFqC4u7tDiru7u7u7u7vmQ70NVHHPp7i7fbBIE3YCO+MZ435BZGev+YyVrvl5ERET4A3b/0VO+/97Zi0hixQv7EIFqSvuhboLJbi3b6R0A3W8RrG6Q6mSFi2lAoXiJEGTOjXcHWIb2WzmeYNkX4/na2bemeVWREwA/p9ZQc/tFoXUxERwOo9GqIeJYrcpPKUupthhInlsTUyx/URG7lcPC1h9LGPm3rUwxTLvMTJx3zqYYtl3GZkzd6+BBSz+DiN/sVP9K6D/E4ycyg61L0XfkTRObce6l2LASKY8jZ1rXoqeD9Ey62EKXMSUWQ8T4CwysR4mgjPIxHqYKI4gE1vTREMlq4hIoYhiy4k0tqhVuoqGEFRFygJbjqGxVa3vYitU8vC+vXthekWDqkgRKEaMo7FlbaWvp0yc1Nahk9qmHi4IFxSEC84NhwvCBeGCcsMFFU5qm9Q27UltbW2T2traJn3z6v++8vsbbjp7z53WXGSBPoqpa1AV5wJW+YGRrWs9T4ys9vYx34z+222n77buwoMVv9Sg4pdi0TcY2cIG7DmZU3LlJpt6zpymff/u49cftN5C3QBAg4pLikVeZWQrmwj2mcLIys45JbNomVON3z55/b5L9wKAoOJOwPDRjGxpgwh2/o6xsqYzp2Qx8Zf/eemm3RdSAEF8UfQaxcgWN4hg9U8YK2/qOZslkvz28WOWAKDiiKLX3bTcMTu2kgGKlT5g9GGq2SyTHPPwr7sDKl4o+t7HlNkR5HatZQhY/g1adoNkTpZI/mO7noD4oOhxL1NmB23bYgbFvH+mZUd+mSLJ5w/uiuCBAGczJXZM5natZggY+Eda9oXMRvKOwQjVJ8BxZGKH7dRyhoAhf2ROzpA5Zv5tYahUnAiOykzsuB1bz6AYeAOZvCFz5PtrAVJtAbsaEzuMHNGCBgXOIZM7ZOS4fQGtMsUG39M4M7ZsRYMCZ5LmD428tBtCdSk2/pbGljsocGI7zR8a+dCc0KpSbPwDjS14EGC78Yz+MCW+sgpEKilg8c8Z2ZIHEWw9gdEf5shvtwa0ggLme4GRLXoQxbbjGf0hI9uPBbRyAuZ5hsaWPYhg3bdpDtHI6/ogVEzA7E/S2MIHKH41mtEhJvLxhaBSJYpuD9Nyax8CFnqFlv1hNr65JiDVoeh5K1Nmix8CFnqCKftDRo7bDdCqEPS6jTmz5Q+K/vcyZYcYmc/rjlANArmeKbMGgIBe9zAlh2jkI8MQqkAER5KJtQAo+txFJoeYEp9aAioNJ8AB7UysCUDR89xMc4jZ+MkWgDaYKA5oZ2JtAAockWgOkZGTDgO0sRQ7tdNYI4AChyeaRzTyut7QRlKs8x2NtQIIsPdYRo+YyD8tgCANo1jnaxprBhDBel8xesRsfGttiDRIwFpfMbJ2AFGs8xWjR8yR320PaEMEDH+fkTUEIGDtT2jZITKy/bSu0AYIGPp3RtYToFjsKVr2iEbeOwja6RSz/ZXGugIUc/yTlj1iSnxmSah0LsVsf6Pl+gIC5vgHU/aI2fjRJoB2JkXXB2mZNQYEzP4wc/aIjGw7DNDOI+h6LVNmrQGKLpczJ5cYyUt7QDuLoOvVzJk1Byj0ctJcYiJ/Ow9UOoUIzmFObICtW+ygCJeQ5hKz8Y1VodIJRLBnZGIjbNtqB4UcMpnmEnPkNzsBOtNEsFsbE2sREGD3yYwukZFTjlfozFLsMZnGmgREsOskmk808rbB0JkTsPlkGhtkRAseRLD1FzSfmDKfXBgqM0Gx8ueMbJQtW/EgimXeZvSJ2fjhhhDtMMWKHzOyYUa05AEBS7/DmF0iI8fuDWgHBSz7ASMbZ9sWPQQs+yYt+8RIXtgDoUMChr7MyAb6daseFAv8mSn7RCMfGgaVGVMM/AONjbRlyx4U/R+lZZ+YEl9aASIzohj6R6bcUFu17iGg/yPMySdm47c7ADp9ikF/omU21DYtfFD0u4lMPpGR7ScpwvQocCMts7G2buWDAqeS5hSNvK4vwrQEOJ85s8G2bOmDAqeS5hRT5qjhUJmKAOeQibUOKHBCpDnFbHxnNYgAEMEpZGLNAwJsN4bRKdL4w96AQhQ7tTOx9gERbPodo1c08tKeCILtJ9BYA4EoNvqG5hWNfHguYKcfaayFAIpVX6N5xWR8YZFNfqSxLoKABV5kzE4xG7/8lsb6CAIWfImWnSKNTKyTQLHQE8zZK6bMegkUA25nzl5VZSa3qAtA0fUG5lR2mdvVBhDQ5ToylRwT960PQNH1TKMVXCa3rhFAgUMSreSmrF0ngAgOSbSSW7dWAAH2n0grtzhrztvgulv7jH7lvRkTHh/4YLeG8QSIYN2PGYutbcVZbe6OM347w6rHV0ztkRwvgChW/JCxzBI/mR06C61a989PMrphTI1bAJOdMyBgpY8Yc4kZ3x00C+2mFSWML0yIaRYDWzhpUCzzPHMusvcGzzK7aBGL7qB4AgLm+BtTkT3bHTJLLPmFQpb9Lr6AgLk/YSqxByGYFd7zAEu/EWdQjJjIXGL3zRJLeIflR8UXAlb6nokldil01pf7U9bwrriCYoFXGVngiYcizPLyLmQdL4snCHr+npFltv+sr6QfWMeyxDiCCC5iyiWWmTaa5eVdy1rupziC4oDEzBJP/HFZt0bPUu9uTa56VzWpZm8TWM91cYSADScwsdC+mBfqU8MIq+9yWU+DZ9dHmJlPpPXy2NaVJZrMiR8oFvmQxjI3ju4N8eklRj5gNTVmFnKMO/vYlGszazo2bqCY6xlGFttj4lTiCchai7n8X1ZMS7alMaxrSrxA0OMRRpZ65M0QuDyYsVdbSqtcVs6ubkOXhgWiR35e9umi9X8ej57TMk4ggguYcrEZz4b69AtolpU0OsrAnzz2s5jRh6Zd5aYKPS1D8w/UjBMo9jAmFnvmbggudWFwQU0L2cDQF2ynbgS05TYXCTt2AauPobHYM39e3aklKH7aOu5jbDhgN6MZ+6aXxJ26gPnforHcE78dDvXo4ihst9syNoH4Nbv5DVLYnTR06BQDR9FY8MZX+0E8epXxD1pF3TLULpu5gaFDKV4hCLfTWPKRD8El/1mBdVbRm+FN7eVtyOcUrxDBaUy56IxnQ+HwSJa8xiKexXWzFd8pxM7kuIVix8jEks+ZuyI4lPC3yEcW8Tquj620YeQwilcELP8NjWXHthWgDt3BogW1rOG1/w+GI04nxysCZnuZkWVvfG8IxKEfZfgZa3ga181WZiGmUpxC0PMRGovvUXh0mSG0x20JD+Oa2Mo2xPVxChFczJTL73go/H2PpR+yhBoR1E6yU08RIM8dp1AcTGYWfmb7Oh5dUCC23hJoBWqmrVzNwJUUn1BsOpGJpZ/43jCIP0+y/LWW0BaU38BW+iMmxScUi31KY/EbR0LgrnuvBnMsgdIwY8lWpyL6xiUUQ59hZPknHoXgz4OsYbi2Jfh/Rix22cuHiDvjEYJwF43lnzhuaag/63XgZy2BAv+orUwie52HaBOHEMHJzLkJMI5SiDvXsZZ73ZZA1b9XMF52k80uRzSLQyh2j0xsAhOPQIC7nwD+Q3B3a6CEnv/Gsrw12W4monb8QbHm9zQ2gYljl4C6U7cI0GcjYoNFELlveW3bgeKcnSufvops+E+A4Yo7KIa/y8hm0DgSEHcmsPrJxH4Ivs4qbP4g4CzFGxR9RjGyGczkCAR46z0MeI2SziA+rhTkAXbHGwR6LY1NofHFvhB3+jDwMqI3EeHalQED8HO8QXEcc24KMvNOULi7FbCeiK5G8NjKAAOz4gyKET8zsSmMfK4bxJ22DOxNRJSJ2Oc5/0Wx/Oc0NoWJcWco3J0HOJF4zkAEP3zei2KO0YxsCnPiqRC4GygFvErnJucgNp7vouj5KI3NofG2rh5NYXXjsnLoXQRff36LCC5iys1B5L8GQOFu0knAOir/Osgn57coDiYzm8LIjxeFwt+hDOxdAW1BFNY5n0Wx2Y9MbAqN4zaEwuHfACcSKxqC4HHnsSgW/4SRTWFi3hcKh7sy8FWq2J+L2O85b0Ux4AlGNoU58SyIeLQUYDSPgT5AcI/zVQRd7qaxOYx8qBsUDl9aBlhHsd4IST9/5VTm3BxEjp4LCo9fZ2CvmGg7gm9oTQnYJTKxKTR+uSwUHlfNAZzwxfY/yKctKQGrfktjU5j406+hcHkUA2dS7NXyEYVDW1AU879KY1OYyWOhcDnhX4DRXIFmI/i01hNF/78ysinMxisB8ekuBq4l1ZaQL7q0mghwPY3NYeTv+0Dh80pELyX6BcGdysXb+Pqu3QfvNmK9FfqWlbdJyy539Rg0qMddXVo28VbCFIeTuTmIfH1uBPh8hQE47lMbAXm2TBr1emNTEVecP/ltGSW2f2r26r1Rjjm6d83spzokVqYCtviJiU2hcdwaCHD6AwbOJPUaYQSXLw//oA0Gq04sH+/t09KLGV6cPu12byUpYKlPaGwKE21PKJyuGQYYzQD0MeTuBhqXBbxc7Oks9euVLp6Tz8BvANw3ugM7IpyFnWt1ntvmnGHx03Nu82hVY1sWsptWo7KQo7RKWJ0FXDLzFEOfpbEpzJmnQ8Srpxm4lpBtIT8Na5xZDGwh9iKrP6hQfXoxQz8EMJoNnGVt9WaeZE1PzqynEaUz8gOtfmHkr1pdz8g3Zpqg64M0NoXZeFOAwGn3PkRPCP2O4OmujAYMj23YCQa/WjB1phewxuEZdfUJQfbpdAljL9VpAqTDTAPOZcrNQeTf+kHhdXcGHvdhRkG+6OpJf8DkWC5YyvBnimXQhfmsecG02roEDARfq1Eq6EmdNiMOJMwsxS6ZiU2h8YOFEeD2RsQMwtYsRHBnT+4GvB3DjbsZ/3ihDDxvIk2YP6WWHpQOGavROlCGRvXKEG/RTBYMfYeRTaFx/DoIcPsGBhrNQPQ55GlPOgI+r6hvMQs+WiQ9z/4PGzTvpWQtQpBMfWpHQWUX6jOQkR2lFEczsSlM5AFQ+P0ZYg2hO0C4oiPXA76pYEAZS95dIvP/mw38ezMdAgYiWkebAYweps9CxCGXkGLOD2lNQTZeCYhf9YoRPWG0A3KPI80Aa8vrX8ai1xfIxmPZ0Dn3a0DpCO6nzRLYCm28uYh3SOwoJjaFkSN7QeD3JAYe9+FSIT8N86MhIKucXmUse0lxyCmJDW5MccmFIPN1SQ7DSmro0o2RnYUEg16jNQWRL84Jhd++o4gZhK9VhOAZflQH7Djn6kIWPqM0+v6WFbiqjljAQJzxaHIf4/vq8hrisEsoYGsyNwPGz5ZEgOP9GGg0FaA0yJdd3XAD9hCR/2+WPqYwFnuPlbi/lRSlI7iLJp8ILNblX8R7JCy4h8YmMHHS5gjwfDtiDUl2hnAXN6hU7SgRzWXxA8pi84msyOL+UiHITD3cJwUKqujRnJE3CSmGf83UBGTyaAg8b8/IFBH6B/KMHwVqOUQPs/yuRbH8JFZm9A6hgIH4S4/OLHmfHqMRR11CATsw5ybAeC2cW4A45pN5EsKV3DitFibfbg1GlMScX3HmFu1YPXfGmF5duvQaM2Pu6h1FMpx7tQylI/hSLV4X+UyP1Yj3SVhxA43lH/l4Pyg8D5YippNs3RLIF7ZxRK0dx7Gj07dvvP9tYTnd/o9IzmLJ8KIUPyn6ey4OS/C++jIhSEiL3SKnPTpUjyC6CQn6v8ZUfpFv/woK16cy0GgqRPMgxfXtYq9aGjy+A37+7cFbrThnF/zSe8n9kxZfRUTjZgERJ2dhx1lIwmLGhxel+AnqT1kUxvGWKiIBA7FSh2tYtpsO3Rl4zC2kWOtn5uIzjlkdAa5XOYVYTdJdITzJLv5V4yec0fjYXv3QWRFZpK1ppjDcmF2bBGvPNmC8MEGC0hHFVTWYKPSuDp8iPiThgONpLP3EKTtB4fujjEwRS9gJOeS1iR2AGf35rMHoxDbUj+FZbUi4dRaMp4iEEPygBtlCBxPkXMcQN0sJ7iu/nHgqRJz7A3HMJ0bPQLiPTfwh9cyi6NT2064YdWaki8RdI8+geIBEwEDMkbuIpVvLtWbgcbeQoP+rTKVnvFsh8P1mRk4n+foRSKZN/Coz4WBB0bj/ZHBmXdKybiYqp44ApSMOJ4g9LjZN7gXEbBJWLD+RufAi/zkYCue/QxhNNaCFEG5tD9kiH8yDzm47Qxm8yk+a+leB+C2JEIJbiK0R+0cuG3GrVMDuTCz7yI8XRYDzTcoQq0nHWzFp9pAl8eFcKJzkw6CliaRt4lJQpIlAwEBMlqpVKsZXSgUYeNIjpTifVnbGSZsiwPs3GdlDi4TdkOILbe7jeVA64xmb5iGNPWkYXihA6YjtUv1YfoLUI4g5JCzA7wovkQdA4H21XMQxrxY0FsKT7e3TeVE6dXMxc12ktWsuhtsIhBDGhUKL1Y6qZUstRdwuN+htppLLiZeiAEKMnEZ6NiiFHPbZmS2P4nmboTv9pLl/FyZdIGAAeIhMlQKlszeo8UUySQWAUx4pxdL/YS65yJHdIfA+YSfCaKIJLYFwXzu7DMXTJAKJtiPt20UhfD+O0hFLZO5h5TT6W220zO0M/JikAzZl0UW+PCcU7t/DyFWk6x2YTTb2Sa/yWcDQl8mEL2P+8eBCiDyfyBy1B+hFtQ0y7yDu1OBQJpa78asVEeD/KkgPbVz7INzGvjZB8VzF0GyvGbzZEO6PCxgAvlXCdVwpvwpdqxatK7IHcNorpriEVm6JP22JAP+vYuRRrzY0AfOlbY1E+UyHRK8kU14ZhazBUTriTYmOrLyAiP5T4qESVzLwU5IW4H8Yiy1nHgtBAc6CTCN9A1FIyYV2tXb5uA5BFpJJF0LKgrgQYqfEq2opRPSK2jKJZxB3adBnNK3YjDdLEdQKI4wmGtG3EH7ept5H+dzC0HZmaQfh53ABA8CXC+xUKqxKRDeqFVcT2AA44xNTzPc1U6lFPtYHigJ8lpGrSOe7MUd89nRCAX0B2UKm3QLZgaN0xJO4q1j5Gzp3txL3xNWKAj4nDZaeUGyRby4IRQF6DkAe1sp9AML9bGnKbOXjOgPpaZ6eEG6CCyHW4car9StnhtoCXG8G3iMXsAWZy8w4di0ElGAPRh71akXPYzbb0u9QPtcxcr/HPJ79kKG4gAGI1IBtVyqpUU5rtbxEWBrgrE+HvZjLLDHvDkURZkCmkt6NyyDc1o6OKKBUyEQy8UTIFzjKAHAKqhErL6Py9yvx3Sj3acBcklecS2OJ58zTIVIELRhpXKoZ/YD5yo5WKaAlkPZmag85IBBCfIF6TG1IBa+pfYzqwMD7tLi20Ix3CgRF+AXkJ9L9PkxJA/tp714+CacQYa+ZvGEEX4ILGIATLtAqpdLaFbRTO+EGTQXkJGoguK/MIv/eH4oirF8CeVg7z2EIv2g/L6N8GjFyFZl6FeQBHGUAuB2mZkRpFVWYcEiJu4D+AKSRvKD7s0Vm/GhRBJTh84w86tWOXsIc8dnOdQXUFTLeXOMhTwmEEFMwfVh5eEX0ltpbmIsZ+IAWvV4pscTJmyOgDH3HIFNJ/4vLINzfdg4ooEchHc3VETJLIGAAfsUsVIrWj6GT2n7MSEBukgaKOT9hKq6cuR8CCnEAI8suNQH9iNliO9sU0AxEkc9cviLEGgHKAHAjRFK+0gaK0XVUiVtAlgO+Ig0DlpnAXGKHAlII2ZCfyIwPYbid3axbQEsQu8nkuxH7JUKI4Yi7WDkUC72nNgXhLwI8qMeyEwuMmTxfoUXQkaGTWpixbT5mnt0sXUCbEVvNthURkQgYgO8Rs5WMYEw3qf2FuJfV86rosdpPJcZEXiTQEliEsdKShjYzTwH9jlhmtmUI9glQBiBcRc11TGkzxew+rsSXAT4EzCc9dmUuMSbyYoH61zhqdfySzfQpoD2Iz832OaSmRAjAd6m1Z+UnY6MP1Z4DHAR01+RgJhZ5Iu8cAnVvOlv+0UR7QQGdQLxqtlchjSSCBuB9tRlqlyjcorZN7XpWz0/W5KBSY0r8y1AE55JPWx8PcBrCiOfM9hzkcgnKAOxT+08pmxQ9p5SMoNJ4wELS5JBiYzY+Ngzq2zC2wa1OQxTxmNkeg1wvEgLwNSpXsPJYFZqjxKOUNgN66KG4lFZqzMa/D4e6tsMOuL3DkI+YYLYJkOYiQQMwVmWsWnOlO9TWqtQrUytI1kNwf8ExG99bDerYrWyL8x2Go4g3zfYmpKEIZQAyVbYq/UHK3jNKpbUVBrD6IqoEkZGfrYbg1w/2EAk4C7sQX5rtS0gNmVRAtHZsAUNpshp9qsSDFBYCelaOGPnZ6lBxqplhD/yys/ArYqXZVkLcMkFDjfvFNoKVrwbcrfZdbN4ctbC/ksTIb3YCxKe32SaPJToKGYhss2Ujikg4AzAvtpVKfxPQl6NUVDWmrqz+NVWWaJxyEEQ9qp5nFzzIUZiH2G+2/Yj/pFIBZzyx1IgoTUHQXCV+OKbXAL1sJ1n2isZ4EKAOjWbb3OYovISIVjNXtShiuVTQUOMusfRi5Rsh96t9FdM/aoVV7SaRTF7RGI8C1B3XLvvgDk7CQATfYa47Gfm2FGUAZsQyX2k3QZPylXJ8MTRj9W/IZowf3NdO84pGXtcD6s19bKMLnIQOkGnmmgYJiaUC/oohMU9pJobmKfEdMYwG9LEZ4ycrY88xjF4xkbd0hzqzxk4iQQehHmSzuTZD7hQLGmp8aUV3sHJbUHe12TGsUiuqZi/G/6wLxbrv0rJTTIm39YS6cg3b6hQHgQ4iSquaqWoppL4YZQAer+hDpQMJoOQCpWOuCqqXqH1LtmL8eS+oBCz0L+bkFHPi7+eDevKRvRxPchDSEHybmW5j5N8knwpYWUHCEaW3CL1QiTtW8BCr97MVY/s+EAEUg24hzSlm4wvDEfyoXQiJdGlhgTMxPNhBeBTyhpnegHyoQdBQK65aXltW7gRLUXutgk/UiqrbSWLcDyIAoNDj2hmdYo58cQGoG2MZuoissF4JZruD0Bxytqp5qp6F9NaAMtT4gfKmKR1xwfyFSnvKcx1T+45sJGWeDhFMVYHtv2bMPpHGl5eCOuE5iOlmCfQlhjs6B3QEwaPMM4qhDXVIBcwp7x+lDwi/RImvL6cVqw+wkZx5TVcIpimKlV9jyk7R+OWmUHGhJ0P/SbCGDqCFDsJ7kJ0us7h2QraQjkFD7XDCOVew8s0CfdReKOcFteIa9pETr+0CxXSKYu5HSXOKkWO2gIoHmzBjyCJ/w0SCzkFbCN9rlnsZOkoLylDjFuc8q3TSI1C9WOmPcrLVfiDbyMYbAxTTr+h2IRmdYuTYrSFSfa0YWlTLKoZh+BXngHZC1pplLSRSR49UwORzNit9TJLfKXFTIgoYagNtI0c+1heKGVXgwAmMTtE4+WhAKy8N8xlZZdVczPEk52AyhLuaoytDvyM9g4baNiJqaCjdKdJf7WkieoSVSy6wDeMTc0Mx4wJs+AEt+0QjTwG04hpEMG0tg97B8BDn4NIoZF81M1Tfh3lIE8pQM+oTDWPVsz6RC0qUNhPRN2rLyS4in5gLio4UxeJPMSefaOQpgFbbiwz9hazzKlCWc0AfQ/hjM3zM0J8TdElV48FEPyp9QbLLlIyGlFSgNtguIl+ZCwEdHDDoXtJ8YiIv6gWtssTjmGEWQusx3Nk5CBZB+F797mXsraRr0FD7mqqXKN0vNFiJR9DtrBypaRORX66IgA5XdD3lZ5pPTOQjg6AVNoiheVWtJAW0yDmg6ZijtXWrfQzzE+mboZbrS2HVvCShWqVKq+httRVkD8av1oFiJiqw9f8xZpeYE383CKG6fsa8T1bqPYopbeQcXHAGwst8evmWMdS4QaNUNb7lK6X5JL1SKVJzj9pQezB+tQ4UM1UEq77KlFxiNv5+CEJVdWbstZZCL2J4qnNAT2N4WZJOScsZm0YaBw2173OUeog9qsRprBypbQvGtk0QMLMD5v0daS4xG59bEqGivsZkkrU2imJOVHEOkg5geI1fH/8axpZcrBNlqKmH/WJ1okrAlWQHxnQwFDM/oNc1pLlEGt9eCqGSLopi+lsMLcHwUOeABoE4o7ou1TMY/DppnSq3hORXyz1qB4l2GEQ6ARQ4bDLNJ0a+vTRUKmgmQ08lWc0toGwHwfUniLc30KPBdgbn1NYraIj11WC4WGkdG0jMhwOCTinA5h/Rsks0vr8+RCrHfxbzKlltwr8Y7uIcUPsSEOeG3HLuUC6jB5LmGVLF1TWoXya1iqwvJ54HCDqpCBb9B1NyicYf94RI1YxgqNHMcmgM6GsHgQahmH9pJ9XuF4ZPJ91TpX4gHddL/c/6cuJtPaDovAGD7iXNJUa27wWRakn4G7OKrLdmIaa0sYNAr8LY+Ki2RO2PDIYvdWkXNIQGazFKqLSu5eXEO3pC0ZkDwlmJ0SVG/rQXoJVyO2O7WxB9jOFpToJrGYw5vCjFj/GnLAoz/hc/6Z8hE6mlRUNDZg1ZXY58oAcUnVuB3cYxZo9onHK6QqtkOeawx4pagk5WcRCo+g4cM4cXpfhV/D0Xh1nyaCMyYarMT6Rnhsxwy4t8ZhgUnV0Ea7zJlD2ikZcKtDqaG5gXyZK3YvgRJ4EuPSXBzEU7Vs+dMaZXly69xsyYu3pHEcsWtSYzBg2RYZqMFonWszrjC8Oh6PyiWPDPZPKIibxCoZXxLkOjjaxpIOgXR4Fuisho3ovMmSkRradJI0NiHVlc5AsLQNGQAb2vJM0jJvL2IdCKqJGP+ZasucppDN/kKNCAiFUYT5FJUyXWk66bJUZaXOR7CyGgQRU4ajKjR8yJ/5oXoRqeYOwdFkUzQUucBep0zBpy7iGzBg2BUdo8KRC90Noix6yPgIZVYIvPGLNDzJFPzo1QBa49mD0uq2pqYEovchYosNUK/mhK5s3EGQFtLhZYT5ZmHLM5FA0sgiWeY0oOkZFPLACtgAcY+xxZ9goMT3cYKPFj8y3wk4lTcZtI3+24UZZm/GEzKBpbMfv9pHlE47trQBtvHaaknnXdBzpZxWEgGhExV/QpMnXQgD2h0bOwsgZWZrQdoGj0gG4XZppHjPxibag02LWMnUfW7d6P4UcdB+pw1EwnupHJM2EXa9QEtpEsLJHHQaThoMBeYxizQ4z8en2INNbHoM4WRuNAvzoPFPjaMM3SxmT2VFQW6fwL6nELS+TxgKACRbDm+7TsEI1j9gCkkeoUYXaQldcvwXBX54Hohu/M8UMLMn/QAD2n1ThQWUPrypknAoJKFMXCf2dKDtHIYwBpoPGMfdzS6CvQN04EUcvl+q1oTZaYCWqm1WWgDLKsbLweUFRlwJD7SHOIRh4FaMN4D2PCNaytIyh6sSNB1PYnvVa1J4tMxfxGev+OSbWsnPhwfyiqM6DLGZHRIRrtGEAbpTdjPyaL/x3DMx0Kok5r9VnbiSwzaEAmaTYJYgStKic+1B+KKlVgl/GM2R8m8oZe0AbZAmppdSNAp5KdCqImY3/R4dexTchKMyFXaXYlZBNZlXFkbyiqVYC13qFlf5gy7+mN0Bjx0+bjVuVL5K8a15wqrzpEvjQbAqpWFIs+QyZ/mBPv7wP9rxYRuW8MzcvOUcvJnhe60U2VWg2Mry6KgApWDDrPaP4wJ/5pOPS/XOXXapUy7ImJ0955Z9rEJ4altKpFlWC5yNcXhaKSFdh7LKM/zMZ/L4rw37DKuFjkZ0sioKJVse77tOwOc+S/F0ZowTP+uAUCKlsCFn6KOblDRv7vklBptTNO2A6KKlcMvYM0f2j8YiuItNYZx28NQbUruhz3M2N2h5ETtoNIK11i2g1adVBg+y+ZLXvDyIk7ANI6l8jTAEHli2KlF8hs2RkaJx8l0Fa5TJ4NCDxUDNjhXyTNsis08hxAW+Ny4gWAwEcFeu/8xx9JmiVHaOTZgLbCZeOD3aDwUgKgK1/8RiKZzVJ2gom8pCe09S0n/n4IFI6KAhi4yWXPjeMvk1nKDjBlPjoUoeXN+NuBUPgqqgB6LrHbtc+P4VSzmaWUK4058S9DEVrcIh/rD4W/ogoAPRYdcfK9L37dzqnnZGYp5ZyriNk4ajZIS1vkWwsiwGfRoPhlj/nX2v2ch57+9IfI6cwpWfXGdj63DFrZIt9fDgGOi4YgmGq3ORdZf5fjrrpl1MvvjW+bxMr+fOEWtsgPV4DCfdEQgmCa2mvoUiuutM1hhx955cOPVO7DD9+6eOta5PerIqAURTWEoIq65IwZJ+8IRXGKiKqGEIJKJbesGX/cBYra9owY23aGSE0skYdCBfWwlHmpQFAPy5lXdoGgHpYTr+oCRT0sG0d2g6Ielo2jhkFREzOOGgJFTSzyyaEIqIlFfrokAmpixi/XgqIm1s4v1oSiLsax60DhsGod5T5O2h0Kj7dZAVI/uZ17QcSl4zeD1k2AVTYGBC7PNwR1TgBWUDggvCUAAPC4AJ0BKs0DFwE+USiRRqOioaaiE2jY0AoJZW7hde45dWa44CX9D2BnHPF/lb/cfe9sH9s+9n9q/Zb5S/7Tx57B/zn23fCd5Z+o/6f+5/u1/oP//9P/R1+sv/B7gP6Tf43+1f5z/t/5z///Nj+zPv7/tP/P9Qn9N/xf/j/0XvCf5L/of673Sf13/b+wD/Ov77/4vXW9hL9uP//7gv8//y3/a9mr/b/+b/dfv/9En7R/+3/U/7n///QN/Nf7J/0Pzw+QD0APUg/gH72d07/Yvx98Qv8Z+PfRmwMPFj+Pc9nY38rNQj8Z/lG9R2h9AL2t+3ebrMvyAPMP/TeBh91/1v7SfAB+n/Q2+pPO5+hf5X/2f634B/5b/XP+x61Hr1/aX2KP1hD+AehfIKnMsGebEBqf66e/z3P1L5Il8gqc2u4D0L5BU5tdwHoXyCpKWa0hPJaqP3lO/hlEsh4aj1xWBijfy094YNJkOZ43gJdA5XxtKbaJynWAUYDm5AyLEvkFTm13AehfIKnNruA9C+QVOZnxMBPK6qAmLRitVKlIQzFj9tJKLXSfp5imJYmERAKYP1bApoNBUAV/u3xglCAg6iixkLgwTqT9c9xquGmfDL5BU5tdwHoXyCpza7gPQb/qS3BL6+6Enn2lW8rqmHiUdIrWySIItBBjsNH23vOAQHm4fKwl9KpITSB/KSWUQRY51JEvkFTm13AehfIKnNruA9C+QVOEjrptx2Ur0h5Wgd7d8dWybeSV8tiUaajHufmit0MDsxSvGfneIMHsXg2AtCLGBmcrua2l2+QVObXcB6F8gqc2u4D0L5BU5tdwChfPxUEmVtGYt55mTEHdd06ROn818T97KsZAG95Gg+TxK/Oa9C4uITBOh3QIaeX1aWNgqc2u4D0L5BU5tdwHoXyCpza7gPQa0EO3WqnmLIE9UABy1ajHO7Cn6ETB1tSRymhj1FcWfOIIsyr6oToDg8kS+QVObXcB6F8gqc2u4D0L5BU5leBN9vSnza/0Eqwd4l05cNMvAbIgX7y8dEEm5Dw/yXw/Nf7feDvoyOdtCMQAGguJcri1XDTPhl8gqc2u4D0L5BU5tdwHLMcLcTRoFzcJGkn8fSxN+Gas5VP40jCeXqXkYB+8SjXlnMxYkyotK9YKeKf/e/DQ5e01SLSPOI3bW04JntGQO8WT3iPEFxKFxarhpnwy+QVObXcB6F8gqc2tfyTO6Ck1bR0Snlecrvlos6BPMuYlpwKYV01IOgE+QdYG3SJ05OGnL8IcNBsr+9WmxZQweIpdssri1XDTPhl8gqc2u4D0L5BU5tdgzQdsIx9cRV6VEN5X3pMnY0ly0GckK9hRWa6V4fK7kP/d6oIlXtw7HkiXyCpza7gPQvkFTm13AehfIKnNmzDPNcDcXdTx/BGU2mPKIOtl01pnUoNxpaMIerHrmxhYtMS7i7iRb5BU5tdwHoXyCpza7gPQvkFTm13AJyAX+XyB/8l8983CT1L8ECjEeiAGC16J2htXzKeUgZ3kSJ1udzt64HUwBO5CIQoS/MgolC4tVw0z4ZfIKnNruA9C+QVObXcAsP57vjD4lkipPoQL3R7dXKqTdzdKWguYqMW0PrK+/n+nNMTlwF5pk0AhXzZz53AehfIKnNruA9C+QVObXcB6F8gqTXTmeSqWcxGU4dMgzN4h91cHQ7we2DhKre0WcistYnVZbXrtz/QNh+XuhQByDmVqN1USm13AehfIKnNruA9C+QVObXcB6FxDoA8Th5FROFSLZ9s0qGUYuC68wZa92Gyb1dUbD7pTi7yV58l8EyALjXre0vaq2wKccqzqotVw0z4ZfIKnNruA9C+QVObXcBzcaD/kcgQJ4oOTryCi/KKhR0ToXt0G6rz6ttZ3/BsD/hXdOVLuhjDul9bpaSXyCpza7gPQvkFTm13AehfIKnMrqhnZ4lYXEoSaCwJ1OHkiXyCpza7gPQvkFTm13AehfIKnNrt3AAD+/hf5FF7ZysZWIixn+E5jw4lxETL1amiIPJRKs6pKebZgMp1kvRbyTQvwq7kx+D7lITjl0NM8/i5J2VNS5yTmd0z+S4grJWBlZmvFVvk45VriPmjUaRY1AiJ7di+x4hGbpBJYn26Eltv/XxXB9kpSjShp2B1yjc3IcFalGTmTbQdG7sLRkzsT/xZx7tStgghwikkJsCu40Ogw0cAFwrXwo4TzN85ypvHqCNWVoXskf+yO12EgsZKT0//8+Oglk82/H55ULf0OqpCMvJd50fczXdgdaLsMF07KzCygWjRFICtCcaW2rG7jXSFWQ/1SEsI71W6imkxG+ihvkbMiDgVgYQ43I4xh5VETdoVQiz3Bkg7o7o6hh2iQXexbTphX3dS59d7X+5IkW//SVOqUAB08t1RBIf8a/y6bln9tbp7aeVFzZcTRAzp9FLI1OK8XEsS+ZZwyFMtEbeoPteAVD/zSJZpa9vkhELlndnGckvmfXkbzzqOVbd8hPNWoOwfwXOWOFP8g4O2bnw6KtBdqPBDjXTuEcPJr1SDEDMHGZg48y2eqZhoMmysImeW3QZT2tQ4I/Pkg7L4LCT0JyCXEZ2q/JbtnegAgt68wvMysb15piodKmOGW1iLzO4nqWvhLiDbH7Kfc97exK2XeLINI3/7qI2Lex9jf1a5bs5ZNibf25dv9zWC6lQtO7sxDDUUesNdMgzr05ZRwm2lWLIBHUWI++rFhsdZbb9h6zdY866N4bpYp5v6rdfi5IDRsBQWIBu4yrsk0t025yxjG8AWmukxWK9drBognc9r/c2i67mUkCtLq2GkTHe48p9bUasWDwHADROB7U66f0y6xqs5ecMUlvmCaanAD9/T6K0HVZnLsZ7FpBlKUBSXuUELon5G5b6/HF5eXppjGnJALt+GYPxwelaqvbyRJHw9KAXErt9omW5wFzSgJ46nlhkyKDkpEJFIBwfPQAAEMsf615QlmbooUMhwMhhXjTqZh3br5o3/YN/86K/pFJerKg2FETn2ailkzIEhFZYXdhoSpk8WQ86NiRNDVmq/MLm8WnI58WTsAnzNz1Isa8CFLkkw6fEDJ69M48kApvX60XVY48rrUkIrbt2yLxzpZFz3eUAzssHlGHBN01ItRRjeQP+DeSVhl+191MtEAS0CB0qzPf19flPw2ypYBaSVNTLcTBmIcAlmVJ8US4oLlNDkSjF8sGC+aspkEZvmshbZdxV83UcSYbTfSZF2ejRmu6mo9NN7ez0OEQfYqycGq0nCAFNXFKJ8w1zVMyyHoiEtGlwmKJTZSEy/P362lhWUmEBxGH3c8U+t5JWFB1vqExnY7VTv3KaLuiA9V/soNxKvp7MZQttM/mBiRSN0iyX0HpKkNJ0DxzuytC8k5T8LnL6PV59wRh0QVeujSNhvzqNyyx71qdeg8BGtwtnTt90h1bC11hXyY+KrqGNyDtGIk1Crr3Qc6eh/5YIjDnQul2jlARXiISheUzz/MQfF1wLyMQd0hiHW8TfldxYSaKHNoXCl+0hWIrHpQR8yIt0SeBvaHu1JQxKB7sVfl6KhUDBWRtOs2J1cn3ES3mAAK6p1eMu8mlU4f+yqGUtTJ8PWAx0pGPtJNrf7jH7vXI01Q8Dtd048FGiyHz+ib24FEul4ZMwBo3j7X+ewVUF85GKYRD+D1BWl65XNJDXbfAQZ8tcL6ivjEFSkvtVjYSCTAgnpEiluB6whs80xRsjl2RYpyCwOwllXc+Gb7MnmEplBeNr+PyIbGUNEIPKRHkeWTBgjTzE++NjRZ3eWU6+cx1h56ufJjbgG3do2pHo/g2VTsjlh3f19D1jml/o5L9Nmt8F+C0owKtnSNzAOXXFC7YYLdZfXqw6Nh9xzqP6G3rRVbLBnsiRXKRq1W1qKGehhn7CJydGkwe8icW79lClKPJ/ez3xqh9T+O6vDaVywtC33LKrnmsndBrfLvCAqO4sZEDE8QBOTN1/KrvT6LTe8qCPdSzm9WB/lIugW68iCKCdrEfIpR6l7mhJmkzB49iZZVPkHIFt/aB207zseull6aQy9Ypfd5nRInKheg7NDCAbOOrQ2RI+u/EIv1VTUy3wKLndmIDcz+a1rjTEhvBB+hRdbW8MfGrlfYYLfdw0GEIKfpavdI0jxr63DsmJXFxnO89pQr6rm4+VIqadzfuYJDbllbQaXdTSjMBQAAEfQw6IvdmnNFmQJkpu/LWVBO++I/vV8SHBeRB4H9cRIGoNOdPx6scZtmqIthZfsuBCH75E+o+I5fRg/YO2t7k3KdT9Q7aTw1hUOB0V2skDDFZop7YJXBMNbFXVsPThAX0tZvXu6S4IxPEKpTN4YvIxOZgSpdMcaHW75yGU5sCrORBrTd+LQRwNIYUl/1IIAWwyTfKe/A2E7+3w2VeqfbUmrU4IJaiWe2so3kuJscswb7ZPA2jRTuYh0r5FtQjRemsmwiqgKtSTrlHdZ0YCDMPyqVxKz6EGoKW1EwBpD4WFnfU1Wbwqd6eZbUlpha/rWaRY5yzqYQ2Dt92fRKSKpaYGT12zyacZyGaKsXQ7rrgbR5E5uU6We29w3EkmzppBg5aKGgHknlC+XiMyaJ8DI8EuoO2zdgwiQf5Z0sJkSHnI4bUiabHnqqyiEZTyKUW+heA2T9XXxUroTBUmz+Pea2Sqk8+USpbwAPgg/v/r/RmvvN5GgP+AhbJ6ulFUkw4p4w9akT7zDlhjsnb0b3ClK3clfprUERz5dJKQ+SD5XrBsVCYFPYNrobip7FcXISuJ91tovN7E+Tqw7FgX7iKQjgikfqEq5uQQO/Af+mt82ALg8CaZFDw1igABhbwANFy1vn75L+QZ5rTIGnB3qYjankHKB1nGtDQifRwNF00X6zpKjUnepUqaz9oClnh4i4NQW/s/HA03uSHih7LTME6o4wxudRmLxfnFcKsz6fN63QLHjytpqSMNUQEzDX6divm0/+h1v5rB0pgI6rP5G8bNdklVUnsjeKUP3ka1UguwXuQSFxKdEavcaGKh29q3AxeXEge+o6x21xWCTy9yZkXnACtw29GAbcmRLRlH0ZnmoBTf/2X6ecb/h9mVucBnbhCe7GETh8y79d0fYeYD7nEhCdn7yAWgxvEQDNDI5lqORKQ22QHR2pNJTEYB0Oja2j3c7xAEczhlfEu0vA8Qhn4iNouPnUAbXaPANE4mNVWDisANYibMS5GaAM3ZAaGWcGGV2vA5d6e3VcIs+woPhRqYjBSmO7cfRccxILq2ZaHP+uW7FJEO3W4zRa66P1RP4SMkjapCvz3FjLNVKJ4ecdmmMx/ScXtzGeDk/uyioLIiod4bVlsf+MX1oohXZusshvR3cb6fzU2Agh2t+NHMSSBrRIlTTvvZPg1Lr7tXu2fe+Y5w9Zn2sV5+i/kKd1vrlHZea0ghcB8vvSOa6Y9w/49Jn7kNQB8RWrp2fKLBnI9RuH2wCH8wvTzQAAXN5FV5u3B46FQktvZcFkxZiGoLUsRxB0OvKdvjS22Lai7cmb+CGx5QaG/61L2WR7fOCTASBZLefwbrW/rFF9qr5eWMYQ0azXb6LBxYLEAGiehJ39IPuv57v/kGUAVPLEarbzdATfDe6ssrfpYK4JEHtxiYkuoaxLK0ugewgFutSZC5Gp/HSZ3UIxajPbHOMYsmp64xMI0ZJGP979fT8NLDc6a08QDeIeFdPdeeuXR5ZlyP9mENRTNXhX9g0vVhPa8fZaw+vY63MZj2zvfiKo8WsuTbWMjlBC5X9MY0ly9YCDYMwc1bbRU8vITYirjf2X96KA56vB4eOUy98tg5Kj+Lv1x8WV20kvPEvzBYHSh0MHbVJiOnJ+e3q7XsWcBv89k++hK9gSmSZXVQtO3RIR9xnkZiIQist6bObAPMoKNZT41ez0dXyydUgnHMLUBPIfHfPCcbn4ZMQQTKa/IYMbBVZXS/Ps5+xyURLMCr360Sj7CrDRuuw4mJcNEk391AhbZduCZbp8t7TyXabCNImXLE1b3kjzstQSQU+m0mI+8jFp0v8schZOLQRpwolvndXqO8TMc8LtbixpIw52ckHhY32IkAADSywMrWRMbgi9LiP2gHz3rAorvdLJhoJob60wVGslijVt+Tukivo8hiaTBrBCC46SL//TyuulrqNMKgle4Yrnjn5xWWgQ4XdaTaLJlsObp9lTqZx4d9x+TTjRK0C9ji865AM5FU/Lsed65B6EDVZE4jTrVPvU1kinFgmFWImu8ek9r3T/fQNLr02jue63N27+bJG4n9wrBhSwNcMR7H3g4W+Zhhbsn6XgFQ+Fk+cm85pD5UMpPlPphKoqqcvl6x0xPdP9bNl3h8uX/URUjRxlWLvw/f6eMu43isJ7IK2gu96VXaNwL8RTPRW0emA8fff057TSTlmS2jss+AdF7kv3t0WqW3ZUA8FYLkgBMHLGyHCKaEiytp9tJzpbUfiPBeGtovPo0kfBuhe+sgp1yXk7PHDT5/pvh9SlB/qeDWJscA/nR3inlrAFSj4/kmnWkqT5Mk2+/Y/wZbkXmI+vnPHeWYnMCHVG6GsY6xNRKwXZiaaAqsyBokrauvV0k5f59g/HkKWGtlxplE38kGCKkkTgW/zQuQEExzoGLSi5sPf697LTmFbftka+FYLDjDmtCuEzQKwWIWfFTgo6I6IrN4aFqcV+axqcNdXtqcwMQ9/BQwr4cK97wZoKSPTgi671flCyoAAAf+A7NtIfqy5y2xxfybBk+qfVT2s0HG/vGU60tyHRlQqF+im5XwRHi7/0iC1/HOu6gPoPCBw16qEODhlmkERNIw9s+VAtzqRiC1AInJ5dJT15elQDK1HQfwQUEBBSgkZvb+sOd76nsPr0w3wuq6Js1khNetAHbNFRqaFXPM2eZ8u0dKvSeFfCVgiFJy601NaQ7L2tsXP9tvtjI7YdK0zrNZKq7SstlUaf/ntTUdrNdVaLBgyv4H5ZGzX1Scqm48Ee1uNLoKqlca6Z/mYMBqqpWtISeLiYVK0GOF7yLk73iSOluNWgWRdi6ypnpeRXT9ERHBmQn8dL3CfjRgDThOwLmAAl84vUzfhHqus9EFoboF3cqTzBzNCjIwwEQjbG6ZDt4mD3sLg2qQVPbzInrEeqyXnVh3FxJY1W93Isaav/OrV7f9bX9kdDCsNR6g6EU7YKLOsj/mFkBpPwpnlLaVM6PPoYC14QhWfqHFjQF2XjlJi+u5HkoEzkwMJIL/+tczpvF0H649LoRgVSYm4g9q3Sq2txrP/Dgg9gQi4AE2U1Xk0qzy1NVBkg4UxSd8uzau1rMLrelfhEDrK1i/9Tks2bR4pSu0Gh1A9OPUDjpJmWQS9myJ/+rg+Uo5DxAwdqBBT5asV+xUHe1YJEeojc4Lka8cTBx9Nf1FhVw2lpeaUW3sKgDst8qmfr65zv1hzB3GR4SaToAWQYmL8UHBGtcyE6c/dryxTu1wFpXRVQAVJOijtEnhoBz9UplpJpl9bH6+LdJI3u1y2WeyyajTx4x9UgsHkBI0Ehmn4pQesFajLyJmS/FBGB1C/WMfbuPi9h1twtpKNHezfJG1aklTmeFV68Ej7iDXzadKP/w2UDzmbAE69wEnsYNIu8qbrZ7xXs2LcQEA5Dedn1yb1A/+rlZQd6CZZd5Hyi2gAClziPlSFZMSMr7V12SNWzHXFmzuhqUudEebvS7ljNeDm8F+Hl4e0Y2FMKpIbECShSePuvFd43RIn1gDXhxGMJ2R63wezf8bnvb+biqEgAALnMmhWW45DbZfuytoIvPmLK90wF6rAxt4CwfumQIFAhPgCsuZybXlSq+7/XSCdDjeguefhJNxr7Zz2bCNC3t6/ynT4J/92xY2lqibtpu6UaR9rNhQgzD4XksXMGuuh2r4f9tbpcv9WSjc9L0LxdK3/GtKclYnSKNgOAFEPDPaffsGw1UkGYc06GnhXTR3LM8jNn3491eYAGzyGMMnmGjHM1cPzq2/TN0tHFMjloKQAp8jNMlF6+S4p3XASDCdUa2gnyJTMV0UldupeV74LAjbTGDHk+fCEu5Y4pAogAsxOnvLQ42HBGqf6fVCZ+hO1C76E0+USMxiQeRNrY9cbtB/A6Dtfjif1S1tjrN73mVEpRwvRHEXBhUzrM6RQDlbW+Y6fuiFuSPcKJRQm3mpWRI+Bdlj2j8RYc9lJCt46K/KONHk7jRjxDzdBBh5WRqn4KFdidmMVmnhjtwq9qoMbnyAB2H3dJJX0+cs7hUsI9HBEu2wRzoJizS2lrcxPtgXkw1z1GAwWQz4h9pgm13sAlp69yZKkBB4fGFq99e6YXU2Q9cbiGrkZIcIJDUNu4iFzeh+K3KWNF22tEB7xpNCeetmga7Y8+fTTyFy2gQ/KIA4SfIjztsfPe3KHortBLsaLSkyLMUlIRxRwHNyaF24mvRKo3hcjT/R+Pr5r2JpTKvd4DZ+SbAzn6L/WuMxmGlo4YhO/dswkceNCaWd2mJ6N9uR1QjRWbnnHSVZ2WO/OY/lqydvotAmFN+WUf+ov9pdbQB96Ln12tH+6Sxx5wFtOoFfwuSwuM2LL7wkTgb58fk5RLgAAAEj2XlXKXSdpw0WHy+KdUrtdn+zkqcO9eB0bQ3oV7AtP01dNzaTb8ava4msXpsBhYv/h1DI6rv8rGojwPaXPAtbcJxmaV9TVSUmmSey0KcthghmnoIONgqrz5DMJju14dwZ1b8yl5YSQkxWfQ9odAjHgLbP3r3/32K2GCWMZbG+yt9BaDx62Tx8Y3YYM4BZDTTp8Qw2qTXS8taEbOylARCW+3/5zTTAs6hBcYrnV1Mi69wiqqK2bo7fmaiFuADvrOCuM5Wq3X5FSrFoSaliVqMuyhQQePtdkZxW5ojjRm14g5nAgFWNf6ApEwPIH675uXZ5Zd8jKCqvgNW0UhieEHOpDHp6M8z+P/I6YbZtt/KUf40hyLYOY//8e7LZ455SVXHi7jQDoTwgANtEMF/UZSivuQdfMZpHps9gWUbQFS/Zf+GVYVi3o/oU+eotl3rymWjtHJF9Xu7zOcEB9Ae+HhnOWHX8nqfNDvbsg5k1+JtbuluCIgkSLinouV4K2P511F9YdPJpbD+wLm008iQWNAwX//jWA6FRd5OhjyPZeoLT9E6VpvkP4v8PpAAAF3BzL+5aOR6WeB/yx1/iS0tFC1EiH06NXSnOIvyX2QBrs7ozlyp//On8rH9dBIUHpN+ecpNnjrshA8ge505BQ0rQj+VLO6ninkVVpOzcMGvmBwY5Qp+UNcxX5/7IKNXoZF1K+njgZm+TrPuPzLDeyGTOgwGfMrN2hmcaqrVUxdzGISFO3LOm8A1Pd0Gi30fcYgFJ7p8y/JrdZAcsWcltc581EA+uBK2zJP8ArJZ46oGbgZQQVSuxT+NbdcxezWywoL1EGCt1vUtt/uipz1rdbli0m24EFsbEDTlYo09lyf6ECOpkWvQDpIZ9xX/hulMeEdQwgbZXpy2bLYg48vhCnt2uqb3VhRxTVbJWSQ6IbwAXNxxd5zUYlknPy3Cc0yMO5lt4skofLiSeOY7hh/YzJJCQwgbak8iN1hPChOTUWOwI9D6ncF5MiZJ9kZfa/yMpf/zE3X6tLwD0MJADYPg7z+2V436i9+9RsVJOe0dOxyKwv5FIN+8pLnRvBlG0wek2lwCGyaQ+Fkw5G66eLaDV2pDl8tTpqEYy7uIcZmyWoCEo76xhKq8rnkwPw+2nxFYiobkaw1OHxaLV1J8IJNf5OQAAAOSMT82q4JRX4R5wjPah4fRVLJku/nK92RDfgybl7WK4npxeijfMnCLRlMJ6ng598LPOrjLayaLB3e09N6e7Hy9RMKPupmX1mJ5R8ajOIWAGY+TcjO9YjPj5Iv6nuX1mJKEw0JnbfQdMnwuM0oOUITrflP4Zmpunuf8Cse+1NvarM5Ifh6jKGGA7OXfdRIeyC0Nmbrwcai8t8x1VarkKInP6NPffUJWFlsFs66PO1xo5kENhHa1YCVh1LlAQ64jJq5TFE+hwL9xcXpzCv7+NnAAtJgPWpgYh+LyqWP7iQV84i2TSESn6KZ82i4DkJSKzYjolLymC26ZK3INQlmCjF4rhw6O7kBAuIeVX0ClNKx0RWFmw/gWRQp6f5SB+pjwnrVsWmQHKryJQXc0VPKlF3S/iRgHZ6+HEUo1U1YdUADxNV+mAKkgRV+BgqDCq9FqkdHoqJ2m+59kG338qf5NcA/m99OUDdG5IP9lfLUYR+MJY/+/rOW6eETrwLEoeiabhWQRWWBUyRaNt/K3qdICB+FjPLdNV8hOywypw76O7Y177ZNLQO+yZqkoKETHtJqhADN/ypOhGqow6GElm0uPPWMX4T44994TKgs0+DVq7hL7SKxi8C+X09Mut+TYXzzUwAAeQcZtTFh3Ug0XpL1tf8af7F1kaiXsEoRAB+brmc/tvkd2DGouOKbvzdb7cAq2Unlz4FpbO+EBkF1/1yaFIZhH/H3UWeP0U9fSMGbzdqeAWDkwLaEbxDTYkJ6NqcbqotcP7giJCUa2sxcHCTfvCcrpBpxVJ/aY01p/BQMroQVsBRbdVL56WI4EDHHN4hQF9spYNSQruFUPHOCZw71EJJBihx+/X6t7a5EvdM/CvAT9CGNNGglQTIIiiZUkLOZRxItwVL0rhpeNBYI5ihOqVjKswJq21uSVbi8kQUnn7pbjylAwOUsL3y2iiGjL/3N7WWWFhtRL6UvTYoubLyILQ6ZDgvhuvxoWXc01ypNqCFWd/SPkaopB45I2wGLw53SQvVu858ks3Sk9cjxQOA/DMtNfwkHW/f1INC/rsr8wtiV6VlhlboBWMusV1NrAQXUxeVh5tblTIy+oK2YAZZ49PIgoy+uwM4LXd6QmrgAGVwPfHvv2/pbD3GpjPABTu57w0EzsavOHo/anwJHnVl5T/h0HCon/PH3nD7J5vB9nFSmDBn0cC+rN2jF2EILWCo5pbbPcbgnynzL5xwRs0Ipm2iGsHra7UaTyYM3w7OON55Lq8d0kgH6KiCYKAgAExO3heSXrJcFN+SE0o49bzAcINEb3RjR3vzn6Rb7FhjauwbpTz1YPigG/NX2/SkVDCKTBJWbaIkBwDrLcoHa5WYAFztu2p7zbG5p2Ob3lAakfwhRi+jUIbafVy48VdcKx84Qqu6pGF8va7wFUnYXGnB2kAVb4SIKpycDBq2rU0O1H+P1z64/+NBDViFnC2H545XQPj4CClzqN5VJwfEszAAuma/Jirr8qBr2BwEkXrnDG6OYt7AC8HYwgBXTnJtx7LIt481vfmROO1uXg9FHbr4euv4eji5TTpJ3uVrNYL7RV6TXIRl74lbGzKJTphPJ0he2gu7R/m31nj8y6eMi6c9DLgM0YnyRebtu9aukJCjlWRq8+IaG10qp5BJSsLtzjKzlr7rgux0Z+cSxuXLAb8+ReMqFWhG7Occu3nPE9Z4icBUFlt4MM1zLwTYakhPT57ke1/nZA3CycIGAeG3jJs/tXSCsjtAsN0eX38k6G+WsnwU++y66RVqxxZ9K0G22X5oEx9KPLUo4ba6nxjqGYNLx4DduH9gLnO3hpohv5AMhquu3LMjpvadGtS8CLDJBhoNbge+rIyK4rMQqs1ZMR8hz99WOEQSk+GdXyIPyIvQA76CI0XUAAmmNIBB2PVbP5uLw/CYOJoBuXF+QcvYwQBJTKhQgQNb9fvaWs0qUClPZ6IkGbFUrOKVTlocsd4HV/5lD07xux+/Oc08W1SGqzokX/czg+oJuxIfWqeDJ34bMfjvr6mv8ZN437+eH7VIxhBwgHcPbJCKFZot3DOJZF4Oc7Ntouhqkc45uIMf/IuY+bV5mDsAPGpPRSZ3EqS+cGT8tjBAPAkMDBPYBDp/sxLC6yxcC01Gxi191gIOdC/Uxm9SFaKhqqVgP1uCELU6aSubeiz1xdM5FnScxB3nysr075SPv3c3u55+KS8A67Aki2R604AYaA+rLAaLRlKWhMfPh9mFPxyYyj5fLBovwV/VTy3NvpxssB0tMJg8OUrzhOkg3QqcLrcul6Gvx9uIw6YA+k+F89AQvHE7e4Jiaz+CXoZxnQIBi3stOFtB5vj1g3nyHXdznMUuizuaeX9K2l9wU2ka6fE59mZkQjPKaHfKmJo1zMwSZWnAEX4zZLG0IMKpbRAIDmLJyTjOwzESLLx48EAIPJmrZXO0uwD6LUbVlnq71Wlx/xSFsIX0qNyjO5Ji+mMQ3YaJh4+xv8MZu0Idl5mmojewEw6g+QxpyZQAEf8MoWb5hH3HLXuaqGGABhxMHHci8oljvOhgiwbBv7XMY4epr36PAO99ddplghohAp6C1MxEZj/4IWqbubu7XB/yWxGZ792PfqVlOuo5mBH+0dPt2fFyYjL266ITRXUUy7PsdA5Ju+Fl9Xro30GUpct/zEVh2/QAAMvE3sn4tVFME2PN4PJKmeNbaqh8uMdoEzpbQxLXa6HicYBZhKulY3bP0LNtKaIA0eB9LP2ofuz3Z7OedCKmj39alpgy9zXXjMV2phyYmrI75wBFOiPKJaKdqV3Ml1aU4uuJjgJqoMsgPEDaOHi9Y1niDsPERnK1I1bPFj7fzfnFEByVtmT23Qx9KM4HPk0OyWrtitmaVIo9ImaOD25tNbWNk4uwGbeKHWg3KXYRfCTfnTfETenMXE3x0CnCMSAruEH6oYUjQ6SuAo7AoofNgOM3zZK9ss5/UjsSu1Z/IPJoFPLfClozd/fnxyjrHNPdj1+5Ms1JD5yKO6AAB84qm/WCt4ac3O2kUGiZbY1LsYEM/tnrltZvpUf6wdI2NvxjqYupo2s6Jo0p+cOEtuDHF2UmwM4n/6bzQM1aUFzt6c6Zgv9C3MgdvO8VSOn/+gdX//8cQWT9XoyWDwZAjNH+EAr5YjhGEHuEamG89SwAAAAAAAA==;" vertex="1" parent="1">
                    <mxGeometry x="-604.46" y="-558" width="289.46" height="83" as="geometry"/>
                </mxCell>
                <mxCell id="76" value="" style="verticalLabelPosition=bottom;html=1;verticalAlign=top;strokeWidth=2;shape=mxgraph.lean_mapping.push_arrow;sketch=1;hachureGap=4;jiggle=2;curveFitting=1;fontFamily=Architects Daughter;fontSource=https%3A%2F%2Ffonts.googleapis.com%2Fcss%3Ffamily%3DArchitects%2BDaughter;fontSize=20;fillColor=#FFFFFF;strokeColor=#4D4D4D;rotation=0;" vertex="1" parent="1">
                    <mxGeometry x="-470" y="142.12" width="155" height="31.13" as="geometry"/>
                </mxCell>
                <mxCell id="77" value="" style="sketch=0;pointerEvents=1;shadow=0;dashed=0;html=1;strokeColor=none;fillColor=#434445;aspect=fixed;labelPosition=center;verticalLabelPosition=bottom;verticalAlign=top;align=center;outlineConnect=0;shape=mxgraph.vvd.nsx_dashboard;hachureGap=4;jiggle=2;curveFitting=1;fontFamily=Architects Daughter;fontSource=https%3A%2F%2Ffonts.googleapis.com%2Fcss%3Ffamily%3DArchitects%2BDaughter;fontSize=20;" vertex="1" parent="1">
                    <mxGeometry x="-218.13" y="92.56" width="140.06" height="130.26" as="geometry"/>
                </mxCell>
                <mxCell id="83" value="stream" style="html=1;dashed=0;whitespace=wrap;shape=partialRectangle;right=0;left=0;sketch=1;hachureGap=4;jiggle=2;curveFitting=1;fontFamily=Architects Daughter;fontSource=https%3A%2F%2Ffonts.googleapis.com%2Fcss%3Ffamily%3DArchitects%2BDaughter;fontSize=20;rotation=90;" vertex="1" parent="1">
                    <mxGeometry x="-812" y="-107" width="296" height="30" as="geometry"/>
                </mxCell>
                <mxCell id="2" value="Untitled Layer" parent="0"/>
            </root>
        </mxGraphModel>
    </diagram>
</mxfile>